<svg width="38" height="35" viewBox="0 0 38 35" fill="none" xmlns="http://www.w3.org/2000/svg">
<path d="M21.471 25.0953C23.3785 24.8288 25.0973 23.7693 26.1663 22.1629L37.4642 5.06728C38.3446 3.73436 38.121 1.9708 36.9332 0.883949C35.7454 -0.202898 33.9358 -0.298595 32.6362 0.658377L16.098 12.7983C14.4211 14.0286 13.429 15.9494 13.415 18.0001L21.471 25.0953ZM20.1016 26.8316L11.9967 19.6953C7.81844 19.8457 4.47167 23.2156 4.47167 27.3442C4.47167 27.6108 4.48565 27.8774 4.5136 28.1371C4.63936 29.3334 3.80092 30.6253 2.57121 30.6253H2.23584C0.99914 30.6253 0 31.6028 0 32.8126C0 34.0225 0.99914 35 2.23584 35H12.2971C16.6221 35 20.1225 31.5754 20.1225 27.3442C20.1225 27.1733 20.1155 27.0024 20.1086 26.8316H20.1016Z" fill="#B1B5E0"/>
</svg>
