<svg width="34" height="35" viewBox="0 0 34 35" fill="none" xmlns="http://www.w3.org/2000/svg">
<path d="M5.8029 0.644014C4.94066 -0.214671 3.54727 -0.214671 2.68503 0.644014C1.82278 1.5027 1.82278 2.8972 2.68503 3.75589L8.29306 9.34078L1.94005 15.6676C-0.646683 18.2436 -0.646683 22.4203 1.94005 24.9963L10.0451 33.068C12.6319 35.644 16.8258 35.644 19.4126 33.068L32.5463 19.9816C34.4846 18.0513 34.4846 14.9188 32.5463 12.9885L22.1028 2.58808C20.1644 0.657753 17.019 0.657753 15.0806 2.58808L11.4178 6.2289L5.8029 0.644014ZM11.4178 12.4527L14.8254 15.8462C15.6877 16.7049 17.0879 16.7049 17.9502 15.8462C18.8124 14.9875 18.8124 13.593 17.9502 12.7343L14.5426 9.34078L18.2054 5.69308C18.4193 5.48013 18.771 5.48013 18.9849 5.69308L29.4284 16.0935C29.6422 16.3064 29.6422 16.6568 29.4284 16.8697L26.5037 19.7824H4.48539C4.58196 19.4114 4.77511 19.068 5.06482 18.7794L11.4178 12.4527Z" fill="#B1B5E0"/>
</svg>
