<svg width="512" height="512" viewBox="0 0 512 512" fill="none" xmlns="http://www.w3.org/2000/svg">
<path d="M256 0C323.895 0 389.01 26.9714 437.019 74.9807C485.029 122.99 512 188.105 512 256C512 323.895 485.029 389.01 437.019 437.019C389.01 485.029 323.895 512 256 512C188.105 512 122.99 485.029 74.9807 437.019C26.9714 389.01 0 323.895 0 256C0 188.105 26.9714 122.99 74.9807 74.9807C122.99 26.9714 188.105 0 256 0ZM232 120V256C232 264 236 271.5 242.7 276L338.7 340C349.7 347.4 364.6 344.4 372 333.3C379.4 322.2 376.4 307.4 365.3 300L280 243.2V120C280 106.7 269.3 96 256 96C242.7 96 232 106.7 232 120Z" fill="#B1B5E0"/>
</svg>
