<svg width="34" height="34" viewBox="0 0 34 34" fill="none" xmlns="http://www.w3.org/2000/svg">
<path d="M32.9938 5.8065C34.3213 4.47899 34.3213 2.32313 32.9938 0.995627C31.6663 -0.331876 29.5104 -0.331876 28.1829 0.995627L17 12.1891L5.8065 1.00625C4.47899 -0.321256 2.32313 -0.321256 0.995627 1.00625C-0.331876 2.33375 -0.331876 4.48961 0.995627 5.81712L12.1891 17L1.00625 28.1935C-0.321255 29.521 -0.321255 31.6769 1.00625 33.0044C2.33375 34.3319 4.48961 34.3319 5.81712 33.0044L17 21.8109L28.1935 32.9937C29.521 34.3213 31.6769 34.3213 33.0044 32.9937C34.3319 31.6662 34.3319 29.5104 33.0044 28.1829L21.8109 17L32.9938 5.8065Z" fill="#FFC4A6"/>
</svg>
