<svg width="576" height="448" viewBox="0 0 576 448" fill="none" xmlns="http://www.w3.org/2000/svg">
<path d="M309 74C320.4 67 328 54.3 328 40C328 17.9 310.1 0 288 0C265.9 0 248 17.9 248 40C248 54.4 255.6 67 267 74L209.7 188.6C200.6 206.8 177 212 161.1 199.3L72 128C77 121.3 80 113 80 104C80 81.9 62.1 64 40 64C17.9 64 0 81.9 0 104C0 126.1 17.9 144 40 144C40.2 144 40.5 144 40.7 144L86.4 395.4C91.9 425.8 118.4 448 149.4 448H426.6C457.5 448 484 425.9 489.6 395.4L535.3 144C535.5 144 535.8 144 536 144C558.1 144 576 126.1 576 104C576 81.9 558.1 64 536 64C513.9 64 496 81.9 496 104C496 113 499 121.3 504 128L414.9 199.3C399 212 375.4 206.8 366.3 188.6L309 74Z" fill="#B1B5E0"/>
</svg>
