<svg width="30" height="40" viewBox="0 0 30 40" fill="none" xmlns="http://www.w3.org/2000/svg">
<path d="M2.49935 0C1.1169 0 0 1.11719 0 2.5C0 3.88281 1.1169 5 2.49935 5V5.85938C2.49935 9.17188 3.81932 12.3516 6.16246 14.6953L11.458 20L6.16246 25.3047C3.81932 27.6484 2.49935 30.8281 2.49935 34.1406V35C1.1169 35 0 36.1172 0 37.5C0 38.8828 1.1169 40 2.49935 40H4.9987H24.9935H27.4928C28.8753 40 29.9922 38.8828 29.9922 37.5C29.9922 36.1172 28.8753 35 27.4928 35V34.1406C27.4928 30.8281 26.1729 27.6484 23.8297 25.3047L18.5342 20L23.8375 14.6953C26.1807 12.3516 27.5007 9.17188 27.5007 5.85938V5C28.8831 5 30 3.88281 30 2.5C30 1.11719 28.8831 0 27.5007 0H24.9935H4.9987H2.49935ZM7.49805 5.85938V5H22.4941V5.85938C22.4941 7.85156 21.7053 9.75781 20.2994 11.1641L14.9961 16.4609L9.69279 11.1562C8.2869 9.75781 7.49805 7.84375 7.49805 5.85938Z" fill="#C9FBB9"/>
</svg>
