<svg width="72" height="64" viewBox="0 0 72 64" fill="none" xmlns="http://www.w3.org/2000/svg">
<path d="M71.9811 31.9313C71.9811 34.1808 70.1056 35.943 67.9801 35.943H63.979L64.0666 55.9641C64.0666 56.3015 64.0416 56.6389 64.0041 56.9764V59.001C64.0041 61.7629 61.766 64 59.0028 64H57.0022C56.8647 64 56.7272 64 56.5896 63.9875C56.4146 64 56.2395 64 56.0645 64L52.0009 63.9875H49.0002C46.237 63.9875 43.9989 61.7504 43.9989 58.9885V55.9891V47.9906C43.9989 45.7786 42.2109 43.9914 39.9978 43.9914H31.9958C29.7827 43.9914 27.9947 45.7786 27.9947 47.9906V55.9891V58.9885C27.9947 61.7504 25.7567 63.9875 22.9934 63.9875H19.9927H16.0041C15.8166 63.9875 15.629 63.975 15.4415 63.9625C15.2915 63.975 15.1414 63.9875 14.9914 63.9875H12.9909C10.2276 63.9875 7.98957 61.7504 7.98957 58.9885V44.9912C7.98957 44.8787 7.98957 44.7538 8.00207 44.6413V35.9305H4.00103C1.75045 35.9305 0 34.1808 0 31.9188C0 30.794 0.375097 29.7942 1.25032 28.9194L33.2961 0.999805C34.1713 0.124976 35.1716 0 36.0468 0C36.922 0 37.9223 0.249951 38.6725 0.874829L70.6058 28.9319C71.606 29.8067 72.1061 30.8065 71.9811 31.9313Z" fill="#9DA3CB"/>
</svg>
