<svg width="95" height="95" viewBox="0 0 95 95" fill="none" xmlns="http://www.w3.org/2000/svg">
<rect x="24" y="10" width="47" height="74" fill="#494E8A"/>
<path d="M47.5 95C60.0978 95 72.1796 89.9956 81.0876 81.0876C89.9956 72.1796 95 60.0978 95 47.5C95 34.9022 89.9956 22.8204 81.0876 13.9124C72.1796 5.00445 60.0978 0 47.5 0C34.9022 0 22.8204 5.00445 13.9124 13.9124C5.00445 22.8204 0 34.9022 0 47.5C0 60.0978 5.00445 72.1796 13.9124 81.0876C22.8204 89.9956 34.9022 95 47.5 95ZM40.0781 62.3438H44.5312V50.4688H40.0781C37.6104 50.4688 35.625 48.4834 35.625 46.0156C35.625 43.5479 37.6104 41.5625 40.0781 41.5625H48.9844C51.4521 41.5625 53.4375 43.5479 53.4375 46.0156V62.3438H54.9219C57.3896 62.3438 59.375 64.3291 59.375 66.7969C59.375 69.2646 57.3896 71.25 54.9219 71.25H40.0781C37.6104 71.25 35.625 69.2646 35.625 66.7969C35.625 64.3291 37.6104 62.3438 40.0781 62.3438ZM47.5 23.75C49.0747 23.75 50.5849 24.3756 51.6984 25.4891C52.8119 26.6026 53.4375 28.1128 53.4375 29.6875C53.4375 31.2622 52.8119 32.7724 51.6984 33.8859C50.5849 34.9994 49.0747 35.625 47.5 35.625C45.9253 35.625 44.4151 34.9994 43.3016 33.8859C42.1881 32.7724 41.5625 31.2622 41.5625 29.6875C41.5625 28.1128 42.1881 26.6026 43.3016 25.4891C44.4151 24.3756 45.9253 23.75 47.5 23.75Z" fill="#9DA3CB"/>
</svg>
