<svg width="30" height="40" viewBox="0 0 30 40" fill="none" xmlns="http://www.w3.org/2000/svg">
<path d="M24.7948 3.48496C25.2556 2.41468 24.9119 1.16473 23.9668 0.477252C23.0217 -0.210223 21.7329 -0.147725 20.8503 0.617873L0.854617 18.1173C0.0735352 18.8047 -0.207654 19.9063 0.159454 20.875C0.526562 21.8437 1.46386 22.4999 2.5027 22.4999H11.2118L5.20524 36.515C4.7444 37.5853 5.08808 38.8353 6.03319 39.5227C6.97829 40.2102 8.26708 40.1477 9.1497 39.3821L29.1454 21.8827C29.9265 21.1953 30.2077 20.0937 29.8405 19.125C29.4734 18.1563 28.544 17.5079 27.4973 17.5079H18.7882L24.7948 3.48496Z" fill="#FFEFBF"/>
</svg>
