<svg width="37" height="37" viewBox="0 0 37 37" fill="none" xmlns="http://www.w3.org/2000/svg">
<path d="M30.064 15.029C30.064 18.3456 28.9872 21.4092 27.1732 23.8947L36.3225 33.0495C37.2258 33.9526 37.2258 35.4194 36.3225 36.3226C35.4191 37.2258 33.952 37.2258 33.0487 36.3226L23.8994 27.1679C21.4134 28.9887 18.3491 30.0581 15.032 30.0581C6.72826 30.0581 0 23.3312 0 15.029C0 6.72694 6.72826 0 15.032 0C23.3357 0 30.064 6.72694 30.064 15.029ZM15.032 25.4338C16.3986 25.4338 17.7519 25.1646 19.0145 24.6418C20.2771 24.1189 21.4243 23.3525 22.3907 22.3863C23.357 21.4201 24.1236 20.2731 24.6466 19.0108C25.1696 17.7484 25.4387 16.3954 25.4387 15.029C25.4387 13.6627 25.1696 12.3097 24.6466 11.0473C24.1236 9.78497 23.357 8.63796 22.3907 7.6718C21.4243 6.70563 20.2771 5.93922 19.0145 5.41634C17.7519 4.89345 16.3986 4.62432 15.032 4.62432C13.6653 4.62432 12.3121 4.89345 11.0495 5.41634C9.78688 5.93922 8.63965 6.70563 7.6733 7.6718C6.70694 8.63796 5.94038 9.78497 5.41739 11.0473C4.8944 12.3097 4.62523 13.6627 4.62523 15.029C4.62523 16.3954 4.8944 17.7484 5.41739 19.0108C5.94038 20.2731 6.70694 21.4201 7.6733 22.3863C8.63965 23.3525 9.78688 24.1189 11.0495 24.6418C12.3121 25.1646 13.6653 25.4338 15.032 25.4338Z" fill="#E9D5FF"/>
</svg>
