<svg width="322" height="322" viewBox="0 0 322 322" fill="none" xmlns="http://www.w3.org/2000/svg">
<path d="M93.917 26.8335H228.084V138.527C228.084 143.67 226.818 148.383 224.287 152.665C221.758 156.947 218.216 160.396 213.661 163.013L166.367 190.517L175.088 223.052H220.034L183.473 250.221L197.561 295.167L161 267.998L124.104 295.167L138.192 250.221L101.632 223.052H146.95L155.298 190.517L108.34 163.013C103.785 160.396 100.243 156.947 97.7139 152.665C95.1826 148.383 93.917 143.67 93.917 138.527V26.8335ZM114.042 46.9585V138.527C114.042 140.093 114.545 141.546 115.551 142.888C116.558 144.229 118.067 145.459 120.079 146.577L152.279 164.354V46.9585H114.042ZM207.959 46.9585H172.404V164.354L201.921 146.577C203.934 145.459 205.443 144.229 206.449 142.888C207.456 141.546 207.959 140.093 207.959 138.527V46.9585Z" fill="#5B64A0"/>
</svg>
