<svg width="659" height="393" viewBox="0 0 659 393" fill="none" xmlns="http://www.w3.org/2000/svg">
<rect y="128" width="281" height="265" rx="25" fill="#B1B5E0"/>
<rect x="428" y="179" width="231" height="214" rx="25" fill="#B1B5E0"/>
<path d="M200 108L199.416 111.212C197.956 119.241 191.765 125.578 183.772 127.223L180 128H200V108Z" fill="#B1B5E0"/>
<path d="M461 159L461.584 162.212C463.044 170.241 469.235 176.578 477.228 178.223L481 179H461V159Z" fill="#B1B5E0"/>
<rect x="200" width="261" height="393" rx="25" fill="#B1B5E0"/>
<path d="M345.534 57.3636V141H327.851V74.1481H327.361L308.208 86.1545V70.4727L328.912 57.3636H345.534Z" fill="#494E8A"/>
<path d="M550.791 315.143C544.692 315.143 539.261 314.095 534.496 311.999C529.759 309.875 526.016 306.962 523.266 303.26C520.543 299.53 519.141 295.228 519.06 290.355H536.865C536.974 292.397 537.641 294.194 538.866 295.745C540.118 297.27 541.779 298.454 543.848 299.298C545.917 300.142 548.245 300.564 550.832 300.564C553.527 300.564 555.909 300.088 557.978 299.135C560.047 298.182 561.667 296.862 562.838 295.174C564.009 293.486 564.594 291.539 564.594 289.334C564.594 287.101 563.968 285.127 562.715 283.412C561.49 281.67 559.721 280.309 557.406 279.328C555.12 278.348 552.397 277.858 549.239 277.858H541.439V264.872H549.239C551.907 264.872 554.262 264.409 556.304 263.483C558.373 262.558 559.979 261.278 561.123 259.645C562.266 257.984 562.838 256.051 562.838 253.846C562.838 251.749 562.334 249.911 561.327 248.332C560.347 246.726 558.958 245.474 557.161 244.575C555.392 243.677 553.323 243.228 550.954 243.228C548.558 243.228 546.367 243.663 544.379 244.534C542.392 245.378 540.799 246.59 539.601 248.169C538.403 249.748 537.763 251.599 537.682 253.723H520.734C520.816 248.904 522.19 244.657 524.859 240.982C527.527 237.306 531.12 234.434 535.64 232.365C540.186 230.268 545.318 229.22 551.036 229.22C556.808 229.22 561.858 230.268 566.187 232.365C570.515 234.461 573.878 237.292 576.274 240.859C578.697 244.398 579.895 248.373 579.867 252.784C579.895 257.466 578.438 261.373 575.498 264.504C572.585 267.635 568.787 269.623 564.104 270.467V271.12C570.257 271.91 574.94 274.047 578.152 277.532C581.392 280.989 582.998 285.318 582.971 290.518C582.998 295.283 581.623 299.516 578.846 303.219C576.097 306.921 572.299 309.835 567.453 311.958C562.607 314.082 557.053 315.143 550.791 315.143Z" fill="#494E8A"/>
<path d="M75.0609 261V248.259L104.832 220.693C107.364 218.243 109.487 216.037 111.203 214.077C112.945 212.117 114.265 210.197 115.164 208.319C116.062 206.413 116.511 204.358 116.511 202.152C116.511 199.702 115.953 197.592 114.837 195.822C113.721 194.026 112.196 192.651 110.263 191.698C108.33 190.718 106.139 190.228 103.688 190.228C101.129 190.228 98.8967 190.745 96.9909 191.779C95.0851 192.814 93.615 194.298 92.5804 196.231C91.5458 198.164 91.0285 200.464 91.0285 203.132H74.2441C74.2441 197.66 75.4829 192.909 77.9604 188.88C80.4379 184.851 83.9091 181.733 88.3741 179.528C92.839 177.323 97.9846 176.22 103.811 176.22C109.8 176.22 115.014 177.282 119.452 179.406C123.917 181.502 127.388 184.415 129.866 188.145C132.343 191.875 133.582 196.149 133.582 200.968C133.582 204.126 132.956 207.243 131.703 210.32C130.478 213.396 128.286 216.813 125.128 220.57C121.97 224.3 117.519 228.779 111.774 234.006L99.5637 245.972V246.543H134.684V261H75.0609Z" fill="#494E8A"/>
</svg>
