<svg width="622" height="599" viewBox="0 0 622 599" fill="none" xmlns="http://www.w3.org/2000/svg">
<path d="M621.861 298.011C621.888 310.633 618.332 323.004 611.605 333.685C604.878 344.365 595.257 352.917 583.861 358.344L95.5277 589.677C86.59 594.551 76.6889 597.396 66.5277 598.011C55.4082 597.988 44.4711 595.183 34.7122 589.854C24.9533 584.524 16.6824 576.838 10.6527 567.495C4.62305 558.152 1.02601 547.45 0.189108 536.362C-0.647795 525.274 1.30202 514.153 5.86105 504.011L81.861 331.344H266.528C275.368 331.344 283.847 327.832 290.098 321.581C296.349 315.33 299.861 306.851 299.861 298.011C299.861 289.17 296.349 280.692 290.098 274.441C283.847 268.189 275.368 264.677 266.528 264.677H81.861L5.86105 93.6775C0.354109 81.2511 -1.22303 67.4383 1.34102 54.0904C3.90507 40.7425 10.4878 28.4972 20.2069 18.9957C29.9261 9.4941 42.3173 3.1903 55.7198 0.92909C69.1223 -1.33212 82.8958 0.557306 95.1944 6.34415L583.528 237.677C594.986 243.057 604.676 251.588 611.464 262.272C618.252 272.956 621.859 285.352 621.861 298.011Z" fill="#5B64A0"/>
</svg>
