<svg width="640" height="512" viewBox="0 0 640 512" fill="none" xmlns="http://www.w3.org/2000/svg">
<g clip-path="url(#clip0_448_123)">
<path d="M353.8 54.0999L330.2 6.29991C326.3 -2.00009 314.1 -2.30009 309.8 6.29991L286.2 54.0999L233.9 61.5999C224.6 62.9999 220.6 74.4999 227.5 81.3999L265.5 118.4L256.5 170.5C255.1 179.8 264.7 187 273.3 182.7L320.2 157.9L366.8 182.3C375.4 186.6 385.1 179.4 383.6 170.1L374.6 118L412.6 81.3999C419.4 74.5999 415.5 63.0999 406.2 61.5999L353.9 54.0999H353.8ZM256 256C238.3 256 224 270.3 224 288V480C224 497.7 238.3 512 256 512H384C401.7 512 416 497.7 416 480V288C416 270.3 401.7 256 384 256H256ZM32 320C14.3 320 0 334.3 0 352V480C0 497.7 14.3 512 32 512H160C177.7 512 192 497.7 192 480V352C192 334.3 177.7 320 160 320H32ZM448 416V480C448 497.7 462.3 512 480 512H608C625.7 512 640 497.7 640 480V416C640 398.3 625.7 384 608 384H480C462.3 384 448 398.3 448 416Z" fill="#5B64A0"/>
</g>
<defs>
<clipPath id="clip0_448_123">
<rect width="640" height="512" fill="white"/>
</clipPath>
</defs>
</svg>
