<svg width="95" height="95" viewBox="0 0 95 95" fill="none" xmlns="http://www.w3.org/2000/svg">
<circle cx="47.5" cy="47.5" r="47.5" fill="#9DA3CB"/>
<path d="M60.5947 63.2471L73.7861 50.3641C74.5596 49.6087 75 48.5701 75 47.5C75 46.4299 74.5596 45.3913 73.7861 44.6359L60.5947 31.7529C59.9072 31.0815 58.9834 30.7143 58.0166 30.7143C56.0078 30.7143 54.375 32.3089 54.375 34.2708V40.7857H40.625C38.7236 40.7857 37.1875 42.2859 37.1875 44.1429V50.8571C37.1875 52.7141 38.7236 54.2143 40.625 54.2143H54.375V60.7292C54.375 62.6911 56.0078 64.2857 58.0166 64.2857C58.9834 64.2857 59.9072 63.908 60.5947 63.2471ZM37.1875 64.2857H30.3125C28.4111 64.2857 26.875 62.7855 26.875 60.9286V34.0714C26.875 32.2145 28.4111 30.7143 30.3125 30.7143H37.1875C39.0889 30.7143 40.625 29.2141 40.625 27.3571C40.625 25.5002 39.0889 24 37.1875 24H30.3125C24.6191 24 20 28.5112 20 34.0714V60.9286C20 66.4888 24.6191 71 30.3125 71H37.1875C39.0889 71 40.625 69.4998 40.625 67.6429C40.625 65.7859 39.0889 64.2857 37.1875 64.2857Z" fill="#494E8A"/>
</svg>
