<svg width="77" height="103" viewBox="0 0 77 103" fill="none" xmlns="http://www.w3.org/2000/svg">
<path d="M70.6456 79.188C58.7306 78.9707 54.1314 67.1012 54.1314 67.1012C58.7774 67.0867 58.0858 62.0329 58.0858 62.0329L58.0277 43.8279C68.1676 43.7957 72.169 38.5475 70.1636 32.9984C66.7766 23.6415 45.7018 0.392285 38.4474 0.0675937V0C31.3493 0 10.0555 23.5982 6.67318 33.0384C4.68552 38.5938 8.70278 43.8277 18.8427 43.8277V62.0343C18.8427 62.0343 18.1673 67.0914 22.8134 67.0914C22.8134 67.0914 18.2512 78.974 6.33777 79.2248C-2.02248 79.4033 -2.53679 89.8453 7.35025 90.3518C15.7024 90.7795 24.5883 84.2835 28.6443 75.1827C28.6443 75.1827 23.5758 89.3405 18.1673 92.7124C12.7588 96.0844 15.8975 104.28 21.548 102.826C32.0264 100.13 38.4474 81.2494 38.4474 73.4958L38.5184 73.557C38.5408 81.3104 45.0247 100.17 55.5096 102.833C61.1631 104.27 64.2762 96.0633 58.8578 92.7092C53.438 89.3534 48.3246 75.2114 48.3246 75.2114C52.4112 84.3012 61.3178 90.7666 69.667 90.3132C79.5524 89.7777 79.0075 79.3375 70.6456 79.188Z" fill="#D5EDFF"/>
</svg>
