<svg width="102" height="96" viewBox="0 0 102 96" fill="none" xmlns="http://www.w3.org/2000/svg">
<path d="M57.6327 68.8329C62.7527 68.1017 67.3664 65.1957 70.2358 60.7897L100.562 13.8988C102.925 10.2428 102.325 5.40561 99.1366 2.42455C95.9483 -0.55652 91.0909 -0.819004 87.6025 1.80583L43.2105 35.1038C38.7094 38.4786 36.0463 43.747 36.0087 49.3716L57.6327 68.8329ZM53.9569 73.5951L32.2016 54.0214C20.9863 54.4338 12.0029 63.677 12.0029 75.0013C12.0029 75.7325 12.0404 76.4637 12.1154 77.1762C12.453 80.4572 10.2025 84.0007 6.90168 84.0007H6.00146C2.6819 84.0007 0 86.6818 0 90.0004C0 93.3189 2.6819 96 6.00146 96H33.008C44.6171 96 54.0131 86.6068 54.0131 75.0013C54.0131 74.5326 53.9944 74.0639 53.9756 73.5951H53.9569Z" fill="#B1B5E0"/>
</svg>
