<svg width="978" height="656" viewBox="0 0 978 656" fill="none" xmlns="http://www.w3.org/2000/svg">
<rect width="978" height="656" rx="30" fill="#1B1C24"/>
<path d="M526.925 284.518V284.518C486.531 256.177 430.308 278.108 419.773 326.314L416.436 341.583C407.08 384.394 357.058 403.762 321.312 378.414V378.414" stroke="#B1B5E0" stroke-width="20" stroke-linecap="round"/>
<path d="M362.298 487.909V517H356.986L344.33 498.69H344.116V517H337.966V487.909H343.364L355.92 506.205H356.176V487.909H362.298ZM377.124 517.426C374.918 517.426 373.01 516.957 371.4 516.02C369.799 515.073 368.564 513.757 367.692 512.071C366.821 510.376 366.386 508.411 366.386 506.176C366.386 503.922 366.821 501.953 367.692 500.267C368.564 498.572 369.799 497.256 371.4 496.318C373.01 495.371 374.918 494.898 377.124 494.898C379.331 494.898 381.234 495.371 382.835 496.318C384.444 497.256 385.685 498.572 386.556 500.267C387.427 501.953 387.863 503.922 387.863 506.176C387.863 508.411 387.427 510.376 386.556 512.071C385.685 513.757 384.444 515.073 382.835 516.02C381.234 516.957 379.331 517.426 377.124 517.426ZM377.153 512.739C378.156 512.739 378.995 512.455 379.667 511.886C380.339 511.309 380.846 510.523 381.187 509.528C381.537 508.534 381.712 507.402 381.712 506.134C381.712 504.865 381.537 503.733 381.187 502.739C380.846 501.744 380.339 500.958 379.667 500.381C378.995 499.803 378.156 499.514 377.153 499.514C376.139 499.514 375.287 499.803 374.596 500.381C373.914 500.958 373.398 501.744 373.048 502.739C372.707 503.733 372.536 504.865 372.536 506.134C372.536 507.402 372.707 508.534 373.048 509.528C373.398 510.523 373.914 511.309 374.596 511.886C375.287 512.455 376.139 512.739 377.153 512.739ZM395.555 517L389.617 495.182H395.739L399.12 509.841H399.319L402.842 495.182H408.85L412.43 509.756H412.614L415.938 495.182H422.046L416.123 517H409.717L405.967 503.278H405.697L401.947 517H395.555ZM446.137 495.182V499.727H432.998V495.182H446.137ZM435.981 489.955H442.032V510.295C442.032 510.854 442.117 511.29 442.288 511.602C442.458 511.905 442.695 512.118 442.998 512.241C443.31 512.365 443.67 512.426 444.077 512.426C444.362 512.426 444.646 512.402 444.93 512.355C445.214 512.298 445.432 512.256 445.583 512.227L446.535 516.73C446.232 516.825 445.806 516.934 445.256 517.057C444.707 517.189 444.04 517.27 443.254 517.298C441.795 517.355 440.517 517.161 439.418 516.716C438.329 516.271 437.482 515.58 436.876 514.642C436.27 513.705 435.971 512.521 435.981 511.091V489.955ZM450.079 517V495.182H455.945V498.989H456.173C456.57 497.634 457.238 496.612 458.175 495.92C459.113 495.22 460.192 494.869 461.414 494.869C461.717 494.869 462.044 494.888 462.394 494.926C462.745 494.964 463.052 495.016 463.317 495.082V500.452C463.033 500.366 462.64 500.291 462.138 500.224C461.637 500.158 461.177 500.125 460.761 500.125C459.871 500.125 459.075 500.319 458.374 500.707C457.683 501.086 457.134 501.616 456.727 502.298C456.329 502.98 456.13 503.766 456.13 504.656V517H450.079ZM470.846 525.182C470.079 525.182 469.359 525.12 468.687 524.997C468.024 524.884 467.475 524.737 467.039 524.557L468.403 520.04C469.113 520.258 469.752 520.376 470.32 520.395C470.898 520.414 471.395 520.281 471.812 519.997C472.238 519.713 472.584 519.23 472.849 518.548L473.204 517.625L465.377 495.182H471.741L476.258 511.205H476.485L481.045 495.182H487.451L478.971 519.358C478.564 520.532 478.01 521.555 477.309 522.426C476.618 523.307 475.742 523.984 474.681 524.457C473.621 524.94 472.342 525.182 470.846 525.182ZM507.845 517.355C506.188 517.355 504.687 516.929 503.342 516.077C502.007 515.215 500.946 513.951 500.161 512.284C499.384 510.608 498.996 508.553 498.996 506.119C498.996 503.619 499.398 501.541 500.203 499.884C501.008 498.217 502.078 496.972 503.413 496.148C504.758 495.314 506.231 494.898 507.831 494.898C509.053 494.898 510.071 495.106 510.885 495.523C511.709 495.93 512.372 496.441 512.874 497.057C513.385 497.663 513.773 498.259 514.038 498.847H514.223V487.909H520.26V517H514.294V513.506H514.038C513.754 514.112 513.352 514.713 512.831 515.31C512.32 515.897 511.652 516.384 510.828 516.773C510.014 517.161 509.019 517.355 507.845 517.355ZM509.763 512.54C510.738 512.54 511.562 512.275 512.234 511.744C512.916 511.205 513.437 510.452 513.797 509.486C514.166 508.52 514.351 507.388 514.351 506.091C514.351 504.794 514.171 503.667 513.811 502.71C513.451 501.754 512.93 501.015 512.249 500.494C511.567 499.973 510.738 499.713 509.763 499.713C508.768 499.713 507.93 499.983 507.249 500.523C506.567 501.062 506.051 501.811 505.7 502.767C505.35 503.723 505.175 504.831 505.175 506.091C505.175 507.36 505.35 508.482 505.7 509.457C506.06 510.423 506.576 511.181 507.249 511.73C507.93 512.27 508.768 512.54 509.763 512.54ZM525.235 517V495.182H531.102V498.989H531.329C531.727 497.634 532.394 496.612 533.332 495.92C534.269 495.22 535.349 494.869 536.57 494.869C536.873 494.869 537.2 494.888 537.55 494.926C537.901 494.964 538.209 495.016 538.474 495.082V500.452C538.19 500.366 537.797 500.291 537.295 500.224C536.793 500.158 536.334 500.125 535.917 500.125C535.027 500.125 534.231 500.319 533.531 500.707C532.839 501.086 532.29 501.616 531.883 502.298C531.485 502.98 531.286 503.766 531.286 504.656V517H525.235ZM547.199 517.412C545.807 517.412 544.566 517.17 543.477 516.688C542.388 516.195 541.527 515.471 540.892 514.514C540.267 513.548 539.955 512.346 539.955 510.906C539.955 509.694 540.177 508.676 540.622 507.852C541.067 507.028 541.673 506.366 542.44 505.864C543.207 505.362 544.079 504.983 545.054 504.727C546.039 504.472 547.071 504.292 548.151 504.188C549.42 504.055 550.442 503.932 551.219 503.818C551.995 503.695 552.559 503.515 552.909 503.278C553.259 503.042 553.435 502.691 553.435 502.227V502.142C553.435 501.242 553.151 500.546 552.582 500.054C552.024 499.562 551.228 499.315 550.196 499.315C549.107 499.315 548.241 499.557 547.597 500.04C546.953 500.513 546.527 501.11 546.318 501.83L540.722 501.375C541.006 500.049 541.564 498.903 542.398 497.938C543.231 496.962 544.306 496.214 545.622 495.693C546.948 495.163 548.482 494.898 550.224 494.898C551.437 494.898 552.597 495.04 553.705 495.324C554.822 495.608 555.812 496.048 556.673 496.645C557.545 497.241 558.231 498.009 558.733 498.946C559.235 499.874 559.486 500.987 559.486 502.284V517H553.747V513.974H553.577C553.226 514.656 552.758 515.258 552.17 515.778C551.583 516.29 550.878 516.692 550.054 516.986C549.23 517.27 548.278 517.412 547.199 517.412ZM548.932 513.236C549.822 513.236 550.608 513.061 551.29 512.71C551.972 512.35 552.507 511.867 552.895 511.261C553.283 510.655 553.477 509.969 553.477 509.202V506.886C553.288 507.009 553.027 507.123 552.696 507.227C552.374 507.322 552.009 507.412 551.602 507.497C551.195 507.573 550.788 507.644 550.381 507.71C549.973 507.767 549.604 507.819 549.273 507.866C548.563 507.971 547.942 508.136 547.412 508.364C546.882 508.591 546.47 508.899 546.176 509.287C545.883 509.666 545.736 510.139 545.736 510.707C545.736 511.531 546.034 512.161 546.631 512.597C547.237 513.023 548.004 513.236 548.932 513.236ZM568.484 517L562.547 495.182H568.669L572.05 509.841H572.249L575.771 495.182H581.78L585.359 509.756H585.544L588.868 495.182H594.976L589.053 517H582.646L578.896 503.278H578.626L574.876 517H568.484ZM611.197 525.182C610.43 525.182 609.711 525.12 609.038 524.997C608.375 524.884 607.826 524.737 607.391 524.557L608.754 520.04C609.464 520.258 610.104 520.376 610.672 520.395C611.25 520.414 611.747 520.281 612.163 519.997C612.589 519.713 612.935 519.23 613.2 518.548L613.555 517.625L605.729 495.182H612.092L616.609 511.205H616.837L621.396 495.182H627.803L619.322 519.358C618.915 520.532 618.361 521.555 617.661 522.426C616.969 523.307 616.093 523.984 615.033 524.457C613.972 524.94 612.694 525.182 611.197 525.182ZM640.054 517.426C637.848 517.426 635.939 516.957 634.33 516.02C632.729 515.073 631.493 513.757 630.622 512.071C629.751 510.376 629.315 508.411 629.315 506.176C629.315 503.922 629.751 501.953 630.622 500.267C631.493 498.572 632.729 497.256 634.33 496.318C635.939 495.371 637.848 494.898 640.054 494.898C642.26 494.898 644.164 495.371 645.764 496.318C647.374 497.256 648.615 498.572 649.486 500.267C650.357 501.953 650.793 503.922 650.793 506.176C650.793 508.411 650.357 510.376 649.486 512.071C648.615 513.757 647.374 515.073 645.764 516.02C644.164 516.957 642.26 517.426 640.054 517.426ZM640.082 512.739C641.086 512.739 641.924 512.455 642.597 511.886C643.269 511.309 643.776 510.523 644.116 509.528C644.467 508.534 644.642 507.402 644.642 506.134C644.642 504.865 644.467 503.733 644.116 502.739C643.776 501.744 643.269 500.958 642.597 500.381C641.924 499.803 641.086 499.514 640.082 499.514C639.069 499.514 638.217 499.803 637.526 500.381C636.844 500.958 636.328 501.744 635.977 502.739C635.636 503.733 635.466 504.865 635.466 506.134C635.466 507.402 635.636 508.534 635.977 509.528C636.328 510.523 636.844 511.309 637.526 511.886C638.217 512.455 639.069 512.739 640.082 512.739ZM668.719 507.71V495.182H674.77V517H668.96V513.037H668.733C668.241 514.315 667.421 515.343 666.276 516.119C665.139 516.896 663.752 517.284 662.114 517.284C660.655 517.284 659.372 516.953 658.264 516.29C657.156 515.627 656.29 514.685 655.665 513.463C655.049 512.241 654.737 510.778 654.727 509.074V495.182H660.778V507.994C660.788 509.282 661.134 510.3 661.815 511.048C662.497 511.796 663.411 512.17 664.557 512.17C665.286 512.17 665.968 512.005 666.602 511.673C667.237 511.332 667.748 510.83 668.136 510.168C668.534 509.505 668.728 508.686 668.719 507.71ZM679.61 517V495.182H685.477V498.989H685.704C686.102 497.634 686.769 496.612 687.707 495.92C688.644 495.22 689.724 494.869 690.945 494.869C691.248 494.869 691.575 494.888 691.925 494.926C692.276 494.964 692.584 495.016 692.849 495.082V500.452C692.565 500.366 692.172 500.291 691.67 500.224C691.168 500.158 690.709 500.125 690.292 500.125C689.402 500.125 688.606 500.319 687.906 500.707C687.214 501.086 686.665 501.616 686.258 502.298C685.86 502.98 685.661 503.766 685.661 504.656V517H679.61ZM394.683 565.426C392.448 565.426 390.526 564.953 388.916 564.006C387.315 563.049 386.084 561.723 385.223 560.028C384.37 558.333 383.944 556.383 383.944 554.176C383.944 551.941 384.375 549.981 385.237 548.295C386.108 546.6 387.344 545.279 388.944 544.332C390.545 543.376 392.448 542.898 394.654 542.898C396.558 542.898 398.225 543.243 399.654 543.935C401.084 544.626 402.216 545.597 403.049 546.847C403.883 548.097 404.342 549.564 404.427 551.25H398.717C398.556 550.161 398.13 549.285 397.439 548.622C396.757 547.95 395.862 547.614 394.754 547.614C393.816 547.614 392.997 547.869 392.297 548.381C391.605 548.883 391.065 549.616 390.677 550.582C390.289 551.548 390.095 552.718 390.095 554.091C390.095 555.483 390.284 556.667 390.663 557.642C391.051 558.617 391.596 559.361 392.297 559.872C392.997 560.384 393.816 560.639 394.754 560.639C395.445 560.639 396.065 560.497 396.615 560.213C397.173 559.929 397.633 559.517 397.993 558.977C398.362 558.428 398.603 557.77 398.717 557.003H404.427C404.333 558.67 403.878 560.137 403.064 561.406C402.259 562.666 401.146 563.651 399.725 564.361C398.305 565.071 396.624 565.426 394.683 565.426ZM414.353 552.386V565H408.301V535.909H414.182V547.031H414.438C414.93 545.743 415.726 544.735 416.824 544.006C417.923 543.267 419.301 542.898 420.958 542.898C422.473 542.898 423.794 543.229 424.921 543.892C426.057 544.545 426.938 545.488 427.563 546.719C428.197 547.94 428.51 549.403 428.5 551.108V565H422.449V552.188C422.459 550.843 422.118 549.796 421.426 549.048C420.745 548.3 419.788 547.926 418.557 547.926C417.733 547.926 417.004 548.101 416.37 548.452C415.745 548.802 415.252 549.313 414.892 549.986C414.542 550.649 414.362 551.449 414.353 552.386ZM443.12 565.426C440.914 565.426 439.006 564.957 437.396 564.02C435.796 563.073 434.56 561.757 433.689 560.071C432.817 558.376 432.382 556.411 432.382 554.176C432.382 551.922 432.817 549.953 433.689 548.267C434.56 546.572 435.796 545.256 437.396 544.318C439.006 543.371 440.914 542.898 443.12 542.898C445.327 542.898 447.23 543.371 448.831 544.318C450.44 545.256 451.681 546.572 452.552 548.267C453.423 549.953 453.859 551.922 453.859 554.176C453.859 556.411 453.423 558.376 452.552 560.071C451.681 561.757 450.44 563.073 448.831 564.02C447.23 564.957 445.327 565.426 443.12 565.426ZM443.149 560.739C444.153 560.739 444.991 560.455 445.663 559.886C446.335 559.309 446.842 558.523 447.183 557.528C447.533 556.534 447.708 555.402 447.708 554.134C447.708 552.865 447.533 551.733 447.183 550.739C446.842 549.744 446.335 548.958 445.663 548.381C444.991 547.803 444.153 547.514 443.149 547.514C442.136 547.514 441.283 547.803 440.592 548.381C439.91 548.958 439.394 549.744 439.044 550.739C438.703 551.733 438.532 552.865 438.532 554.134C438.532 555.402 438.703 556.534 439.044 557.528C439.394 558.523 439.91 559.309 440.592 559.886C441.283 560.455 442.136 560.739 443.149 560.739ZM475.947 549.403L470.407 549.744C470.313 549.271 470.109 548.845 469.797 548.466C469.484 548.078 469.072 547.77 468.561 547.543C468.059 547.306 467.458 547.188 466.757 547.188C465.819 547.188 465.029 547.386 464.385 547.784C463.741 548.172 463.419 548.693 463.419 549.347C463.419 549.867 463.627 550.308 464.044 550.668C464.46 551.027 465.175 551.316 466.189 551.534L470.137 552.33C472.259 552.765 473.84 553.466 474.882 554.432C475.923 555.398 476.444 556.667 476.444 558.239C476.444 559.669 476.023 560.923 475.18 562.003C474.347 563.082 473.201 563.925 471.743 564.531C470.294 565.128 468.622 565.426 466.728 565.426C463.84 565.426 461.539 564.825 459.825 563.622C458.12 562.41 457.121 560.762 456.828 558.679L462.779 558.366C462.959 559.247 463.395 559.92 464.086 560.384C464.778 560.838 465.663 561.065 466.743 561.065C467.803 561.065 468.655 560.862 469.299 560.455C469.953 560.038 470.284 559.503 470.294 558.849C470.284 558.3 470.052 557.85 469.598 557.5C469.143 557.14 468.442 556.866 467.495 556.676L463.717 555.923C461.586 555.497 460 554.759 458.958 553.707C457.926 552.656 457.41 551.316 457.41 549.688C457.41 548.286 457.789 547.079 458.547 546.065C459.314 545.052 460.388 544.271 461.771 543.722C463.163 543.172 464.792 542.898 466.657 542.898C469.413 542.898 471.582 543.48 473.163 544.645C474.754 545.81 475.682 547.396 475.947 549.403ZM490.198 565.426C487.953 565.426 486.022 564.972 484.402 564.062C482.792 563.144 481.552 561.847 480.681 560.17C479.81 558.485 479.374 556.491 479.374 554.19C479.374 551.946 479.81 549.976 480.681 548.281C481.552 546.586 482.778 545.265 484.36 544.318C485.951 543.371 487.816 542.898 489.956 542.898C491.396 542.898 492.736 543.13 493.976 543.594C495.226 544.048 496.315 544.735 497.243 545.653C498.181 546.572 498.91 547.727 499.431 549.119C499.952 550.502 500.212 552.121 500.212 553.977V555.639H481.789V551.889H494.516C494.516 551.018 494.327 550.246 493.948 549.574C493.569 548.902 493.043 548.376 492.371 547.997C491.708 547.609 490.936 547.415 490.056 547.415C489.137 547.415 488.323 547.628 487.613 548.054C486.912 548.471 486.363 549.034 485.965 549.744C485.567 550.445 485.364 551.226 485.354 552.088V555.653C485.354 556.733 485.553 557.666 485.951 558.452C486.358 559.238 486.931 559.844 487.669 560.27C488.408 560.696 489.284 560.909 490.297 560.909C490.97 560.909 491.585 560.814 492.144 560.625C492.703 560.436 493.181 560.152 493.578 559.773C493.976 559.394 494.279 558.93 494.488 558.381L500.084 558.75C499.8 560.095 499.218 561.269 498.337 562.273C497.466 563.267 496.339 564.044 494.956 564.602C493.583 565.152 491.997 565.426 490.198 565.426ZM510.212 552.386V565H504.161V543.182H509.928V547.031H510.184C510.667 545.762 511.476 544.759 512.613 544.02C513.749 543.272 515.127 542.898 516.746 542.898C518.261 542.898 519.582 543.229 520.709 543.892C521.836 544.555 522.712 545.502 523.337 546.733C523.962 547.955 524.275 549.413 524.275 551.108V565H518.223V552.188C518.233 550.852 517.892 549.811 517.201 549.062C516.509 548.305 515.558 547.926 514.346 547.926C513.531 547.926 512.811 548.101 512.186 548.452C511.571 548.802 511.088 549.313 510.738 549.986C510.397 550.649 510.221 551.449 510.212 552.386ZM542.605 565L536.668 543.182H542.79L546.171 557.841H546.37L549.892 543.182H555.901L559.48 557.756H559.665L562.989 543.182H569.097L563.174 565H556.767L553.017 551.278H552.748L548.998 565H542.605ZM581.636 565.426C579.43 565.426 577.521 564.957 575.912 564.02C574.311 563.073 573.075 561.757 572.204 560.071C571.333 558.376 570.897 556.411 570.897 554.176C570.897 551.922 571.333 549.953 572.204 548.267C573.075 546.572 574.311 545.256 575.912 544.318C577.521 543.371 579.43 542.898 581.636 542.898C583.842 542.898 585.746 543.371 587.346 544.318C588.956 545.256 590.197 546.572 591.068 548.267C591.939 549.953 592.375 551.922 592.375 554.176C592.375 556.411 591.939 558.376 591.068 560.071C590.197 561.757 588.956 563.073 587.346 564.02C585.746 564.957 583.842 565.426 581.636 565.426ZM581.664 560.739C582.668 560.739 583.506 560.455 584.179 559.886C584.851 559.309 585.358 558.523 585.699 557.528C586.049 556.534 586.224 555.402 586.224 554.134C586.224 552.865 586.049 551.733 585.699 550.739C585.358 549.744 584.851 548.958 584.179 548.381C583.506 547.803 582.668 547.514 581.664 547.514C580.651 547.514 579.799 547.803 579.108 548.381C578.426 548.958 577.91 549.744 577.559 550.739C577.218 551.733 577.048 552.865 577.048 554.134C577.048 555.402 577.218 556.534 577.559 557.528C577.91 558.523 578.426 559.309 579.108 559.886C579.799 560.455 580.651 560.739 581.664 560.739ZM596.309 565V543.182H602.176V546.989H602.403C602.801 545.634 603.468 544.612 604.406 543.92C605.343 543.22 606.423 542.869 607.645 542.869C607.948 542.869 608.274 542.888 608.625 542.926C608.975 542.964 609.283 543.016 609.548 543.082V548.452C609.264 548.366 608.871 548.291 608.369 548.224C607.867 548.158 607.408 548.125 606.991 548.125C606.101 548.125 605.306 548.319 604.605 548.707C603.913 549.086 603.364 549.616 602.957 550.298C602.559 550.98 602.36 551.766 602.36 552.656V565H596.309ZM619.701 565.355C618.043 565.355 616.542 564.929 615.198 564.077C613.863 563.215 612.802 561.951 612.016 560.284C611.239 558.608 610.851 556.553 610.851 554.119C610.851 551.619 611.254 549.541 612.059 547.884C612.864 546.217 613.934 544.972 615.269 544.148C616.614 543.314 618.086 542.898 619.686 542.898C620.908 542.898 621.926 543.106 622.74 543.523C623.564 543.93 624.227 544.441 624.729 545.057C625.24 545.663 625.629 546.259 625.894 546.847H626.078V535.909H632.115V565H626.15V561.506H625.894C625.61 562.112 625.207 562.713 624.686 563.31C624.175 563.897 623.507 564.384 622.684 564.773C621.869 565.161 620.875 565.355 619.701 565.355ZM621.618 560.54C622.594 560.54 623.417 560.275 624.09 559.744C624.772 559.205 625.292 558.452 625.652 557.486C626.022 556.52 626.206 555.388 626.206 554.091C626.206 552.794 626.026 551.667 625.667 550.71C625.307 549.754 624.786 549.015 624.104 548.494C623.422 547.973 622.594 547.713 621.618 547.713C620.624 547.713 619.786 547.983 619.104 548.523C618.422 549.062 617.906 549.811 617.556 550.767C617.205 551.723 617.03 552.831 617.03 554.091C617.03 555.36 617.205 556.482 617.556 557.457C617.916 558.423 618.432 559.181 619.104 559.73C619.786 560.27 620.624 560.54 621.618 560.54ZM640.627 565.369C639.69 565.369 638.885 565.038 638.213 564.375C637.55 563.703 637.218 562.898 637.218 561.96C637.218 561.032 637.55 560.237 638.213 559.574C638.885 558.911 639.69 558.58 640.627 558.58C641.537 558.58 642.332 558.911 643.014 559.574C643.696 560.237 644.037 561.032 644.037 561.96C644.037 562.585 643.876 563.158 643.554 563.679C643.241 564.19 642.829 564.602 642.318 564.915C641.806 565.218 641.243 565.369 640.627 565.369Z" fill="#9DA3CB"/>
<path d="M619.884 312.532C627.514 311.443 634.389 307.114 638.665 300.551L683.857 230.703C687.378 225.258 686.484 218.052 681.733 213.612C676.982 209.171 669.743 208.78 664.545 212.69L598.392 262.29C591.685 267.317 587.716 275.165 587.66 283.543L619.884 312.532ZM614.406 319.626L581.987 290.469C565.274 291.084 551.887 304.852 551.887 321.721C551.887 322.81 551.943 323.899 552.054 324.96C552.557 329.848 549.204 335.126 544.285 335.126H542.943C537.997 335.126 534 339.12 534 344.063C534 349.006 537.997 353 542.943 353H583.188C600.488 353 614.49 339.008 614.49 321.721C614.49 321.022 614.462 320.324 614.434 319.626H614.406Z" fill="#494E8A"/>
</svg>
