<svg width="978" height="656" viewBox="0 0 978 656" fill="none" xmlns="http://www.w3.org/2000/svg">
<rect width="978" height="656" rx="30" fill="#1B1C24"/>
<path d="M214.088 484L205.765 454.909H212.483L217.299 475.122H217.54L222.853 454.909H228.605L233.904 475.165H234.159L238.975 454.909H245.694L237.37 484H231.375L225.836 464.98H225.608L220.083 484H214.088ZM254.923 471.386V484H248.872V454.909H254.752V466.031H255.008C255.501 464.743 256.296 463.735 257.395 463.006C258.493 462.267 259.871 461.898 261.528 461.898C263.043 461.898 264.364 462.229 265.491 462.892C266.627 463.545 267.508 464.488 268.133 465.719C268.768 466.94 269.08 468.403 269.071 470.108V484H263.02V471.188C263.029 469.843 262.688 468.796 261.997 468.048C261.315 467.3 260.359 466.926 259.127 466.926C258.304 466.926 257.574 467.101 256.94 467.452C256.315 467.802 255.823 468.313 255.463 468.986C255.112 469.649 254.932 470.449 254.923 471.386ZM283.776 484.426C281.532 484.426 279.6 483.972 277.98 483.062C276.371 482.144 275.13 480.847 274.259 479.17C273.388 477.485 272.952 475.491 272.952 473.19C272.952 470.946 273.388 468.976 274.259 467.281C275.13 465.586 276.356 464.265 277.938 463.318C279.529 462.371 281.394 461.898 283.534 461.898C284.974 461.898 286.314 462.13 287.554 462.594C288.804 463.048 289.893 463.735 290.821 464.653C291.759 465.572 292.488 466.727 293.009 468.119C293.53 469.502 293.79 471.121 293.79 472.977V474.639H275.367V470.889H288.094C288.094 470.018 287.905 469.246 287.526 468.574C287.147 467.902 286.622 467.376 285.949 466.997C285.286 466.609 284.515 466.415 283.634 466.415C282.715 466.415 281.901 466.628 281.191 467.054C280.49 467.471 279.941 468.034 279.543 468.744C279.145 469.445 278.942 470.226 278.932 471.088V474.653C278.932 475.733 279.131 476.666 279.529 477.452C279.936 478.238 280.509 478.844 281.248 479.27C281.986 479.696 282.862 479.909 283.875 479.909C284.548 479.909 285.163 479.814 285.722 479.625C286.281 479.436 286.759 479.152 287.157 478.773C287.554 478.394 287.857 477.93 288.066 477.381L293.662 477.75C293.378 479.095 292.796 480.269 291.915 481.273C291.044 482.267 289.917 483.044 288.534 483.602C287.161 484.152 285.575 484.426 283.776 484.426ZM303.79 471.386V484H297.739V462.182H303.506V466.031H303.762C304.245 464.762 305.054 463.759 306.191 463.02C307.327 462.272 308.705 461.898 310.324 461.898C311.839 461.898 313.16 462.229 314.287 462.892C315.414 463.555 316.29 464.502 316.915 465.733C317.54 466.955 317.853 468.413 317.853 470.108V484H311.801V471.188C311.811 469.852 311.47 468.811 310.779 468.062C310.087 467.305 309.136 466.926 307.924 466.926C307.109 466.926 306.39 467.101 305.765 467.452C305.149 467.802 304.666 468.313 304.316 468.986C303.975 469.649 303.8 470.449 303.79 471.386ZM331.88 484V462.182H337.931V484H331.88ZM334.919 459.369C334.02 459.369 333.248 459.071 332.604 458.474C331.97 457.868 331.652 457.144 331.652 456.301C331.652 455.468 331.97 454.753 332.604 454.156C333.248 453.55 334.02 453.247 334.919 453.247C335.819 453.247 336.586 453.55 337.221 454.156C337.864 454.753 338.186 455.468 338.186 456.301C338.186 457.144 337.864 457.868 337.221 458.474C336.586 459.071 335.819 459.369 334.919 459.369ZM354.383 462.182V466.727H341.244V462.182H354.383ZM344.227 456.955H350.278V477.295C350.278 477.854 350.363 478.29 350.534 478.602C350.704 478.905 350.941 479.118 351.244 479.241C351.556 479.365 351.916 479.426 352.324 479.426C352.608 479.426 352.892 479.402 353.176 479.355C353.46 479.298 353.678 479.256 353.829 479.227L354.781 483.73C354.478 483.825 354.052 483.934 353.502 484.057C352.953 484.189 352.286 484.27 351.5 484.298C350.041 484.355 348.763 484.161 347.664 483.716C346.575 483.271 345.728 482.58 345.122 481.642C344.516 480.705 344.217 479.521 344.227 478.091V456.955ZM364.373 454.909V457.977C364.373 458.848 364.202 459.739 363.861 460.648C363.53 461.547 363.085 462.4 362.526 463.205C361.967 464 361.356 464.677 360.694 465.236L358.023 463.659C358.497 462.911 358.913 462.082 359.273 461.173C359.642 460.264 359.827 459.208 359.827 458.006V454.909H364.373ZM383.822 468.403L378.282 468.744C378.188 468.271 377.984 467.845 377.672 467.466C377.359 467.078 376.947 466.77 376.436 466.543C375.934 466.306 375.333 466.188 374.632 466.188C373.694 466.188 372.904 466.386 372.26 466.784C371.616 467.172 371.294 467.693 371.294 468.347C371.294 468.867 371.502 469.308 371.919 469.668C372.335 470.027 373.05 470.316 374.064 470.534L378.012 471.33C380.134 471.765 381.715 472.466 382.757 473.432C383.798 474.398 384.319 475.667 384.319 477.239C384.319 478.669 383.898 479.923 383.055 481.003C382.222 482.082 381.076 482.925 379.618 483.531C378.169 484.128 376.497 484.426 374.603 484.426C371.715 484.426 369.414 483.825 367.7 482.622C365.995 481.41 364.996 479.762 364.703 477.679L370.654 477.366C370.834 478.247 371.27 478.92 371.961 479.384C372.653 479.838 373.538 480.065 374.618 480.065C375.678 480.065 376.53 479.862 377.174 479.455C377.828 479.038 378.159 478.503 378.169 477.849C378.159 477.3 377.927 476.85 377.473 476.5C377.018 476.14 376.317 475.866 375.37 475.676L371.592 474.923C369.461 474.497 367.875 473.759 366.833 472.707C365.801 471.656 365.285 470.316 365.285 468.688C365.285 467.286 365.664 466.079 366.422 465.065C367.189 464.052 368.263 463.271 369.646 462.722C371.038 462.172 372.667 461.898 374.532 461.898C377.288 461.898 379.457 462.48 381.038 463.645C382.629 464.81 383.557 466.396 383.822 468.403ZM403.439 471.386V484H397.387V462.182H403.154V466.031H403.41C403.893 464.762 404.703 463.759 405.839 463.02C406.975 462.272 408.353 461.898 409.973 461.898C411.488 461.898 412.809 462.229 413.936 462.892C415.063 463.555 415.939 464.502 416.564 465.733C417.189 466.955 417.501 468.413 417.501 470.108V484H411.45V471.188C411.459 469.852 411.118 468.811 410.427 468.062C409.736 467.305 408.784 466.926 407.572 466.926C406.758 466.926 406.038 467.101 405.413 467.452C404.797 467.802 404.315 468.313 403.964 468.986C403.623 469.649 403.448 470.449 403.439 471.386ZM432.128 484.426C429.922 484.426 428.014 483.957 426.404 483.02C424.803 482.073 423.568 480.757 422.696 479.071C421.825 477.376 421.39 475.411 421.39 473.176C421.39 470.922 421.825 468.953 422.696 467.267C423.568 465.572 424.803 464.256 426.404 463.318C428.014 462.371 429.922 461.898 432.128 461.898C434.335 461.898 436.238 462.371 437.838 463.318C439.448 464.256 440.689 465.572 441.56 467.267C442.431 468.953 442.867 470.922 442.867 473.176C442.867 475.411 442.431 477.376 441.56 479.071C440.689 480.757 439.448 482.073 437.838 483.02C436.238 483.957 434.335 484.426 432.128 484.426ZM432.157 479.739C433.16 479.739 433.998 479.455 434.671 478.886C435.343 478.309 435.85 477.523 436.191 476.528C436.541 475.534 436.716 474.402 436.716 473.134C436.716 471.865 436.541 470.733 436.191 469.739C435.85 468.744 435.343 467.958 434.671 467.381C433.998 466.803 433.16 466.514 432.157 466.514C431.143 466.514 430.291 466.803 429.6 467.381C428.918 467.958 428.402 468.744 428.051 469.739C427.711 470.733 427.54 471.865 427.54 473.134C427.54 474.402 427.711 475.534 428.051 476.528C428.402 477.523 428.918 478.309 429.6 478.886C430.291 479.455 431.143 479.739 432.157 479.739ZM458.407 462.182V466.727H445.267V462.182H458.407ZM448.25 456.955H454.301V477.295C454.301 477.854 454.387 478.29 454.557 478.602C454.728 478.905 454.964 479.118 455.267 479.241C455.58 479.365 455.94 479.426 456.347 479.426C456.631 479.426 456.915 479.402 457.199 479.355C457.483 479.298 457.701 479.256 457.853 479.227L458.804 483.73C458.501 483.825 458.075 483.934 457.526 484.057C456.977 484.189 456.309 484.27 455.523 484.298C454.065 484.355 452.786 484.161 451.688 483.716C450.599 483.271 449.751 482.58 449.145 481.642C448.539 480.705 448.241 479.521 448.25 478.091V456.955ZM475.342 492.182C474.575 492.182 473.855 492.12 473.183 491.997C472.52 491.884 471.971 491.737 471.535 491.557L472.899 487.04C473.609 487.258 474.248 487.376 474.816 487.395C475.394 487.414 475.891 487.281 476.308 486.997C476.734 486.713 477.08 486.23 477.345 485.548L477.7 484.625L469.873 462.182H476.237L480.754 478.205H480.981L485.541 462.182H491.947L483.467 486.358C483.06 487.532 482.506 488.555 481.805 489.426C481.114 490.307 480.238 490.984 479.177 491.457C478.117 491.94 476.838 492.182 475.342 492.182ZM504.199 484.426C501.992 484.426 500.084 483.957 498.474 483.02C496.874 482.073 495.638 480.757 494.767 479.071C493.895 477.376 493.46 475.411 493.46 473.176C493.46 470.922 493.895 468.953 494.767 467.267C495.638 465.572 496.874 464.256 498.474 463.318C500.084 462.371 501.992 461.898 504.199 461.898C506.405 461.898 508.308 462.371 509.909 463.318C511.519 464.256 512.759 465.572 513.63 467.267C514.502 468.953 514.937 470.922 514.937 473.176C514.937 475.411 514.502 477.376 513.63 479.071C512.759 480.757 511.519 482.073 509.909 483.02C508.308 483.957 506.405 484.426 504.199 484.426ZM504.227 479.739C505.231 479.739 506.069 479.455 506.741 478.886C507.413 478.309 507.92 477.523 508.261 476.528C508.611 475.534 508.787 474.402 508.787 473.134C508.787 471.865 508.611 470.733 508.261 469.739C507.92 468.744 507.413 467.958 506.741 467.381C506.069 466.803 505.231 466.514 504.227 466.514C503.214 466.514 502.361 466.803 501.67 467.381C500.988 467.958 500.472 468.744 500.122 469.739C499.781 470.733 499.61 471.865 499.61 473.134C499.61 474.402 499.781 475.534 500.122 476.528C500.472 477.523 500.988 478.309 501.67 478.886C502.361 479.455 503.214 479.739 504.227 479.739ZM532.863 474.71V462.182H538.914V484H533.105V480.037H532.877C532.385 481.315 531.566 482.343 530.42 483.119C529.284 483.896 527.896 484.284 526.258 484.284C524.8 484.284 523.517 483.953 522.409 483.29C521.301 482.627 520.434 481.685 519.809 480.463C519.194 479.241 518.881 477.778 518.872 476.074V462.182H524.923V474.994C524.932 476.282 525.278 477.3 525.96 478.048C526.642 478.796 527.556 479.17 528.701 479.17C529.431 479.17 530.112 479.005 530.747 478.673C531.381 478.332 531.893 477.83 532.281 477.168C532.679 476.505 532.873 475.686 532.863 474.71ZM543.755 484V462.182H549.621V465.989H549.848C550.246 464.634 550.914 463.612 551.851 462.92C552.789 462.22 553.868 461.869 555.09 461.869C555.393 461.869 555.72 461.888 556.07 461.926C556.42 461.964 556.728 462.016 556.993 462.082V467.452C556.709 467.366 556.316 467.291 555.814 467.224C555.312 467.158 554.853 467.125 554.436 467.125C553.546 467.125 552.751 467.319 552.05 467.707C551.359 468.086 550.81 468.616 550.402 469.298C550.005 469.98 549.806 470.766 549.806 471.656V484H543.755ZM580.985 462.182V466.727H567.846V462.182H580.985ZM570.828 456.955H576.88V477.295C576.88 477.854 576.965 478.29 577.135 478.602C577.306 478.905 577.542 479.118 577.846 479.241C578.158 479.365 578.518 479.426 578.925 479.426C579.209 479.426 579.493 479.402 579.777 479.355C580.061 479.298 580.279 479.256 580.431 479.227L581.382 483.73C581.079 483.825 580.653 483.934 580.104 484.057C579.555 484.189 578.887 484.27 578.101 484.298C576.643 484.355 575.364 484.161 574.266 483.716C573.177 483.271 572.329 482.58 571.723 481.642C571.117 480.705 570.819 479.521 570.828 478.091V456.955ZM598.918 474.71V462.182H604.969V484H599.159V480.037H598.932C598.44 481.315 597.621 482.343 596.475 483.119C595.338 483.896 593.951 484.284 592.313 484.284C590.855 484.284 589.571 483.953 588.463 483.29C587.355 482.627 586.489 481.685 585.864 480.463C585.248 479.241 584.936 477.778 584.926 476.074V462.182H590.978V474.994C590.987 476.282 591.333 477.3 592.015 478.048C592.696 478.796 593.61 479.17 594.756 479.17C595.485 479.17 596.167 479.005 596.801 478.673C597.436 478.332 597.947 477.83 598.336 477.168C598.733 476.505 598.927 475.686 598.918 474.71ZM609.809 484V462.182H615.676V465.989H615.903C616.301 464.634 616.968 463.612 617.906 462.92C618.843 462.22 619.923 461.869 621.145 461.869C621.448 461.869 621.774 461.888 622.125 461.926C622.475 461.964 622.783 462.016 623.048 462.082V467.452C622.764 467.366 622.371 467.291 621.869 467.224C621.367 467.158 620.908 467.125 620.491 467.125C619.601 467.125 618.806 467.319 618.105 467.707C617.413 468.086 616.864 468.616 616.457 469.298C616.059 469.98 615.86 470.766 615.86 471.656V484H609.809ZM632.228 471.386V484H626.176V462.182H631.944V466.031H632.199C632.682 464.762 633.492 463.759 634.628 463.02C635.765 462.272 637.142 461.898 638.762 461.898C640.277 461.898 641.598 462.229 642.725 462.892C643.852 463.555 644.728 464.502 645.353 465.733C645.978 466.955 646.29 468.413 646.29 470.108V484H640.239V471.188C640.248 469.852 639.908 468.811 639.216 468.062C638.525 467.305 637.573 466.926 636.361 466.926C635.547 466.926 634.827 467.101 634.202 467.452C633.587 467.802 633.104 468.313 632.753 468.986C632.412 469.649 632.237 470.449 632.228 471.386ZM657.636 480.023L657.48 481.585C657.357 482.835 657.12 484.08 656.77 485.321C656.429 486.571 656.069 487.703 655.69 488.716C655.321 489.729 655.022 490.525 654.795 491.102H650.875C651.017 490.544 651.211 489.762 651.457 488.759C651.703 487.764 651.935 486.647 652.153 485.406C652.371 484.166 652.508 482.902 652.565 481.614L652.636 480.023H657.636ZM671.059 484V462.182H677.11V484H671.059ZM674.099 459.369C673.199 459.369 672.428 459.071 671.784 458.474C671.149 457.868 670.832 457.144 670.832 456.301C670.832 455.468 671.149 454.753 671.784 454.156C672.428 453.55 673.199 453.247 674.099 453.247C674.999 453.247 675.766 453.55 676.4 454.156C677.044 454.753 677.366 455.468 677.366 456.301C677.366 457.144 677.044 457.868 676.4 458.474C675.766 459.071 674.999 459.369 674.099 459.369ZM693.563 462.182V466.727H680.424V462.182H693.563ZM683.407 456.955H689.458V477.295C689.458 477.854 689.543 478.29 689.713 478.602C689.884 478.905 690.121 479.118 690.424 479.241C690.736 479.365 691.096 479.426 691.503 479.426C691.787 479.426 692.071 479.402 692.355 479.355C692.64 479.298 692.857 479.256 693.009 479.227L693.961 483.73C693.658 483.825 693.231 483.934 692.682 484.057C692.133 484.189 691.465 484.27 690.679 484.298C689.221 484.355 687.943 484.161 686.844 483.716C685.755 483.271 684.908 482.58 684.301 481.642C683.695 480.705 683.397 479.521 683.407 478.091V456.955ZM703.552 454.909V457.977C703.552 458.848 703.382 459.739 703.041 460.648C702.709 461.547 702.264 462.4 701.706 463.205C701.147 464 700.536 464.677 699.873 465.236L697.203 463.659C697.676 462.911 698.093 462.082 698.453 461.173C698.822 460.264 699.007 459.208 699.007 458.006V454.909H703.552ZM723.002 468.403L717.462 468.744C717.367 468.271 717.164 467.845 716.851 467.466C716.539 467.078 716.127 466.77 715.615 466.543C715.114 466.306 714.512 466.188 713.811 466.188C712.874 466.188 712.083 466.386 711.439 466.784C710.795 467.172 710.473 467.693 710.473 468.347C710.473 468.867 710.682 469.308 711.098 469.668C711.515 470.027 712.23 470.316 713.243 470.534L717.192 471.33C719.313 471.765 720.895 472.466 721.936 473.432C722.978 474.398 723.499 475.667 723.499 477.239C723.499 478.669 723.078 479.923 722.235 481.003C721.401 482.082 720.256 482.925 718.797 483.531C717.348 484.128 715.677 484.426 713.783 484.426C710.895 484.426 708.594 483.825 706.88 482.622C705.175 481.41 704.176 479.762 703.882 477.679L709.834 477.366C710.014 478.247 710.45 478.92 711.141 479.384C711.832 479.838 712.718 480.065 713.797 480.065C714.858 480.065 715.71 479.862 716.354 479.455C717.007 479.038 717.339 478.503 717.348 477.849C717.339 477.3 717.107 476.85 716.652 476.5C716.198 476.14 715.497 475.866 714.55 475.676L710.772 474.923C708.641 474.497 707.055 473.759 706.013 472.707C704.981 471.656 704.465 470.316 704.465 468.688C704.465 467.286 704.844 466.079 705.601 465.065C706.368 464.052 707.443 463.271 708.826 462.722C710.218 462.172 711.846 461.898 713.712 461.898C716.468 461.898 718.636 462.48 720.218 463.645C721.809 464.81 722.737 466.396 723.002 468.403ZM748.172 462.182V466.727H735.033V462.182H748.172ZM738.016 456.955H744.067V477.295C744.067 477.854 744.152 478.29 744.323 478.602C744.493 478.905 744.73 479.118 745.033 479.241C745.346 479.365 745.705 479.426 746.113 479.426C746.397 479.426 746.681 479.402 746.965 479.355C747.249 479.298 747.467 479.256 747.618 479.227L748.57 483.73C748.267 483.825 747.841 483.934 747.292 484.057C746.742 484.189 746.075 484.27 745.289 484.298C743.83 484.355 742.552 484.161 741.453 483.716C740.364 483.271 739.517 482.58 738.911 481.642C738.305 480.705 738.007 479.521 738.016 478.091V456.955ZM752.114 484V462.182H758.165V484H752.114ZM755.154 459.369C754.254 459.369 753.482 459.071 752.838 458.474C752.204 457.868 751.887 457.144 751.887 456.301C751.887 455.468 752.204 454.753 752.838 454.156C753.482 453.55 754.254 453.247 755.154 453.247C756.053 453.247 756.82 453.55 757.455 454.156C758.099 454.753 758.421 455.468 758.421 456.301C758.421 457.144 758.099 457.868 757.455 458.474C756.82 459.071 756.053 459.369 755.154 459.369ZM763.012 484V462.182H768.779V466.031H769.035C769.49 464.753 770.247 463.744 771.308 463.006C772.368 462.267 773.637 461.898 775.115 461.898C776.611 461.898 777.885 462.272 778.936 463.02C779.987 463.759 780.688 464.762 781.038 466.031H781.265C781.71 464.781 782.515 463.782 783.68 463.034C784.854 462.277 786.242 461.898 787.842 461.898C789.878 461.898 791.53 462.546 792.799 463.844C794.078 465.132 794.717 466.959 794.717 469.327V484H788.68V470.52C788.68 469.308 788.358 468.399 787.714 467.793C787.07 467.187 786.265 466.884 785.299 466.884C784.201 466.884 783.344 467.234 782.728 467.935C782.113 468.626 781.805 469.54 781.805 470.676V484H775.939V470.392C775.939 469.322 775.631 468.47 775.015 467.835C774.409 467.201 773.609 466.884 772.615 466.884C771.942 466.884 771.336 467.054 770.797 467.395C770.266 467.726 769.845 468.195 769.532 468.801C769.22 469.398 769.064 470.098 769.064 470.903V484H763.012ZM809.44 484.426C807.196 484.426 805.264 483.972 803.645 483.062C802.035 482.144 800.794 480.847 799.923 479.17C799.052 477.485 798.616 475.491 798.616 473.19C798.616 470.946 799.052 468.976 799.923 467.281C800.794 465.586 802.02 464.265 803.602 463.318C805.193 462.371 807.058 461.898 809.199 461.898C810.638 461.898 811.978 462.13 813.218 462.594C814.468 463.048 815.557 463.735 816.485 464.653C817.423 465.572 818.152 466.727 818.673 468.119C819.194 469.502 819.454 471.121 819.454 472.977V474.639H801.031V470.889H813.758C813.758 470.018 813.569 469.246 813.19 468.574C812.811 467.902 812.286 467.376 811.613 466.997C810.95 466.609 810.179 466.415 809.298 466.415C808.379 466.415 807.565 466.628 806.855 467.054C806.154 467.471 805.605 468.034 805.207 468.744C804.809 469.445 804.606 470.226 804.596 471.088V474.653C804.596 475.733 804.795 476.666 805.193 477.452C805.6 478.238 806.173 478.844 806.912 479.27C807.65 479.696 808.526 479.909 809.539 479.909C810.212 479.909 810.827 479.814 811.386 479.625C811.945 479.436 812.423 479.152 812.821 478.773C813.218 478.394 813.521 477.93 813.73 477.381L819.326 477.75C819.042 479.095 818.46 480.269 817.579 481.273C816.708 482.267 815.581 483.044 814.199 483.602C812.825 484.152 811.239 484.426 809.44 484.426ZM225.926 510.182V514.727H212.787V510.182H225.926ZM215.77 504.955H221.821V525.295C221.821 525.854 221.906 526.29 222.077 526.602C222.247 526.905 222.484 527.118 222.787 527.241C223.099 527.365 223.459 527.426 223.866 527.426C224.151 527.426 224.435 527.402 224.719 527.355C225.003 527.298 225.221 527.256 225.372 527.227L226.324 531.73C226.021 531.825 225.595 531.934 225.045 532.057C224.496 532.189 223.829 532.27 223.043 532.298C221.584 532.355 220.306 532.161 219.207 531.716C218.118 531.271 217.271 530.58 216.665 529.642C216.059 528.705 215.76 527.521 215.77 526.091V504.955ZM239.491 532.426C237.285 532.426 235.377 531.957 233.767 531.02C232.167 530.073 230.931 528.757 230.06 527.071C229.188 525.376 228.753 523.411 228.753 521.176C228.753 518.922 229.188 516.953 230.06 515.267C230.931 513.572 232.167 512.256 233.767 511.318C235.377 510.371 237.285 509.898 239.491 509.898C241.698 509.898 243.601 510.371 245.202 511.318C246.812 512.256 248.052 513.572 248.923 515.267C249.795 516.953 250.23 518.922 250.23 521.176C250.23 523.411 249.795 525.376 248.923 527.071C248.052 528.757 246.812 530.073 245.202 531.02C243.601 531.957 241.698 532.426 239.491 532.426ZM239.52 527.739C240.524 527.739 241.362 527.455 242.034 526.886C242.706 526.309 243.213 525.523 243.554 524.528C243.904 523.534 244.08 522.402 244.08 521.134C244.08 519.865 243.904 518.733 243.554 517.739C243.213 516.744 242.706 515.958 242.034 515.381C241.362 514.803 240.524 514.514 239.52 514.514C238.507 514.514 237.654 514.803 236.963 515.381C236.281 515.958 235.765 516.744 235.415 517.739C235.074 518.733 234.903 519.865 234.903 521.134C234.903 522.402 235.074 523.534 235.415 524.528C235.765 525.523 236.281 526.309 236.963 526.886C237.654 527.455 238.507 527.739 239.52 527.739ZM273.252 540.636C271.292 540.636 269.611 540.366 268.21 539.827C266.817 539.296 265.71 538.572 264.886 537.653C264.062 536.735 263.527 535.703 263.281 534.557L268.877 533.804C269.048 534.24 269.317 534.647 269.687 535.026C270.056 535.404 270.544 535.707 271.15 535.935C271.765 536.171 272.513 536.29 273.394 536.29C274.71 536.29 275.795 535.968 276.647 535.324C277.509 534.689 277.94 533.624 277.94 532.128V528.136H277.684C277.419 528.742 277.021 529.315 276.491 529.855C275.96 530.395 275.279 530.835 274.445 531.176C273.612 531.517 272.618 531.688 271.462 531.688C269.824 531.688 268.333 531.309 266.988 530.551C265.653 529.784 264.587 528.615 263.792 527.043C263.006 525.461 262.613 523.463 262.613 521.048C262.613 518.577 263.015 516.512 263.82 514.855C264.625 513.198 265.695 511.957 267.031 511.134C268.375 510.31 269.848 509.898 271.448 509.898C272.67 509.898 273.692 510.106 274.516 510.523C275.34 510.93 276.003 511.441 276.505 512.057C277.016 512.663 277.409 513.259 277.684 513.847H277.911V510.182H283.92V532.213C283.92 534.069 283.465 535.622 282.556 536.872C281.647 538.122 280.388 539.06 278.778 539.685C277.177 540.319 275.335 540.636 273.252 540.636ZM273.38 527.142C274.355 527.142 275.179 526.901 275.852 526.418C276.533 525.925 277.054 525.224 277.414 524.315C277.783 523.397 277.968 522.298 277.968 521.02C277.968 519.741 277.788 518.634 277.428 517.696C277.068 516.749 276.548 516.015 275.866 515.494C275.184 514.973 274.355 514.713 273.38 514.713C272.386 514.713 271.548 514.983 270.866 515.523C270.184 516.053 269.668 516.792 269.317 517.739C268.967 518.686 268.792 519.779 268.792 521.02C268.792 522.279 268.967 523.368 269.317 524.287C269.677 525.196 270.193 525.902 270.866 526.403C271.548 526.896 272.386 527.142 273.38 527.142ZM302.727 522.71V510.182H308.778V532H302.968V528.037H302.741C302.248 529.315 301.429 530.343 300.283 531.119C299.147 531.896 297.76 532.284 296.121 532.284C294.663 532.284 293.38 531.953 292.272 531.29C291.164 530.627 290.298 529.685 289.673 528.463C289.057 527.241 288.745 525.778 288.735 524.074V510.182H294.786V522.994C294.796 524.282 295.141 525.3 295.823 526.048C296.505 526.796 297.419 527.17 298.565 527.17C299.294 527.17 299.976 527.005 300.61 526.673C301.245 526.332 301.756 525.83 302.144 525.168C302.542 524.505 302.736 523.686 302.727 522.71ZM323.561 532.426C321.317 532.426 319.385 531.972 317.766 531.062C316.156 530.144 314.915 528.847 314.044 527.17C313.173 525.485 312.737 523.491 312.737 521.19C312.737 518.946 313.173 516.976 314.044 515.281C314.915 513.586 316.142 512.265 317.723 511.318C319.314 510.371 321.179 509.898 323.32 509.898C324.759 509.898 326.099 510.13 327.339 510.594C328.589 511.048 329.679 511.735 330.607 512.653C331.544 513.572 332.273 514.727 332.794 516.119C333.315 517.502 333.575 519.121 333.575 520.977V522.639H315.152V518.889H327.879C327.879 518.018 327.69 517.246 327.311 516.574C326.932 515.902 326.407 515.376 325.734 514.997C325.071 514.609 324.3 514.415 323.419 514.415C322.5 514.415 321.686 514.628 320.976 515.054C320.275 515.471 319.726 516.034 319.328 516.744C318.93 517.445 318.727 518.226 318.717 519.088V522.653C318.717 523.733 318.916 524.666 319.314 525.452C319.721 526.238 320.294 526.844 321.033 527.27C321.771 527.696 322.647 527.909 323.661 527.909C324.333 527.909 324.948 527.814 325.507 527.625C326.066 527.436 326.544 527.152 326.942 526.773C327.339 526.394 327.643 525.93 327.851 525.381L333.447 525.75C333.163 527.095 332.581 528.269 331.7 529.273C330.829 530.267 329.702 531.044 328.32 531.602C326.946 532.152 325.36 532.426 323.561 532.426ZM355.678 516.403L350.138 516.744C350.043 516.271 349.839 515.845 349.527 515.466C349.214 515.078 348.803 514.77 348.291 514.543C347.789 514.306 347.188 514.188 346.487 514.188C345.55 514.188 344.759 514.386 344.115 514.784C343.471 515.172 343.149 515.693 343.149 516.347C343.149 516.867 343.357 517.308 343.774 517.668C344.191 518.027 344.906 518.316 345.919 518.534L349.868 519.33C351.989 519.765 353.571 520.466 354.612 521.432C355.654 522.398 356.175 523.667 356.175 525.239C356.175 526.669 355.753 527.923 354.911 529.003C354.077 530.082 352.931 530.925 351.473 531.531C350.024 532.128 348.353 532.426 346.459 532.426C343.571 532.426 341.269 531.825 339.555 530.622C337.851 529.41 336.852 527.762 336.558 525.679L342.51 525.366C342.69 526.247 343.125 526.92 343.817 527.384C344.508 527.838 345.393 528.065 346.473 528.065C347.534 528.065 348.386 527.862 349.03 527.455C349.683 527.038 350.015 526.503 350.024 525.849C350.015 525.3 349.783 524.85 349.328 524.5C348.874 524.14 348.173 523.866 347.226 523.676L343.447 522.923C341.317 522.497 339.731 521.759 338.689 520.707C337.657 519.656 337.141 518.316 337.141 516.688C337.141 515.286 337.519 514.079 338.277 513.065C339.044 512.052 340.119 511.271 341.501 510.722C342.893 510.172 344.522 509.898 346.388 509.898C349.143 509.898 351.312 510.48 352.893 511.645C354.484 512.81 355.412 514.396 355.678 516.403ZM378.138 516.403L372.599 516.744C372.504 516.271 372.3 515.845 371.988 515.466C371.675 515.078 371.263 514.77 370.752 514.543C370.25 514.306 369.649 514.188 368.948 514.188C368.011 514.188 367.22 514.386 366.576 514.784C365.932 515.172 365.61 515.693 365.61 516.347C365.61 516.867 365.818 517.308 366.235 517.668C366.652 518.027 367.367 518.316 368.38 518.534L372.329 519.33C374.45 519.765 376.031 520.466 377.073 521.432C378.115 522.398 378.636 523.667 378.636 525.239C378.636 526.669 378.214 527.923 377.371 529.003C376.538 530.082 375.392 530.925 373.934 531.531C372.485 532.128 370.814 532.426 368.92 532.426C366.031 532.426 363.73 531.825 362.016 530.622C360.312 529.41 359.313 527.762 359.019 525.679L364.971 525.366C365.151 526.247 365.586 526.92 366.278 527.384C366.969 527.838 367.854 528.065 368.934 528.065C369.995 528.065 370.847 527.862 371.491 527.455C372.144 527.038 372.476 526.503 372.485 525.849C372.476 525.3 372.244 524.85 371.789 524.5C371.335 524.14 370.634 523.866 369.687 523.676L365.908 522.923C363.778 522.497 362.192 521.759 361.15 520.707C360.118 519.656 359.602 518.316 359.602 516.688C359.602 515.286 359.98 514.079 360.738 513.065C361.505 512.052 362.58 511.271 363.962 510.722C365.354 510.172 366.983 509.898 368.849 509.898C371.604 509.898 373.773 510.48 375.354 511.645C376.945 512.81 377.873 514.396 378.138 516.403ZM396.008 532L390.07 510.182H396.192L399.573 524.841H399.772L403.295 510.182H409.303L412.883 524.756H413.067L416.391 510.182H422.499L416.576 532H410.17L406.42 518.278H406.15L402.4 532H396.008ZM431.778 519.386V532H425.727V502.909H431.608V514.031H431.864C432.356 512.743 433.152 511.735 434.25 511.006C435.348 510.267 436.726 509.898 438.384 509.898C439.899 509.898 441.22 510.229 442.347 510.892C443.483 511.545 444.364 512.488 444.989 513.719C445.623 514.94 445.936 516.403 445.926 518.108V532H439.875V519.188C439.884 517.843 439.544 516.796 438.852 516.048C438.17 515.3 437.214 514.926 435.983 514.926C435.159 514.926 434.43 515.101 433.795 515.452C433.17 515.802 432.678 516.313 432.318 516.986C431.968 517.649 431.788 518.449 431.778 519.386ZM456.91 532.412C455.518 532.412 454.277 532.17 453.188 531.688C452.099 531.195 451.237 530.471 450.603 529.514C449.978 528.548 449.665 527.346 449.665 525.906C449.665 524.694 449.888 523.676 450.333 522.852C450.778 522.028 451.384 521.366 452.151 520.864C452.918 520.362 453.79 519.983 454.765 519.727C455.75 519.472 456.782 519.292 457.862 519.188C459.13 519.055 460.153 518.932 460.93 518.818C461.706 518.695 462.27 518.515 462.62 518.278C462.97 518.042 463.146 517.691 463.146 517.227V517.142C463.146 516.242 462.862 515.546 462.293 515.054C461.735 514.562 460.939 514.315 459.907 514.315C458.818 514.315 457.951 514.557 457.308 515.04C456.664 515.513 456.237 516.11 456.029 516.83L450.433 516.375C450.717 515.049 451.275 513.903 452.109 512.938C452.942 511.962 454.017 511.214 455.333 510.693C456.659 510.163 458.193 509.898 459.935 509.898C461.147 509.898 462.308 510.04 463.415 510.324C464.533 510.608 465.522 511.048 466.384 511.645C467.255 512.241 467.942 513.009 468.444 513.946C468.946 514.874 469.197 515.987 469.197 517.284V532H463.458V528.974H463.288C462.937 529.656 462.469 530.258 461.881 530.778C461.294 531.29 460.589 531.692 459.765 531.986C458.941 532.27 457.989 532.412 456.91 532.412ZM458.643 528.236C459.533 528.236 460.319 528.061 461.001 527.71C461.683 527.35 462.218 526.867 462.606 526.261C462.994 525.655 463.188 524.969 463.188 524.202V521.886C462.999 522.009 462.738 522.123 462.407 522.227C462.085 522.322 461.72 522.412 461.313 522.497C460.906 522.573 460.499 522.644 460.092 522.71C459.684 522.767 459.315 522.819 458.984 522.866C458.273 522.971 457.653 523.136 457.123 523.364C456.593 523.591 456.181 523.899 455.887 524.287C455.594 524.666 455.447 525.139 455.447 525.707C455.447 526.531 455.745 527.161 456.342 527.597C456.948 528.023 457.715 528.236 458.643 528.236ZM485.496 510.182V514.727H472.357V510.182H485.496ZM475.34 504.955H481.391V525.295C481.391 525.854 481.477 526.29 481.647 526.602C481.817 526.905 482.054 527.118 482.357 527.241C482.67 527.365 483.03 527.426 483.437 527.426C483.721 527.426 484.005 527.402 484.289 527.355C484.573 527.298 484.791 527.256 484.942 527.227L485.894 531.73C485.591 531.825 485.165 531.934 484.616 532.057C484.067 532.189 483.399 532.27 482.613 532.298C481.155 532.355 479.876 532.161 478.778 531.716C477.689 531.271 476.841 530.58 476.235 529.642C475.629 528.705 475.331 527.521 475.34 526.091V504.955ZM495.486 502.909V505.977C495.486 506.848 495.315 507.739 494.974 508.648C494.643 509.547 494.198 510.4 493.639 511.205C493.08 512 492.47 512.677 491.807 513.236L489.136 511.659C489.61 510.911 490.027 510.082 490.386 509.173C490.756 508.264 490.94 507.208 490.94 506.006V502.909H495.486ZM514.935 516.403L509.396 516.744C509.301 516.271 509.097 515.845 508.785 515.466C508.472 515.078 508.06 514.77 507.549 514.543C507.047 514.306 506.446 514.188 505.745 514.188C504.808 514.188 504.017 514.386 503.373 514.784C502.729 515.172 502.407 515.693 502.407 516.347C502.407 516.867 502.615 517.308 503.032 517.668C503.449 518.027 504.164 518.316 505.177 518.534L509.126 519.33C511.247 519.765 512.828 520.466 513.87 521.432C514.912 522.398 515.433 523.667 515.433 525.239C515.433 526.669 515.011 527.923 514.168 529.003C513.335 530.082 512.189 530.925 510.731 531.531C509.282 532.128 507.611 532.426 505.717 532.426C502.828 532.426 500.527 531.825 498.813 530.622C497.109 529.41 496.11 527.762 495.816 525.679L501.768 525.366C501.948 526.247 502.383 526.92 503.075 527.384C503.766 527.838 504.651 528.065 505.731 528.065C506.791 528.065 507.644 527.862 508.288 527.455C508.941 527.038 509.272 526.503 509.282 525.849C509.272 525.3 509.04 524.85 508.586 524.5C508.131 524.14 507.431 523.866 506.484 523.676L502.705 522.923C500.575 522.497 498.988 521.759 497.947 520.707C496.915 519.656 496.398 518.316 496.398 516.688C496.398 515.286 496.777 514.079 497.535 513.065C498.302 512.052 499.377 511.271 500.759 510.722C502.151 510.172 503.78 509.898 505.646 509.898C508.401 509.898 510.57 510.48 512.151 511.645C513.742 512.81 514.67 514.396 514.935 516.403ZM528.614 532V502.909H534.665V513.847H534.85C535.115 513.259 535.499 512.663 536.001 512.057C536.512 511.441 537.175 510.93 537.989 510.523C538.813 510.106 539.836 509.898 541.058 509.898C542.648 509.898 544.116 510.314 545.461 511.148C546.806 511.972 547.88 513.217 548.685 514.884C549.49 516.541 549.893 518.619 549.893 521.119C549.893 523.553 549.5 525.608 548.714 527.284C547.937 528.951 546.877 530.215 545.532 531.077C544.197 531.929 542.701 532.355 541.043 532.355C539.869 532.355 538.87 532.161 538.046 531.773C537.232 531.384 536.564 530.897 536.043 530.31C535.522 529.713 535.125 529.112 534.85 528.506H534.58V532H528.614ZM534.538 521.091C534.538 522.388 534.718 523.52 535.077 524.486C535.437 525.452 535.958 526.205 536.64 526.744C537.322 527.275 538.15 527.54 539.126 527.54C540.111 527.54 540.944 527.27 541.626 526.73C542.308 526.181 542.824 525.423 543.174 524.457C543.534 523.482 543.714 522.36 543.714 521.091C543.714 519.831 543.539 518.723 543.188 517.767C542.838 516.811 542.322 516.062 541.64 515.523C540.958 514.983 540.12 514.713 539.126 514.713C538.141 514.713 537.308 514.973 536.626 515.494C535.953 516.015 535.437 516.754 535.077 517.71C534.718 518.667 534.538 519.794 534.538 521.091ZM563.874 532.426C561.629 532.426 559.697 531.972 558.078 531.062C556.468 530.144 555.228 528.847 554.357 527.17C553.485 525.485 553.05 523.491 553.05 521.19C553.05 518.946 553.485 516.976 554.357 515.281C555.228 513.586 556.454 512.265 558.036 511.318C559.626 510.371 561.492 509.898 563.632 509.898C565.071 509.898 566.411 510.13 567.652 510.594C568.902 511.048 569.991 511.735 570.919 512.653C571.857 513.572 572.586 514.727 573.107 516.119C573.627 517.502 573.888 519.121 573.888 520.977V522.639H555.464V518.889H568.192C568.192 518.018 568.002 517.246 567.624 516.574C567.245 515.902 566.719 515.376 566.047 514.997C565.384 514.609 564.612 514.415 563.732 514.415C562.813 514.415 561.999 514.628 561.288 515.054C560.588 515.471 560.038 516.034 559.641 516.744C559.243 517.445 559.039 518.226 559.03 519.088V522.653C559.03 523.733 559.229 524.666 559.626 525.452C560.034 526.238 560.607 526.844 561.345 527.27C562.084 527.696 562.96 527.909 563.973 527.909C564.645 527.909 565.261 527.814 565.82 527.625C566.378 527.436 566.857 527.152 567.254 526.773C567.652 526.394 567.955 525.93 568.163 525.381L573.76 525.75C573.476 527.095 572.893 528.269 572.013 529.273C571.142 530.267 570.015 531.044 568.632 531.602C567.259 532.152 565.673 532.426 563.874 532.426ZM577.837 532V510.182H583.888V532H577.837ZM580.876 507.369C579.977 507.369 579.205 507.071 578.561 506.474C577.927 505.868 577.609 505.144 577.609 504.301C577.609 503.468 577.927 502.753 578.561 502.156C579.205 501.55 579.977 501.247 580.876 501.247C581.776 501.247 582.543 501.55 583.178 502.156C583.821 502.753 584.143 503.468 584.143 504.301C584.143 505.144 583.821 505.868 583.178 506.474C582.543 507.071 581.776 507.369 580.876 507.369ZM594.786 519.386V532H588.735V510.182H594.502V514.031H594.758C595.241 512.762 596.05 511.759 597.187 511.02C598.323 510.272 599.701 509.898 601.32 509.898C602.835 509.898 604.156 510.229 605.283 510.892C606.41 511.555 607.286 512.502 607.911 513.733C608.536 514.955 608.849 516.413 608.849 518.108V532H602.798V519.188C602.807 517.852 602.466 516.811 601.775 516.062C601.084 515.305 600.132 514.926 598.92 514.926C598.105 514.926 597.386 515.101 596.761 515.452C596.145 515.802 595.662 516.313 595.312 516.986C594.971 517.649 594.796 518.449 594.786 519.386ZM623.447 540.636C621.487 540.636 619.806 540.366 618.405 539.827C617.013 539.296 615.905 538.572 615.081 537.653C614.257 536.735 613.722 535.703 613.476 534.557L619.072 533.804C619.243 534.24 619.513 534.647 619.882 535.026C620.251 535.404 620.739 535.707 621.345 535.935C621.961 536.171 622.709 536.29 623.589 536.29C624.906 536.29 625.99 535.968 626.842 535.324C627.704 534.689 628.135 533.624 628.135 532.128V528.136H627.879C627.614 528.742 627.216 529.315 626.686 529.855C626.156 530.395 625.474 530.835 624.641 531.176C623.807 531.517 622.813 531.688 621.658 531.688C620.019 531.688 618.528 531.309 617.183 530.551C615.848 529.784 614.783 528.615 613.987 527.043C613.201 525.461 612.808 523.463 612.808 521.048C612.808 518.577 613.211 516.512 614.016 514.855C614.821 513.198 615.891 511.957 617.226 511.134C618.571 510.31 620.043 509.898 621.643 509.898C622.865 509.898 623.888 510.106 624.712 510.523C625.536 510.93 626.198 511.441 626.7 512.057C627.212 512.663 627.605 513.259 627.879 513.847H628.107V510.182H634.115V532.213C634.115 534.069 633.661 535.622 632.751 536.872C631.842 538.122 630.583 539.06 628.973 539.685C627.373 540.319 625.531 540.636 623.447 540.636ZM623.575 527.142C624.551 527.142 625.375 526.901 626.047 526.418C626.729 525.925 627.25 525.224 627.609 524.315C627.979 523.397 628.163 522.298 628.163 521.02C628.163 519.741 627.983 518.634 627.624 517.696C627.264 516.749 626.743 516.015 626.061 515.494C625.379 514.973 624.551 514.713 623.575 514.713C622.581 514.713 621.743 514.983 621.061 515.523C620.379 516.053 619.863 516.792 619.513 517.739C619.162 518.686 618.987 519.779 618.987 521.02C618.987 522.279 619.162 523.368 619.513 524.287C619.873 525.196 620.389 525.902 621.061 526.403C621.743 526.896 622.581 527.142 623.575 527.142ZM656.228 532.355C654.571 532.355 653.07 531.929 651.725 531.077C650.39 530.215 649.329 528.951 648.543 527.284C647.767 525.608 647.379 523.553 647.379 521.119C647.379 518.619 647.781 516.541 648.586 514.884C649.391 513.217 650.461 511.972 651.796 511.148C653.141 510.314 654.613 509.898 656.214 509.898C657.435 509.898 658.453 510.106 659.268 510.523C660.092 510.93 660.754 511.441 661.256 512.057C661.768 512.663 662.156 513.259 662.421 513.847H662.606V502.909H668.643V532H662.677V528.506H662.421C662.137 529.112 661.735 529.713 661.214 530.31C660.702 530.897 660.035 531.384 659.211 531.773C658.397 532.161 657.402 532.355 656.228 532.355ZM658.146 527.54C659.121 527.54 659.945 527.275 660.617 526.744C661.299 526.205 661.82 525.452 662.18 524.486C662.549 523.52 662.734 522.388 662.734 521.091C662.734 519.794 662.554 518.667 662.194 517.71C661.834 516.754 661.313 516.015 660.631 515.494C659.95 514.973 659.121 514.713 658.146 514.713C657.151 514.713 656.313 514.983 655.631 515.523C654.95 516.062 654.433 516.811 654.083 517.767C653.733 518.723 653.558 519.831 653.558 521.091C653.558 522.36 653.733 523.482 654.083 524.457C654.443 525.423 654.959 526.181 655.631 526.73C656.313 527.27 657.151 527.54 658.146 527.54ZM673.618 532V510.182H679.484V513.989H679.712C680.109 512.634 680.777 511.612 681.714 510.92C682.652 510.22 683.732 509.869 684.953 509.869C685.256 509.869 685.583 509.888 685.933 509.926C686.284 509.964 686.591 510.016 686.857 510.082V515.452C686.572 515.366 686.179 515.291 685.678 515.224C685.176 515.158 684.716 515.125 684.3 515.125C683.41 515.125 682.614 515.319 681.913 515.707C681.222 516.086 680.673 516.616 680.266 517.298C679.868 517.98 679.669 518.766 679.669 519.656V532H673.618ZM695.582 532.412C694.19 532.412 692.949 532.17 691.86 531.688C690.771 531.195 689.909 530.471 689.275 529.514C688.65 528.548 688.337 527.346 688.337 525.906C688.337 524.694 688.56 523.676 689.005 522.852C689.45 522.028 690.056 521.366 690.823 520.864C691.59 520.362 692.461 519.983 693.437 519.727C694.422 519.472 695.454 519.292 696.533 519.188C697.802 519.055 698.825 518.932 699.602 518.818C700.378 518.695 700.942 518.515 701.292 518.278C701.642 518.042 701.817 517.691 701.817 517.227V517.142C701.817 516.242 701.533 515.546 700.965 515.054C700.406 514.562 699.611 514.315 698.579 514.315C697.49 514.315 696.623 514.557 695.979 515.04C695.335 515.513 694.909 516.11 694.701 516.83L689.104 516.375C689.388 515.049 689.947 513.903 690.781 512.938C691.614 511.962 692.689 511.214 694.005 510.693C695.331 510.163 696.865 509.898 698.607 509.898C699.819 509.898 700.979 510.04 702.087 510.324C703.205 510.608 704.194 511.048 705.056 511.645C705.927 512.241 706.614 513.009 707.116 513.946C707.618 514.874 707.869 515.987 707.869 517.284V532H702.13V528.974H701.96C701.609 529.656 701.14 530.258 700.553 530.778C699.966 531.29 699.261 531.692 698.437 531.986C697.613 532.27 696.661 532.412 695.582 532.412ZM697.315 528.236C698.205 528.236 698.991 528.061 699.673 527.71C700.354 527.35 700.889 526.867 701.278 526.261C701.666 525.655 701.86 524.969 701.86 524.202V521.886C701.671 522.009 701.41 522.123 701.079 522.227C700.757 522.322 700.392 522.412 699.985 522.497C699.578 522.573 699.171 522.644 698.763 522.71C698.356 522.767 697.987 522.819 697.656 522.866C696.945 522.971 696.325 523.136 695.795 523.364C695.264 523.591 694.853 523.899 694.559 524.287C694.265 524.666 694.119 525.139 694.119 525.707C694.119 526.531 694.417 527.161 695.013 527.597C695.62 528.023 696.387 528.236 697.315 528.236ZM716.867 532L710.93 510.182H717.052L720.433 524.841H720.631L724.154 510.182H730.163L733.742 524.756H733.927L737.251 510.182H743.359L737.435 532H731.029L727.279 518.278H727.009L723.259 532H716.867ZM752.638 519.386V532H746.587V510.182H752.354V514.031H752.609C753.092 512.762 753.902 511.759 755.038 511.02C756.175 510.272 757.553 509.898 759.172 509.898C760.687 509.898 762.008 510.229 763.135 510.892C764.262 511.555 765.138 512.502 765.763 513.733C766.388 514.955 766.7 516.413 766.7 518.108V532H760.649V519.188C760.659 517.852 760.318 516.811 759.626 516.062C758.935 515.305 757.983 514.926 756.771 514.926C755.957 514.926 755.237 515.101 754.612 515.452C753.997 515.802 753.514 516.313 753.163 516.986C752.822 517.649 752.647 518.449 752.638 519.386ZM780.727 532V510.182H786.778V532H780.727ZM783.767 507.369C782.867 507.369 782.096 507.071 781.452 506.474C780.817 505.868 780.5 505.144 780.5 504.301C780.5 503.468 780.817 502.753 781.452 502.156C782.096 501.55 782.867 501.247 783.767 501.247C784.667 501.247 785.434 501.55 786.068 502.156C786.712 502.753 787.034 503.468 787.034 504.301C787.034 505.144 786.712 505.868 786.068 506.474C785.434 507.071 784.667 507.369 783.767 507.369ZM797.677 519.386V532H791.626V510.182H797.393V514.031H797.648C798.131 512.762 798.941 511.759 800.077 511.02C801.214 510.272 802.592 509.898 804.211 509.898C805.726 509.898 807.047 510.229 808.174 510.892C809.301 511.555 810.177 512.502 810.802 513.733C811.427 514.955 811.739 516.413 811.739 518.108V532H805.688V519.188C805.698 517.852 805.357 516.811 804.665 516.062C803.974 515.305 803.022 514.926 801.81 514.926C800.996 514.926 800.276 515.101 799.651 515.452C799.036 515.802 798.553 516.313 798.202 516.986C797.862 517.649 797.686 518.449 797.677 519.386ZM439.871 558.182V562.727H426.732V558.182H439.871ZM429.715 552.955H435.766V573.295C435.766 573.854 435.852 574.29 436.022 574.602C436.192 574.905 436.429 575.118 436.732 575.241C437.045 575.365 437.405 575.426 437.812 575.426C438.096 575.426 438.38 575.402 438.664 575.355C438.948 575.298 439.166 575.256 439.317 575.227L440.269 579.73C439.966 579.825 439.54 579.934 438.991 580.057C438.442 580.189 437.774 580.27 436.988 580.298C435.53 580.355 434.251 580.161 433.153 579.716C432.064 579.271 431.216 578.58 430.61 577.642C430.004 576.705 429.706 575.521 429.715 574.091V552.955ZM450.333 567.386V580H444.282V550.909H450.163V562.031H450.418C450.911 560.743 451.706 559.735 452.805 559.006C453.903 558.267 455.281 557.898 456.938 557.898C458.453 557.898 459.774 558.229 460.901 558.892C462.038 559.545 462.918 560.488 463.543 561.719C464.178 562.94 464.49 564.403 464.481 566.108V580H458.43V567.188C458.439 565.843 458.098 564.796 457.407 564.048C456.725 563.3 455.769 562.926 454.538 562.926C453.714 562.926 452.985 563.101 452.35 563.452C451.725 563.802 451.233 564.313 450.873 564.986C450.522 565.649 450.343 566.449 450.333 567.386ZM479.186 580.426C476.942 580.426 475.01 579.972 473.391 579.062C471.781 578.144 470.54 576.847 469.669 575.17C468.798 573.485 468.362 571.491 468.362 569.19C468.362 566.946 468.798 564.976 469.669 563.281C470.54 561.586 471.767 560.265 473.348 559.318C474.939 558.371 476.804 557.898 478.945 557.898C480.384 557.898 481.724 558.13 482.964 558.594C484.214 559.048 485.304 559.735 486.232 560.653C487.169 561.572 487.898 562.727 488.419 564.119C488.94 565.502 489.2 567.121 489.2 568.977V570.639H470.777V566.889H483.504C483.504 566.018 483.315 565.246 482.936 564.574C482.557 563.902 482.032 563.376 481.359 562.997C480.696 562.609 479.925 562.415 479.044 562.415C478.125 562.415 477.311 562.628 476.601 563.054C475.9 563.471 475.351 564.034 474.953 564.744C474.555 565.445 474.352 566.226 474.342 567.088V570.653C474.342 571.733 474.541 572.666 474.939 573.452C475.346 574.238 475.919 574.844 476.658 575.27C477.396 575.696 478.272 575.909 479.286 575.909C479.958 575.909 480.573 575.814 481.132 575.625C481.691 575.436 482.169 575.152 482.567 574.773C482.964 574.394 483.268 573.93 483.476 573.381L489.072 573.75C488.788 575.095 488.206 576.269 487.325 577.273C486.454 578.267 485.327 579.044 483.945 579.602C482.571 580.152 480.985 580.426 479.186 580.426ZM512.265 580.426C510.03 580.426 508.108 579.953 506.498 579.006C504.897 578.049 503.666 576.723 502.805 575.028C501.952 573.333 501.526 571.383 501.526 569.176C501.526 566.941 501.957 564.981 502.819 563.295C503.69 561.6 504.926 560.279 506.526 559.332C508.127 558.376 510.03 557.898 512.237 557.898C514.14 557.898 515.807 558.243 517.237 558.935C518.666 559.626 519.798 560.597 520.631 561.847C521.465 563.097 521.924 564.564 522.009 566.25H516.299C516.138 565.161 515.712 564.285 515.021 563.622C514.339 562.95 513.444 562.614 512.336 562.614C511.398 562.614 510.579 562.869 509.879 563.381C509.187 563.883 508.647 564.616 508.259 565.582C507.871 566.548 507.677 567.718 507.677 569.091C507.677 570.483 507.866 571.667 508.245 572.642C508.633 573.617 509.178 574.361 509.879 574.872C510.579 575.384 511.398 575.639 512.336 575.639C513.027 575.639 513.647 575.497 514.197 575.213C514.755 574.929 515.215 574.517 515.575 573.977C515.944 573.428 516.185 572.77 516.299 572.003H522.009C521.915 573.67 521.46 575.137 520.646 576.406C519.841 577.666 518.728 578.651 517.308 579.361C515.887 580.071 514.206 580.426 512.265 580.426ZM531.935 567.386V580H525.884V550.909H531.764V562.031H532.02C532.512 560.743 533.308 559.735 534.406 559.006C535.505 558.267 536.883 557.898 538.54 557.898C540.055 557.898 541.376 558.229 542.503 558.892C543.639 559.545 544.52 560.488 545.145 561.719C545.779 562.94 546.092 564.403 546.082 566.108V580H540.031V567.188C540.041 565.843 539.7 564.796 539.009 564.048C538.327 563.3 537.37 562.926 536.139 562.926C535.315 562.926 534.586 563.101 533.952 563.452C533.327 563.802 532.834 564.313 532.474 564.986C532.124 565.649 531.944 566.449 531.935 567.386ZM557.066 580.412C555.674 580.412 554.433 580.17 553.344 579.688C552.255 579.195 551.394 578.471 550.759 577.514C550.134 576.548 549.822 575.346 549.822 573.906C549.822 572.694 550.044 571.676 550.489 570.852C550.934 570.028 551.54 569.366 552.308 568.864C553.075 568.362 553.946 567.983 554.921 567.727C555.906 567.472 556.938 567.292 558.018 567.188C559.287 567.055 560.309 566.932 561.086 566.818C561.862 566.695 562.426 566.515 562.776 566.278C563.127 566.042 563.302 565.691 563.302 565.227V565.142C563.302 564.242 563.018 563.546 562.45 563.054C561.891 562.562 561.095 562.315 560.063 562.315C558.974 562.315 558.108 562.557 557.464 563.04C556.82 563.513 556.394 564.11 556.185 564.83L550.589 564.375C550.873 563.049 551.432 561.903 552.265 560.938C553.098 559.962 554.173 559.214 555.489 558.693C556.815 558.163 558.349 557.898 560.092 557.898C561.304 557.898 562.464 558.04 563.572 558.324C564.689 558.608 565.679 559.048 566.54 559.645C567.412 560.241 568.098 561.009 568.6 561.946C569.102 562.874 569.353 563.987 569.353 565.284V580H563.614V576.974H563.444C563.094 577.656 562.625 578.258 562.038 578.778C561.451 579.29 560.745 579.692 559.921 579.986C559.097 580.27 558.146 580.412 557.066 580.412ZM558.799 576.236C559.689 576.236 560.475 576.061 561.157 575.71C561.839 575.35 562.374 574.867 562.762 574.261C563.15 573.655 563.344 572.969 563.344 572.202V569.886C563.155 570.009 562.895 570.123 562.563 570.227C562.241 570.322 561.877 570.412 561.469 570.497C561.062 570.573 560.655 570.644 560.248 570.71C559.841 570.767 559.471 570.819 559.14 570.866C558.43 570.971 557.809 571.136 557.279 571.364C556.749 571.591 556.337 571.899 556.043 572.287C555.75 572.666 555.603 573.139 555.603 573.707C555.603 574.531 555.901 575.161 556.498 575.597C557.104 576.023 557.871 576.236 558.799 576.236ZM585.653 558.182V562.727H572.513V558.182H585.653ZM575.496 552.955H581.548V573.295C581.548 573.854 581.633 574.29 581.803 574.602C581.974 574.905 582.21 575.118 582.513 575.241C582.826 575.365 583.186 575.426 583.593 575.426C583.877 575.426 584.161 575.402 584.445 575.355C584.729 575.298 584.947 575.256 585.099 575.227L586.05 579.73C585.747 579.825 585.321 579.934 584.772 580.057C584.223 580.189 583.555 580.27 582.769 580.298C581.311 580.355 580.032 580.161 578.934 579.716C577.845 579.271 576.997 578.58 576.391 577.642C575.785 576.705 575.487 575.521 575.496 574.091V552.955ZM596.825 550.909L596.271 571.278H591.072L590.504 550.909H596.825ZM593.671 580.369C592.734 580.369 591.929 580.038 591.256 579.375C590.584 578.703 590.253 577.898 590.262 576.96C590.253 576.032 590.584 575.237 591.256 574.574C591.929 573.911 592.734 573.58 593.671 573.58C594.571 573.58 595.362 573.911 596.043 574.574C596.725 575.237 597.071 576.032 597.08 576.96C597.071 577.585 596.905 578.158 596.583 578.679C596.271 579.19 595.859 579.602 595.347 579.915C594.836 580.218 594.277 580.369 593.671 580.369Z" fill="#9DA3CB"/>
<path d="M442.5 290.5C453.184 290.5 463.431 286.259 470.986 278.711C478.541 271.163 482.786 260.925 482.786 250.25C482.786 239.575 478.541 229.337 470.986 221.789C463.431 214.241 453.184 210 442.5 210C431.816 210 421.569 214.241 414.014 221.789C406.459 229.337 402.214 239.575 402.214 250.25C402.214 260.925 406.459 271.163 414.014 278.711C421.569 286.259 431.816 290.5 442.5 290.5ZM428.117 305.594C397.116 305.594 372 330.687 372 361.661C372 366.818 376.186 371 381.348 371H503.652C508.814 371 513 366.818 513 361.661C513 330.687 487.884 305.594 456.883 305.594H428.117Z" fill="#9DA3CB"/>
<path d="M685 197.643C685 236.114 646.504 267.286 599.005 267.286C586.542 267.286 574.718 265.143 564.036 261.292C560.038 264.205 553.522 268.19 545.796 271.538C537.734 275.02 528.025 278 518.385 278C516.201 278 514.253 276.694 513.413 274.685C512.573 272.676 513.044 270.4 514.555 268.859L514.656 268.759C514.757 268.658 514.891 268.525 515.093 268.29C515.462 267.888 516.033 267.252 516.739 266.382C518.116 264.708 519.963 262.23 521.845 259.15C525.204 253.592 528.395 246.292 529.033 238.089C518.956 226.705 513.01 212.743 513.01 197.643C513.01 159.172 551.506 128 599.005 128C646.504 128 685 159.172 685 197.643Z" fill="white"/>
</svg>
