<svg width="978" height="656" viewBox="0 0 978 656" fill="none" xmlns="http://www.w3.org/2000/svg">
<rect width="978" height="656" rx="30" fill="#1B1C24"/>
<path d="M271.46 484L263.136 454.909H269.854L274.67 475.122H274.911L280.224 454.909H285.977L291.275 475.165H291.531L296.346 454.909H303.065L294.741 484H288.746L283.207 464.98H282.979L277.454 484H271.46ZM312.294 471.386V484H306.243V454.909H312.124V466.031H312.379C312.872 464.743 313.667 463.735 314.766 463.006C315.864 462.267 317.242 461.898 318.899 461.898C320.414 461.898 321.735 462.229 322.862 462.892C323.999 463.545 324.879 464.488 325.504 465.719C326.139 466.94 326.451 468.403 326.442 470.108V484H320.391V471.188C320.4 469.843 320.059 468.796 319.368 468.048C318.686 467.3 317.73 466.926 316.499 466.926C315.675 466.926 314.946 467.101 314.311 467.452C313.686 467.802 313.194 468.313 312.834 468.986C312.483 469.649 312.304 470.449 312.294 471.386ZM331.204 484V462.182H337.255V484H331.204ZM334.244 459.369C333.344 459.369 332.572 459.071 331.928 458.474C331.294 457.868 330.977 457.144 330.977 456.301C330.977 455.468 331.294 454.753 331.928 454.156C332.572 453.55 333.344 453.247 334.244 453.247C335.143 453.247 335.91 453.55 336.545 454.156C337.189 454.753 337.511 455.468 337.511 456.301C337.511 457.144 337.189 457.868 336.545 458.474C335.91 459.071 335.143 459.369 334.244 459.369ZM348.153 454.909V484H342.102V454.909H348.153ZM362.944 484.426C360.7 484.426 358.768 483.972 357.148 483.062C355.539 482.144 354.298 480.847 353.427 479.17C352.556 477.485 352.12 475.491 352.12 473.19C352.12 470.946 352.556 468.976 353.427 467.281C354.298 465.586 355.524 464.265 357.106 463.318C358.697 462.371 360.562 461.898 362.702 461.898C364.142 461.898 365.482 462.13 366.722 462.594C367.972 463.048 369.061 463.735 369.989 464.653C370.927 465.572 371.656 466.727 372.177 468.119C372.698 469.502 372.958 471.121 372.958 472.977V474.639H354.535V470.889H367.262C367.262 470.018 367.073 469.246 366.694 468.574C366.315 467.902 365.79 467.376 365.117 466.997C364.454 466.609 363.683 466.415 362.802 466.415C361.883 466.415 361.069 466.628 360.359 467.054C359.658 467.471 359.109 468.034 358.711 468.744C358.313 469.445 358.11 470.226 358.1 471.088V474.653C358.1 475.733 358.299 476.666 358.697 477.452C359.104 478.238 359.677 478.844 360.415 479.27C361.154 479.696 362.03 479.909 363.043 479.909C363.716 479.909 364.331 479.814 364.89 479.625C365.449 479.436 365.927 479.152 366.325 478.773C366.722 478.394 367.025 477.93 367.234 477.381L372.83 477.75C372.546 479.095 371.964 480.269 371.083 481.273C370.212 482.267 369.085 483.044 367.702 483.602C366.329 484.152 364.743 484.426 362.944 484.426ZM389.901 492.182C389.134 492.182 388.414 492.12 387.741 491.997C387.079 491.884 386.529 491.737 386.094 491.557L387.457 487.04C388.168 487.258 388.807 487.376 389.375 487.395C389.953 487.414 390.45 487.281 390.866 486.997C391.293 486.713 391.638 486.23 391.903 485.548L392.259 484.625L384.432 462.182H390.795L395.312 478.205H395.54L400.099 462.182H406.506L398.026 486.358C397.618 487.532 397.064 488.555 396.364 489.426C395.672 490.307 394.796 490.984 393.736 491.457C392.675 491.94 391.397 492.182 389.901 492.182ZM418.757 484.426C416.551 484.426 414.643 483.957 413.033 483.02C411.432 482.073 410.196 480.757 409.325 479.071C408.454 477.376 408.018 475.411 408.018 473.176C408.018 470.922 408.454 468.953 409.325 467.267C410.196 465.572 411.432 464.256 413.033 463.318C414.643 462.371 416.551 461.898 418.757 461.898C420.964 461.898 422.867 462.371 424.467 463.318C426.077 464.256 427.318 465.572 428.189 467.267C429.06 468.953 429.496 470.922 429.496 473.176C429.496 475.411 429.06 477.376 428.189 479.071C427.318 480.757 426.077 482.073 424.467 483.02C422.867 483.957 420.964 484.426 418.757 484.426ZM418.786 479.739C419.789 479.739 420.627 479.455 421.3 478.886C421.972 478.309 422.479 477.523 422.82 476.528C423.17 475.534 423.345 474.402 423.345 473.134C423.345 471.865 423.17 470.733 422.82 469.739C422.479 468.744 421.972 467.958 421.3 467.381C420.627 466.803 419.789 466.514 418.786 466.514C417.772 466.514 416.92 466.803 416.229 467.381C415.547 467.958 415.031 468.744 414.68 469.739C414.339 470.733 414.169 471.865 414.169 473.134C414.169 474.402 414.339 475.534 414.68 476.528C415.031 477.523 415.547 478.309 416.229 478.886C416.92 479.455 417.772 479.739 418.786 479.739ZM447.422 474.71V462.182H453.473V484H447.663V480.037H447.436C446.944 481.315 446.125 482.343 444.979 483.119C443.842 483.896 442.455 484.284 440.817 484.284C439.358 484.284 438.075 483.953 436.967 483.29C435.859 482.627 434.993 481.685 434.368 480.463C433.752 479.241 433.44 477.778 433.43 476.074V462.182H439.482V474.994C439.491 476.282 439.837 477.3 440.518 478.048C441.2 478.796 442.114 479.17 443.26 479.17C443.989 479.17 444.671 479.005 445.305 478.673C445.94 478.332 446.451 477.83 446.839 477.168C447.237 476.505 447.431 475.686 447.422 474.71ZM463.97 454.909V457.977C463.97 458.848 463.8 459.739 463.459 460.648C463.127 461.547 462.682 462.4 462.124 463.205C461.565 464 460.954 464.677 460.291 465.236L457.621 463.659C458.094 462.911 458.511 462.082 458.871 461.173C459.24 460.264 459.425 459.208 459.425 458.006V454.909H463.97ZM467.141 484V462.182H473.008V465.989H473.235C473.633 464.634 474.3 463.612 475.238 462.92C476.175 462.22 477.255 461.869 478.477 461.869C478.78 461.869 479.106 461.888 479.457 461.926C479.807 461.964 480.115 462.016 480.38 462.082V467.452C480.096 467.366 479.703 467.291 479.201 467.224C478.699 467.158 478.24 467.125 477.823 467.125C476.933 467.125 476.138 467.319 475.437 467.707C474.746 468.086 474.196 468.616 473.789 469.298C473.391 469.98 473.192 470.766 473.192 471.656V484H467.141ZM492.436 484.426C490.192 484.426 488.26 483.972 486.641 483.062C485.031 482.144 483.79 480.847 482.919 479.17C482.048 477.485 481.612 475.491 481.612 473.19C481.612 470.946 482.048 468.976 482.919 467.281C483.79 465.586 485.017 464.265 486.598 463.318C488.189 462.371 490.054 461.898 492.195 461.898C493.634 461.898 494.974 462.13 496.214 462.594C497.464 463.048 498.554 463.735 499.482 464.653C500.419 465.572 501.148 466.727 501.669 468.119C502.19 469.502 502.45 471.121 502.45 472.977V474.639H484.027V470.889H496.754C496.754 470.018 496.565 469.246 496.186 468.574C495.807 467.902 495.282 467.376 494.609 466.997C493.946 466.609 493.175 466.415 492.294 466.415C491.375 466.415 490.561 466.628 489.851 467.054C489.15 467.471 488.601 468.034 488.203 468.744C487.805 469.445 487.602 470.226 487.592 471.088V474.653C487.592 475.733 487.791 476.666 488.189 477.452C488.596 478.238 489.169 478.844 489.908 479.27C490.646 479.696 491.522 479.909 492.536 479.909C493.208 479.909 493.823 479.814 494.382 479.625C494.941 479.436 495.419 479.152 495.817 478.773C496.214 478.394 496.518 477.93 496.726 477.381L502.322 477.75C502.038 479.095 501.456 480.269 500.575 481.273C499.704 482.267 498.577 483.044 497.195 483.602C495.821 484.152 494.235 484.426 492.436 484.426ZM523.697 484.355C522.04 484.355 520.539 483.929 519.194 483.077C517.859 482.215 516.798 480.951 516.012 479.284C515.236 477.608 514.847 475.553 514.847 473.119C514.847 470.619 515.25 468.541 516.055 466.884C516.86 465.217 517.93 463.972 519.265 463.148C520.61 462.314 522.082 461.898 523.683 461.898C524.904 461.898 525.922 462.106 526.737 462.523C527.56 462.93 528.223 463.441 528.725 464.057C529.237 464.663 529.625 465.259 529.89 465.847H530.075V454.909H536.112V484H530.146V480.506H529.89C529.606 481.112 529.203 481.713 528.683 482.31C528.171 482.897 527.504 483.384 526.68 483.773C525.865 484.161 524.871 484.355 523.697 484.355ZM525.614 479.54C526.59 479.54 527.414 479.275 528.086 478.744C528.768 478.205 529.289 477.452 529.648 476.486C530.018 475.52 530.202 474.388 530.202 473.091C530.202 471.794 530.022 470.667 529.663 469.71C529.303 468.754 528.782 468.015 528.1 467.494C527.418 466.973 526.59 466.713 525.614 466.713C524.62 466.713 523.782 466.983 523.1 467.523C522.418 468.062 521.902 468.811 521.552 469.767C521.201 470.723 521.026 471.831 521.026 473.091C521.026 474.36 521.201 475.482 521.552 476.457C521.912 477.423 522.428 478.181 523.1 478.73C523.782 479.27 524.62 479.54 525.614 479.54ZM541.087 484V462.182H546.953V465.989H547.18C547.578 464.634 548.246 463.612 549.183 462.92C550.121 462.22 551.2 461.869 552.422 461.869C552.725 461.869 553.052 461.888 553.402 461.926C553.752 461.964 554.06 462.016 554.325 462.082V467.452C554.041 467.366 553.648 467.291 553.146 467.224C552.644 467.158 552.185 467.125 551.768 467.125C550.878 467.125 550.083 467.319 549.382 467.707C548.691 468.086 548.142 468.616 547.734 469.298C547.337 469.98 547.138 470.766 547.138 471.656V484H541.087ZM563.05 484.412C561.658 484.412 560.418 484.17 559.329 483.688C558.24 483.195 557.378 482.471 556.744 481.514C556.119 480.548 555.806 479.346 555.806 477.906C555.806 476.694 556.029 475.676 556.474 474.852C556.919 474.028 557.525 473.366 558.292 472.864C559.059 472.362 559.93 471.983 560.906 471.727C561.89 471.472 562.923 471.292 564.002 471.188C565.271 471.055 566.294 470.932 567.07 470.818C567.847 470.695 568.41 470.515 568.761 470.278C569.111 470.042 569.286 469.691 569.286 469.227V469.142C569.286 468.242 569.002 467.546 568.434 467.054C567.875 466.562 567.08 466.315 566.048 466.315C564.959 466.315 564.092 466.557 563.448 467.04C562.804 467.513 562.378 468.11 562.17 468.83L556.573 468.375C556.857 467.049 557.416 465.903 558.249 464.938C559.083 463.962 560.157 463.214 561.474 462.693C562.799 462.163 564.334 461.898 566.076 461.898C567.288 461.898 568.448 462.04 569.556 462.324C570.674 462.608 571.663 463.048 572.525 463.645C573.396 464.241 574.083 465.009 574.585 465.946C575.086 466.874 575.337 467.987 575.337 469.284V484H569.599V480.974H569.428C569.078 481.656 568.609 482.258 568.022 482.778C567.435 483.29 566.729 483.692 565.906 483.986C565.082 484.27 564.13 484.412 563.05 484.412ZM564.783 480.236C565.674 480.236 566.46 480.061 567.141 479.71C567.823 479.35 568.358 478.867 568.746 478.261C569.135 477.655 569.329 476.969 569.329 476.202V473.886C569.139 474.009 568.879 474.123 568.548 474.227C568.226 474.322 567.861 474.412 567.454 474.497C567.047 474.573 566.639 474.644 566.232 474.71C565.825 474.767 565.456 474.819 565.124 474.866C564.414 474.971 563.794 475.136 563.263 475.364C562.733 475.591 562.321 475.899 562.028 476.287C561.734 476.666 561.587 477.139 561.587 477.707C561.587 478.531 561.886 479.161 562.482 479.597C563.088 480.023 563.855 480.236 564.783 480.236ZM584.336 484L578.398 462.182H584.521L587.901 476.841H588.1L591.623 462.182H597.631L601.211 476.756H601.396L604.719 462.182H610.827L604.904 484H598.498L594.748 470.278H594.478L590.728 484H584.336ZM614.055 484V462.182H620.107V484H614.055ZM617.095 459.369C616.196 459.369 615.424 459.071 614.78 458.474C614.145 457.868 613.828 457.144 613.828 456.301C613.828 455.468 614.145 454.753 614.78 454.156C615.424 453.55 616.196 453.247 617.095 453.247C617.995 453.247 618.762 453.55 619.396 454.156C620.04 454.753 620.362 455.468 620.362 456.301C620.362 457.144 620.04 457.868 619.396 458.474C618.762 459.071 617.995 459.369 617.095 459.369ZM631.005 471.386V484H624.954V462.182H630.721V466.031H630.977C631.46 464.762 632.269 463.759 633.406 463.02C634.542 462.272 635.92 461.898 637.539 461.898C639.054 461.898 640.375 462.229 641.502 462.892C642.629 463.555 643.505 464.502 644.13 465.733C644.755 466.955 645.067 468.413 645.067 470.108V484H639.016V471.188C639.026 469.852 638.685 468.811 637.994 468.062C637.302 467.305 636.351 466.926 635.138 466.926C634.324 466.926 633.604 467.101 632.979 467.452C632.364 467.802 631.881 468.313 631.531 468.986C631.19 469.649 631.014 470.449 631.005 471.386ZM659.666 492.636C657.706 492.636 656.025 492.366 654.624 491.827C653.232 491.296 652.124 490.572 651.3 489.653C650.476 488.735 649.941 487.703 649.695 486.557L655.291 485.804C655.462 486.24 655.732 486.647 656.101 487.026C656.47 487.404 656.958 487.707 657.564 487.935C658.179 488.171 658.928 488.29 659.808 488.29C661.125 488.29 662.209 487.968 663.061 487.324C663.923 486.689 664.354 485.624 664.354 484.128V480.136H664.098C663.833 480.742 663.435 481.315 662.905 481.855C662.375 482.395 661.693 482.835 660.859 483.176C660.026 483.517 659.032 483.688 657.876 483.688C656.238 483.688 654.747 483.309 653.402 482.551C652.067 481.784 651.001 480.615 650.206 479.043C649.42 477.461 649.027 475.463 649.027 473.048C649.027 470.577 649.429 468.512 650.234 466.855C651.039 465.198 652.109 463.957 653.445 463.134C654.789 462.31 656.262 461.898 657.862 461.898C659.084 461.898 660.107 462.106 660.93 462.523C661.754 462.93 662.417 463.441 662.919 464.057C663.43 464.663 663.823 465.259 664.098 465.847H664.325V462.182H670.334V484.213C670.334 486.069 669.879 487.622 668.97 488.872C668.061 490.122 666.802 491.06 665.192 491.685C663.591 492.319 661.75 492.636 659.666 492.636ZM659.794 479.142C660.769 479.142 661.593 478.901 662.266 478.418C662.947 477.925 663.468 477.224 663.828 476.315C664.197 475.397 664.382 474.298 664.382 473.02C664.382 471.741 664.202 470.634 663.842 469.696C663.482 468.749 662.962 468.015 662.28 467.494C661.598 466.973 660.769 466.713 659.794 466.713C658.8 466.713 657.962 466.983 657.28 467.523C656.598 468.053 656.082 468.792 655.732 469.739C655.381 470.686 655.206 471.779 655.206 473.02C655.206 474.279 655.381 475.368 655.732 476.287C656.091 477.196 656.607 477.902 657.28 478.403C657.962 478.896 658.8 479.142 659.794 479.142ZM681.726 480.023L681.57 481.585C681.446 482.835 681.21 484.08 680.859 485.321C680.518 486.571 680.159 487.703 679.78 488.716C679.411 489.729 679.112 490.525 678.885 491.102H674.964C675.107 490.544 675.301 489.762 675.547 488.759C675.793 487.764 676.025 486.647 676.243 485.406C676.461 484.166 676.598 482.902 676.655 481.614L676.726 480.023H681.726ZM706.754 462.182V466.727H693.615V462.182H706.754ZM696.598 456.955H702.649V477.295C702.649 477.854 702.734 478.29 702.905 478.602C703.075 478.905 703.312 479.118 703.615 479.241C703.928 479.365 704.287 479.426 704.695 479.426C704.979 479.426 705.263 479.402 705.547 479.355C705.831 479.298 706.049 479.256 706.2 479.227L707.152 483.73C706.849 483.825 706.423 483.934 705.874 484.057C705.324 484.189 704.657 484.27 703.871 484.298C702.412 484.355 701.134 484.161 700.036 483.716C698.946 483.271 698.099 482.58 697.493 481.642C696.887 480.705 696.589 479.521 696.598 478.091V456.955ZM717.216 471.386V484H711.165V454.909H717.045V466.031H717.301C717.794 464.743 718.589 463.735 719.688 463.006C720.786 462.267 722.164 461.898 723.821 461.898C725.336 461.898 726.657 462.229 727.784 462.892C728.92 463.545 729.801 464.488 730.426 465.719C731.061 466.94 731.373 468.403 731.364 470.108V484H725.312V471.188C725.322 469.843 724.981 468.796 724.29 468.048C723.608 467.3 722.652 466.926 721.42 466.926C720.597 466.926 719.867 467.101 719.233 467.452C718.608 467.802 718.116 468.313 717.756 468.986C717.405 469.649 717.225 470.449 717.216 471.386ZM746.069 484.426C743.825 484.426 741.893 483.972 740.273 483.062C738.664 482.144 737.423 480.847 736.552 479.17C735.681 477.485 735.245 475.491 735.245 473.19C735.245 470.946 735.681 468.976 736.552 467.281C737.423 465.586 738.649 464.265 740.231 463.318C741.822 462.371 743.687 461.898 745.827 461.898C747.267 461.898 748.607 462.13 749.847 462.594C751.097 463.048 752.186 463.735 753.114 464.653C754.052 465.572 754.781 466.727 755.302 468.119C755.823 469.502 756.083 471.121 756.083 472.977V474.639H737.66V470.889H750.387C750.387 470.018 750.198 469.246 749.819 468.574C749.44 467.902 748.915 467.376 748.242 466.997C747.579 466.609 746.808 466.415 745.927 466.415C745.008 466.415 744.194 466.628 743.484 467.054C742.783 467.471 742.234 468.034 741.836 468.744C741.438 469.445 741.235 470.226 741.225 471.088V474.653C741.225 475.733 741.424 476.666 741.822 477.452C742.229 478.238 742.802 478.844 743.54 479.27C744.279 479.696 745.155 479.909 746.168 479.909C746.841 479.909 747.456 479.814 748.015 479.625C748.574 479.436 749.052 479.152 749.45 478.773C749.847 478.394 750.15 477.93 750.359 477.381L755.955 477.75C755.671 479.095 755.089 480.269 754.208 481.273C753.337 482.267 752.21 483.044 750.827 483.602C749.454 484.152 747.868 484.426 746.069 484.426ZM272.683 532.426C270.476 532.426 268.568 531.957 266.958 531.02C265.358 530.073 264.122 528.757 263.251 527.071C262.38 525.376 261.944 523.411 261.944 521.176C261.944 518.922 262.38 516.953 263.251 515.267C264.122 513.572 265.358 512.256 266.958 511.318C268.568 510.371 270.476 509.898 272.683 509.898C274.889 509.898 276.793 510.371 278.393 511.318C280.003 512.256 281.243 513.572 282.115 515.267C282.986 516.953 283.422 518.922 283.422 521.176C283.422 523.411 282.986 525.376 282.115 527.071C281.243 528.757 280.003 530.073 278.393 531.02C276.793 531.957 274.889 532.426 272.683 532.426ZM272.711 527.739C273.715 527.739 274.553 527.455 275.225 526.886C275.898 526.309 276.404 525.523 276.745 524.528C277.096 523.534 277.271 522.402 277.271 521.134C277.271 519.865 277.096 518.733 276.745 517.739C276.404 516.744 275.898 515.958 275.225 515.381C274.553 514.803 273.715 514.514 272.711 514.514C271.698 514.514 270.846 514.803 270.154 515.381C269.473 515.958 268.957 516.744 268.606 517.739C268.265 518.733 268.095 519.865 268.095 521.134C268.095 522.402 268.265 523.534 268.606 524.528C268.957 525.523 269.473 526.309 270.154 526.886C270.846 527.455 271.698 527.739 272.711 527.739ZM298.961 510.182V514.727H285.822V510.182H298.961ZM288.805 504.955H294.856V525.295C294.856 525.854 294.941 526.29 295.112 526.602C295.282 526.905 295.519 527.118 295.822 527.241C296.135 527.365 296.494 527.426 296.902 527.426C297.186 527.426 297.47 527.402 297.754 527.355C298.038 527.298 298.256 527.256 298.407 527.227L299.359 531.73C299.056 531.825 298.63 531.934 298.081 532.057C297.531 532.189 296.864 532.27 296.078 532.298C294.619 532.355 293.341 532.161 292.243 531.716C291.154 531.271 290.306 530.58 289.7 529.642C289.094 528.705 288.796 527.521 288.805 526.091V504.955ZM309.423 519.386V532H303.372V502.909H309.252V514.031H309.508C310.001 512.743 310.796 511.735 311.895 511.006C312.993 510.267 314.371 509.898 316.028 509.898C317.543 509.898 318.864 510.229 319.991 510.892C321.127 511.545 322.008 512.488 322.633 513.719C323.268 514.94 323.58 516.403 323.571 518.108V532H317.52V519.188C317.529 517.843 317.188 516.796 316.497 516.048C315.815 515.3 314.859 514.926 313.627 514.926C312.804 514.926 312.074 515.101 311.44 515.452C310.815 515.802 310.323 516.313 309.963 516.986C309.612 517.649 309.432 518.449 309.423 519.386ZM338.276 532.426C336.032 532.426 334.1 531.972 332.48 531.062C330.871 530.144 329.63 528.847 328.759 527.17C327.888 525.485 327.452 523.491 327.452 521.19C327.452 518.946 327.888 516.976 328.759 515.281C329.63 513.586 330.856 512.265 332.438 511.318C334.029 510.371 335.894 509.898 338.034 509.898C339.474 509.898 340.814 510.13 342.054 510.594C343.304 511.048 344.393 511.735 345.321 512.653C346.259 513.572 346.988 514.727 347.509 516.119C348.03 517.502 348.29 519.121 348.29 520.977V522.639H329.867V518.889H342.594C342.594 518.018 342.405 517.246 342.026 516.574C341.647 515.902 341.122 515.376 340.449 514.997C339.786 514.609 339.015 514.415 338.134 514.415C337.215 514.415 336.401 514.628 335.691 515.054C334.99 515.471 334.441 516.034 334.043 516.744C333.645 517.445 333.442 518.226 333.432 519.088V522.653C333.432 523.733 333.631 524.666 334.029 525.452C334.436 526.238 335.009 526.844 335.748 527.27C336.486 527.696 337.362 527.909 338.375 527.909C339.048 527.909 339.663 527.814 340.222 527.625C340.781 527.436 341.259 527.152 341.657 526.773C342.054 526.394 342.357 525.93 342.566 525.381L348.162 525.75C347.878 527.095 347.296 528.269 346.415 529.273C345.544 530.267 344.417 531.044 343.034 531.602C341.661 532.152 340.075 532.426 338.276 532.426ZM352.239 532V510.182H358.105V513.989H358.333C358.73 512.634 359.398 511.612 360.336 510.92C361.273 510.22 362.353 509.869 363.574 509.869C363.877 509.869 364.204 509.888 364.554 509.926C364.905 509.964 365.212 510.016 365.478 510.082V515.452C365.194 515.366 364.801 515.291 364.299 515.224C363.797 515.158 363.337 515.125 362.921 515.125C362.031 515.125 361.235 515.319 360.534 515.707C359.843 516.086 359.294 516.616 358.887 517.298C358.489 517.98 358.29 518.766 358.29 519.656V532H352.239ZM377.864 540.182V510.182H383.83V513.847H384.1C384.365 513.259 384.748 512.663 385.25 512.057C385.762 511.441 386.425 510.93 387.239 510.523C388.063 510.106 389.086 509.898 390.307 509.898C391.898 509.898 393.366 510.314 394.711 511.148C396.055 511.972 397.13 513.217 397.935 514.884C398.74 516.541 399.142 518.619 399.142 521.119C399.142 523.553 398.749 525.608 397.963 527.284C397.187 528.951 396.126 530.215 394.782 531.077C393.446 531.929 391.95 532.355 390.293 532.355C389.119 532.355 388.12 532.161 387.296 531.773C386.481 531.384 385.814 530.897 385.293 530.31C384.772 529.713 384.374 529.112 384.1 528.506H383.915V540.182H377.864ZM383.787 521.091C383.787 522.388 383.967 523.52 384.327 524.486C384.687 525.452 385.208 526.205 385.89 526.744C386.571 527.275 387.4 527.54 388.375 527.54C389.36 527.54 390.194 527.27 390.875 526.73C391.557 526.181 392.073 525.423 392.424 524.457C392.783 523.482 392.963 522.36 392.963 521.091C392.963 519.831 392.788 518.723 392.438 517.767C392.087 516.811 391.571 516.062 390.89 515.523C390.208 514.983 389.37 514.713 388.375 514.713C387.391 514.713 386.557 514.973 385.875 515.494C385.203 516.015 384.687 516.754 384.327 517.71C383.967 518.667 383.787 519.794 383.787 521.091ZM409.228 502.909V532H403.176V502.909H409.228ZM420.297 532.412C418.904 532.412 417.664 532.17 416.575 531.688C415.486 531.195 414.624 530.471 413.99 529.514C413.365 528.548 413.052 527.346 413.052 525.906C413.052 524.694 413.275 523.676 413.72 522.852C414.165 522.028 414.771 521.366 415.538 520.864C416.305 520.362 417.176 519.983 418.152 519.727C419.136 519.472 420.169 519.292 421.248 519.188C422.517 519.055 423.54 518.932 424.316 518.818C425.093 518.695 425.656 518.515 426.007 518.278C426.357 518.042 426.532 517.691 426.532 517.227V517.142C426.532 516.242 426.248 515.546 425.68 515.054C425.121 514.562 424.326 514.315 423.294 514.315C422.205 514.315 421.338 514.557 420.694 515.04C420.05 515.513 419.624 516.11 419.416 516.83L413.819 516.375C414.103 515.049 414.662 513.903 415.495 512.938C416.329 511.962 417.404 511.214 418.72 510.693C420.046 510.163 421.58 509.898 423.322 509.898C424.534 509.898 425.694 510.04 426.802 510.324C427.92 510.608 428.909 511.048 429.771 511.645C430.642 512.241 431.329 513.009 431.831 513.946C432.333 514.874 432.583 515.987 432.583 517.284V532H426.845V528.974H426.674C426.324 529.656 425.855 530.258 425.268 530.778C424.681 531.29 423.975 531.692 423.152 531.986C422.328 532.27 421.376 532.412 420.297 532.412ZM422.029 528.236C422.92 528.236 423.706 528.061 424.387 527.71C425.069 527.35 425.604 526.867 425.993 526.261C426.381 525.655 426.575 524.969 426.575 524.202V521.886C426.386 522.009 426.125 522.123 425.794 522.227C425.472 522.322 425.107 522.412 424.7 522.497C424.293 522.573 423.886 522.644 423.478 522.71C423.071 522.767 422.702 522.819 422.37 522.866C421.66 522.971 421.04 523.136 420.51 523.364C419.979 523.591 419.567 523.899 419.274 524.287C418.98 524.666 418.833 525.139 418.833 525.707C418.833 526.531 419.132 527.161 419.728 527.597C420.334 528.023 421.101 528.236 422.029 528.236ZM440.233 540.182C439.466 540.182 438.746 540.12 438.074 539.997C437.411 539.884 436.861 539.737 436.426 539.557L437.789 535.04C438.5 535.258 439.139 535.376 439.707 535.395C440.285 535.414 440.782 535.281 441.199 534.997C441.625 534.713 441.97 534.23 442.235 533.548L442.591 532.625L434.764 510.182H441.127L445.645 526.205H445.872L450.431 510.182H456.838L448.358 534.358C447.95 535.532 447.396 536.555 446.696 537.426C446.004 538.307 445.128 538.984 444.068 539.457C443.007 539.94 441.729 540.182 440.233 540.182ZM469.174 532.426C466.93 532.426 464.998 531.972 463.379 531.062C461.769 530.144 460.529 528.847 459.657 527.17C458.786 525.485 458.35 523.491 458.35 521.19C458.35 518.946 458.786 516.976 459.657 515.281C460.529 513.586 461.755 512.265 463.336 511.318C464.927 510.371 466.793 509.898 468.933 509.898C470.372 509.898 471.712 510.13 472.953 510.594C474.203 511.048 475.292 511.735 476.22 512.653C477.157 513.572 477.886 514.727 478.407 516.119C478.928 517.502 479.189 519.121 479.189 520.977V522.639H460.765V518.889H473.493C473.493 518.018 473.303 517.246 472.924 516.574C472.546 515.902 472.02 515.376 471.348 514.997C470.685 514.609 469.913 514.415 469.032 514.415C468.114 514.415 467.299 514.628 466.589 515.054C465.888 515.471 465.339 516.034 464.941 516.744C464.544 517.445 464.34 518.226 464.331 519.088V522.653C464.331 523.733 464.529 524.666 464.927 525.452C465.334 526.238 465.907 526.844 466.646 527.27C467.385 527.696 468.261 527.909 469.274 527.909C469.946 527.909 470.562 527.814 471.12 527.625C471.679 527.436 472.157 527.152 472.555 526.773C472.953 526.394 473.256 525.93 473.464 525.381L479.061 525.75C478.777 527.095 478.194 528.269 477.314 529.273C476.442 530.267 475.315 531.044 473.933 531.602C472.56 532.152 470.974 532.426 469.174 532.426ZM483.137 532V510.182H489.004V513.989H489.231C489.629 512.634 490.297 511.612 491.234 510.92C492.172 510.22 493.251 509.869 494.473 509.869C494.776 509.869 495.102 509.888 495.453 509.926C495.803 509.964 496.111 510.016 496.376 510.082V515.452C496.092 515.366 495.699 515.291 495.197 515.224C494.695 515.158 494.236 515.125 493.819 515.125C492.929 515.125 492.134 515.319 491.433 515.707C490.742 516.086 490.192 516.616 489.785 517.298C489.387 517.98 489.189 518.766 489.189 519.656V532H483.137ZM517.658 516.403L512.118 516.744C512.024 516.271 511.82 515.845 511.507 515.466C511.195 515.078 510.783 514.77 510.272 514.543C509.77 514.306 509.168 514.188 508.468 514.188C507.53 514.188 506.739 514.386 506.096 514.784C505.452 515.172 505.13 515.693 505.13 516.347C505.13 516.867 505.338 517.308 505.755 517.668C506.171 518.027 506.886 518.316 507.9 518.534L511.848 519.33C513.97 519.765 515.551 520.466 516.593 521.432C517.634 522.398 518.155 523.667 518.155 525.239C518.155 526.669 517.734 527.923 516.891 529.003C516.058 530.082 514.912 530.925 513.453 531.531C512.005 532.128 510.333 532.426 508.439 532.426C505.551 532.426 503.25 531.825 501.536 530.622C499.831 529.41 498.832 527.762 498.539 525.679L504.49 525.366C504.67 526.247 505.106 526.92 505.797 527.384C506.489 527.838 507.374 528.065 508.453 528.065C509.514 528.065 510.366 527.862 511.01 527.455C511.664 527.038 511.995 526.503 512.005 525.849C511.995 525.3 511.763 524.85 511.309 524.5C510.854 524.14 510.153 523.866 509.206 523.676L505.428 522.923C503.297 522.497 501.711 521.759 500.669 520.707C499.637 519.656 499.121 518.316 499.121 516.688C499.121 515.286 499.5 514.079 500.257 513.065C501.025 512.052 502.099 511.271 503.482 510.722C504.874 510.172 506.503 509.898 508.368 509.898C511.124 509.898 513.292 510.48 514.874 511.645C516.465 512.81 517.393 514.396 517.658 516.403ZM535.527 532L529.59 510.182H535.712L539.093 524.841H539.292L542.814 510.182H548.823L552.402 524.756H552.587L555.911 510.182H562.019L556.096 532H549.689L545.939 518.278H545.669L541.919 532H535.527ZM565.247 532V510.182H571.298V532H565.247ZM568.287 507.369C567.387 507.369 566.615 507.071 565.971 506.474C565.337 505.868 565.02 505.144 565.02 504.301C565.02 503.468 565.337 502.753 565.971 502.156C566.615 501.55 567.387 501.247 568.287 501.247C569.186 501.247 569.953 501.55 570.588 502.156C571.232 502.753 571.554 503.468 571.554 504.301C571.554 505.144 571.232 505.868 570.588 506.474C569.953 507.071 569.186 507.369 568.287 507.369ZM582.196 502.909V532H576.145V502.909H582.196ZM593.095 502.909V532H587.044V502.909H593.095ZM607.314 532V502.909H613.365V513.847H613.549C613.815 513.259 614.198 512.663 614.7 512.057C615.211 511.441 615.874 510.93 616.689 510.523C617.512 510.106 618.535 509.898 619.757 509.898C621.348 509.898 622.815 510.314 624.16 511.148C625.505 511.972 626.58 513.217 627.385 514.884C628.19 516.541 628.592 518.619 628.592 521.119C628.592 523.553 628.199 525.608 627.413 527.284C626.636 528.951 625.576 530.215 624.231 531.077C622.896 531.929 621.4 532.355 619.743 532.355C618.568 532.355 617.569 532.161 616.745 531.773C615.931 531.384 615.263 530.897 614.743 530.31C614.222 529.713 613.824 529.112 613.549 528.506H613.279V532H607.314ZM613.237 521.091C613.237 522.388 613.417 523.52 613.777 524.486C614.136 525.452 614.657 526.205 615.339 526.744C616.021 527.275 616.85 527.54 617.825 527.54C618.81 527.54 619.643 527.27 620.325 526.73C621.007 526.181 621.523 525.423 621.873 524.457C622.233 523.482 622.413 522.36 622.413 521.091C622.413 519.831 622.238 518.723 621.887 517.767C621.537 516.811 621.021 516.062 620.339 515.523C619.657 514.983 618.819 514.713 617.825 514.713C616.84 514.713 616.007 514.973 615.325 515.494C614.653 516.015 614.136 516.754 613.777 517.71C613.417 518.667 613.237 519.794 613.237 521.091ZM642.573 532.426C640.328 532.426 638.397 531.972 636.777 531.062C635.167 530.144 633.927 528.847 633.056 527.17C632.185 525.485 631.749 523.491 631.749 521.19C631.749 518.946 632.185 516.976 633.056 515.281C633.927 513.586 635.153 512.265 636.735 511.318C638.326 510.371 640.191 509.898 642.331 509.898C643.771 509.898 645.111 510.13 646.351 510.594C647.601 511.048 648.69 511.735 649.618 512.653C650.556 513.572 651.285 514.727 651.806 516.119C652.327 517.502 652.587 519.121 652.587 520.977V522.639H634.164V518.889H646.891C646.891 518.018 646.702 517.246 646.323 516.574C645.944 515.902 645.418 515.376 644.746 514.997C644.083 514.609 643.311 514.415 642.431 514.415C641.512 514.415 640.698 514.628 639.988 515.054C639.287 515.471 638.738 516.034 638.34 516.744C637.942 517.445 637.739 518.226 637.729 519.088V522.653C637.729 523.733 637.928 524.666 638.326 525.452C638.733 526.238 639.306 526.844 640.044 527.27C640.783 527.696 641.659 527.909 642.672 527.909C643.345 527.909 643.96 527.814 644.519 527.625C645.078 527.436 645.556 527.152 645.953 526.773C646.351 526.394 646.654 525.93 646.863 525.381L652.459 525.75C652.175 527.095 651.593 528.269 650.712 529.273C649.841 530.267 648.714 531.044 647.331 531.602C645.958 532.152 644.372 532.426 642.573 532.426ZM665.907 532V502.909H671.958V513.847H672.143C672.408 513.259 672.792 512.663 673.294 512.057C673.805 511.441 674.468 510.93 675.282 510.523C676.106 510.106 677.129 509.898 678.35 509.898C679.941 509.898 681.409 510.314 682.754 511.148C684.099 511.972 685.173 513.217 685.978 514.884C686.783 516.541 687.186 518.619 687.186 521.119C687.186 523.553 686.793 525.608 686.007 527.284C685.23 528.951 684.17 530.215 682.825 531.077C681.49 531.929 679.993 532.355 678.336 532.355C677.162 532.355 676.163 532.161 675.339 531.773C674.525 531.384 673.857 530.897 673.336 530.31C672.815 529.713 672.418 529.112 672.143 528.506H671.873V532H665.907ZM671.831 521.091C671.831 522.388 672.011 523.52 672.37 524.486C672.73 525.452 673.251 526.205 673.933 526.744C674.615 527.275 675.443 527.54 676.419 527.54C677.404 527.54 678.237 527.27 678.919 526.73C679.6 526.181 680.117 525.423 680.467 524.457C680.827 523.482 681.007 522.36 681.007 521.091C681.007 519.831 680.832 518.723 680.481 517.767C680.131 516.811 679.615 516.062 678.933 515.523C678.251 514.983 677.413 514.713 676.419 514.713C675.434 514.713 674.6 514.973 673.919 515.494C673.246 516.015 672.73 516.754 672.37 517.71C672.011 518.667 671.831 519.794 671.831 521.091ZM705.215 522.71V510.182H711.266V532H705.456V528.037H705.229C704.737 529.315 703.917 530.343 702.772 531.119C701.635 531.896 700.248 532.284 698.61 532.284C697.151 532.284 695.868 531.953 694.76 531.29C693.652 530.627 692.786 529.685 692.161 528.463C691.545 527.241 691.233 525.778 691.223 524.074V510.182H697.275V522.994C697.284 524.282 697.63 525.3 698.311 526.048C698.993 526.796 699.907 527.17 701.053 527.17C701.782 527.17 702.464 527.005 703.098 526.673C703.733 526.332 704.244 525.83 704.632 525.168C705.03 524.505 705.224 523.686 705.215 522.71ZM734.26 516.403L728.72 516.744C728.625 516.271 728.422 515.845 728.109 515.466C727.797 515.078 727.385 514.77 726.873 514.543C726.371 514.306 725.77 514.188 725.069 514.188C724.132 514.188 723.341 514.386 722.697 514.784C722.053 515.172 721.731 515.693 721.731 516.347C721.731 516.867 721.94 517.308 722.356 517.668C722.773 518.027 723.488 518.316 724.501 518.534L728.45 519.33C730.571 519.765 732.153 520.466 733.194 521.432C734.236 522.398 734.757 523.667 734.757 525.239C734.757 526.669 734.335 527.923 733.493 529.003C732.659 530.082 731.513 530.925 730.055 531.531C728.606 532.128 726.935 532.426 725.041 532.426C722.153 532.426 719.851 531.825 718.137 530.622C716.433 529.41 715.434 527.762 715.14 525.679L721.092 525.366C721.272 526.247 721.708 526.92 722.399 527.384C723.09 527.838 723.975 528.065 725.055 528.065C726.116 528.065 726.968 527.862 727.612 527.455C728.265 527.038 728.597 526.503 728.606 525.849C728.597 525.3 728.365 524.85 727.91 524.5C727.456 524.14 726.755 523.866 725.808 523.676L722.029 522.923C719.899 522.497 718.313 521.759 717.271 520.707C716.239 519.656 715.723 518.316 715.723 516.688C715.723 515.286 716.101 514.079 716.859 513.065C717.626 512.052 718.701 511.271 720.083 510.722C721.475 510.172 723.104 509.898 724.97 509.898C727.725 509.898 729.894 510.48 731.475 511.645C733.066 512.81 733.994 514.396 734.26 516.403ZM742.303 540.182C741.536 540.182 740.816 540.12 740.144 539.997C739.481 539.884 738.932 539.737 738.496 539.557L739.86 535.04C740.57 535.258 741.209 535.376 741.777 535.395C742.355 535.414 742.852 535.281 743.269 534.997C743.695 534.713 744.041 534.23 744.306 533.548L744.661 532.625L736.834 510.182H743.198L747.715 526.205H747.942L752.502 510.182H758.908L750.428 534.358C750.021 535.532 749.467 536.555 748.766 537.426C748.075 538.307 747.199 538.984 746.138 539.457C745.078 539.94 743.799 540.182 742.303 540.182ZM333.045 588.636C331.085 588.636 329.404 588.366 328.002 587.827C326.61 587.296 325.502 586.572 324.679 585.653C323.855 584.735 323.32 583.703 323.074 582.557L328.67 581.804C328.841 582.24 329.11 582.647 329.48 583.026C329.849 583.404 330.337 583.707 330.943 583.935C331.558 584.171 332.306 584.29 333.187 584.29C334.503 584.29 335.588 583.968 336.44 583.324C337.302 582.689 337.733 581.624 337.733 580.128V576.136H337.477C337.212 576.742 336.814 577.315 336.284 577.855C335.753 578.395 335.072 578.835 334.238 579.176C333.405 579.517 332.411 579.688 331.255 579.688C329.617 579.688 328.126 579.309 326.781 578.551C325.446 577.784 324.38 576.615 323.585 575.043C322.799 573.461 322.406 571.463 322.406 569.048C322.406 566.577 322.808 564.512 323.613 562.855C324.418 561.198 325.488 559.957 326.824 559.134C328.168 558.31 329.641 557.898 331.241 557.898C332.463 557.898 333.485 558.106 334.309 558.523C335.133 558.93 335.796 559.441 336.298 560.057C336.809 560.663 337.202 561.259 337.477 561.847H337.704V558.182H343.713V580.213C343.713 582.069 343.258 583.622 342.349 584.872C341.44 586.122 340.181 587.06 338.571 587.685C336.97 588.319 335.128 588.636 333.045 588.636ZM333.173 575.142C334.148 575.142 334.972 574.901 335.645 574.418C336.326 573.925 336.847 573.224 337.207 572.315C337.576 571.397 337.761 570.298 337.761 569.02C337.761 567.741 337.581 566.634 337.221 565.696C336.861 564.749 336.341 564.015 335.659 563.494C334.977 562.973 334.148 562.713 333.173 562.713C332.179 562.713 331.341 562.983 330.659 563.523C329.977 564.053 329.461 564.792 329.11 565.739C328.76 566.686 328.585 567.779 328.585 569.02C328.585 570.279 328.76 571.368 329.11 572.287C329.47 573.196 329.986 573.902 330.659 574.403C331.341 574.896 332.179 575.142 333.173 575.142ZM362.52 570.71V558.182H368.571V580H362.761V576.037H362.534C362.041 577.315 361.222 578.343 360.076 579.119C358.94 579.896 357.553 580.284 355.914 580.284C354.456 580.284 353.173 579.953 352.065 579.29C350.957 578.627 350.091 577.685 349.466 576.463C348.85 575.241 348.538 573.778 348.528 572.074V558.182H354.579V570.994C354.589 572.282 354.934 573.3 355.616 574.048C356.298 574.796 357.212 575.17 358.358 575.17C359.087 575.17 359.769 575.005 360.403 574.673C361.038 574.332 361.549 573.83 361.937 573.168C362.335 572.505 362.529 571.686 362.52 570.71ZM383.354 580.426C381.11 580.426 379.178 579.972 377.559 579.062C375.949 578.144 374.708 576.847 373.837 575.17C372.966 573.485 372.53 571.491 372.53 569.19C372.53 566.946 372.966 564.976 373.837 563.281C374.708 561.586 375.935 560.265 377.516 559.318C379.107 558.371 380.972 557.898 383.113 557.898C384.552 557.898 385.892 558.13 387.132 558.594C388.382 559.048 389.471 559.735 390.4 560.653C391.337 561.572 392.066 562.727 392.587 564.119C393.108 565.502 393.368 567.121 393.368 568.977V570.639H374.945V566.889H387.672C387.672 566.018 387.483 565.246 387.104 564.574C386.725 563.902 386.2 563.376 385.527 562.997C384.864 562.609 384.093 562.415 383.212 562.415C382.293 562.415 381.479 562.628 380.769 563.054C380.068 563.471 379.519 564.034 379.121 564.744C378.723 565.445 378.52 566.226 378.51 567.088V570.653C378.51 571.733 378.709 572.666 379.107 573.452C379.514 574.238 380.087 574.844 380.826 575.27C381.564 575.696 382.44 575.909 383.453 575.909C384.126 575.909 384.741 575.814 385.3 575.625C385.859 575.436 386.337 575.152 386.735 574.773C387.132 574.394 387.435 573.93 387.644 573.381L393.24 573.75C392.956 575.095 392.374 576.269 391.493 577.273C390.622 578.267 389.495 579.044 388.113 579.602C386.739 580.152 385.153 580.426 383.354 580.426ZM415.471 564.403L409.931 564.744C409.836 564.271 409.632 563.845 409.32 563.466C409.007 563.078 408.596 562.77 408.084 562.543C407.582 562.306 406.981 562.188 406.28 562.188C405.343 562.188 404.552 562.386 403.908 562.784C403.264 563.172 402.942 563.693 402.942 564.347C402.942 564.867 403.15 565.308 403.567 565.668C403.984 566.027 404.699 566.316 405.712 566.534L409.661 567.33C411.782 567.765 413.364 568.466 414.405 569.432C415.447 570.398 415.968 571.667 415.968 573.239C415.968 574.669 415.546 575.923 414.703 577.003C413.87 578.082 412.724 578.925 411.266 579.531C409.817 580.128 408.146 580.426 406.252 580.426C403.364 580.426 401.062 579.825 399.348 578.622C397.644 577.41 396.645 575.762 396.351 573.679L402.303 573.366C402.483 574.247 402.918 574.92 403.61 575.384C404.301 575.838 405.186 576.065 406.266 576.065C407.327 576.065 408.179 575.862 408.823 575.455C409.476 575.038 409.808 574.503 409.817 573.849C409.808 573.3 409.576 572.85 409.121 572.5C408.667 572.14 407.966 571.866 407.019 571.676L403.24 570.923C401.11 570.497 399.524 569.759 398.482 568.707C397.45 567.656 396.934 566.316 396.934 564.688C396.934 563.286 397.312 562.079 398.07 561.065C398.837 560.052 399.912 559.271 401.294 558.722C402.686 558.172 404.315 557.898 406.181 557.898C408.936 557.898 411.105 558.48 412.686 559.645C414.277 560.81 415.205 562.396 415.471 564.403ZM437.931 564.403L432.392 564.744C432.297 564.271 432.093 563.845 431.781 563.466C431.468 563.078 431.056 562.77 430.545 562.543C430.043 562.306 429.442 562.188 428.741 562.188C427.804 562.188 427.013 562.386 426.369 562.784C425.725 563.172 425.403 563.693 425.403 564.347C425.403 564.867 425.611 565.308 426.028 565.668C426.445 566.027 427.16 566.316 428.173 566.534L432.122 567.33C434.243 567.765 435.824 568.466 436.866 569.432C437.908 570.398 438.429 571.667 438.429 573.239C438.429 574.669 438.007 575.923 437.164 577.003C436.331 578.082 435.185 578.925 433.727 579.531C432.278 580.128 430.607 580.426 428.713 580.426C425.824 580.426 423.523 579.825 421.809 578.622C420.105 577.41 419.106 575.762 418.812 573.679L424.764 573.366C424.944 574.247 425.379 574.92 426.071 575.384C426.762 575.838 427.647 576.065 428.727 576.065C429.788 576.065 430.64 575.862 431.284 575.455C431.937 575.038 432.269 574.503 432.278 573.849C432.269 573.3 432.037 572.85 431.582 572.5C431.127 572.14 430.427 571.866 429.48 571.676L425.701 570.923C423.571 570.497 421.984 569.759 420.943 568.707C419.911 567.656 419.395 566.316 419.395 564.688C419.395 563.286 419.773 562.079 420.531 561.065C421.298 560.052 422.373 559.271 423.755 558.722C425.147 558.172 426.776 557.898 428.642 557.898C431.397 557.898 433.566 558.48 435.147 559.645C436.738 560.81 437.666 562.396 437.931 564.403ZM442.239 580V558.182H448.29V580H442.239ZM445.279 555.369C444.379 555.369 443.607 555.071 442.963 554.474C442.329 553.868 442.012 553.144 442.012 552.301C442.012 551.468 442.329 550.753 442.963 550.156C443.607 549.55 444.379 549.247 445.279 549.247C446.178 549.247 446.945 549.55 447.58 550.156C448.224 550.753 448.546 551.468 448.546 552.301C448.546 553.144 448.224 553.868 447.58 554.474C446.945 555.071 446.178 555.369 445.279 555.369ZM459.189 567.386V580H453.137V558.182H458.904V562.031H459.16C459.643 560.762 460.453 559.759 461.589 559.02C462.725 558.272 464.103 557.898 465.723 557.898C467.238 557.898 468.559 558.229 469.686 558.892C470.813 559.555 471.689 560.502 472.314 561.733C472.939 562.955 473.251 564.413 473.251 566.108V580H467.2V567.188C467.209 565.852 466.868 564.811 466.177 564.062C465.486 563.305 464.534 562.926 463.322 562.926C462.508 562.926 461.788 563.101 461.163 563.452C460.547 563.802 460.065 564.313 459.714 564.986C459.373 565.649 459.198 566.449 459.189 567.386ZM487.85 588.636C485.89 588.636 484.209 588.366 482.807 587.827C481.415 587.296 480.307 586.572 479.483 585.653C478.659 584.735 478.124 583.703 477.878 582.557L483.475 581.804C483.645 582.24 483.915 582.647 484.284 583.026C484.654 583.404 485.141 583.707 485.748 583.935C486.363 584.171 487.111 584.29 487.992 584.29C489.308 584.29 490.392 583.968 491.245 583.324C492.106 582.689 492.537 581.624 492.537 580.128V576.136H492.282C492.016 576.742 491.619 577.315 491.088 577.855C490.558 578.395 489.876 578.835 489.043 579.176C488.21 579.517 487.215 579.688 486.06 579.688C484.422 579.688 482.93 579.309 481.586 578.551C480.25 577.784 479.185 576.615 478.39 575.043C477.604 573.461 477.211 571.463 477.211 569.048C477.211 566.577 477.613 564.512 478.418 562.855C479.223 561.198 480.293 559.957 481.628 559.134C482.973 558.31 484.445 557.898 486.046 557.898C487.267 557.898 488.29 558.106 489.114 558.523C489.938 558.93 490.601 559.441 491.103 560.057C491.614 560.663 492.007 561.259 492.282 561.847H492.509V558.182H498.517V580.213C498.517 582.069 498.063 583.622 497.154 584.872C496.245 586.122 494.985 587.06 493.375 587.685C491.775 588.319 489.933 588.636 487.85 588.636ZM487.978 575.142C488.953 575.142 489.777 574.901 490.449 574.418C491.131 573.925 491.652 573.224 492.012 572.315C492.381 571.397 492.566 570.298 492.566 569.02C492.566 567.741 492.386 566.634 492.026 565.696C491.666 564.749 491.145 564.015 490.463 563.494C489.782 562.973 488.953 562.713 487.978 562.713C486.983 562.713 486.145 562.983 485.463 563.523C484.782 564.053 484.266 564.792 483.915 565.739C483.565 566.686 483.39 567.779 483.39 569.02C483.39 570.279 483.565 571.368 483.915 572.287C484.275 573.196 484.791 573.902 485.463 574.403C486.145 574.896 486.983 575.142 487.978 575.142ZM516.895 580L510.957 558.182H517.079L520.46 572.841H520.659L524.181 558.182H530.19L533.77 572.756H533.954L537.278 558.182H543.386L537.463 580H531.056L527.306 566.278H527.037L523.287 580H516.895ZM552.665 567.386V580H546.614V550.909H552.495V562.031H552.75C553.243 560.743 554.038 559.735 555.137 559.006C556.235 558.267 557.613 557.898 559.27 557.898C560.785 557.898 562.106 558.229 563.233 558.892C564.37 559.545 565.25 560.488 565.875 561.719C566.51 562.94 566.822 564.403 566.813 566.108V580H560.762V567.188C560.771 565.843 560.43 564.796 559.739 564.048C559.057 563.3 558.101 562.926 556.87 562.926C556.046 562.926 555.317 563.101 554.682 563.452C554.057 563.802 553.565 564.313 553.205 564.986C552.855 565.649 552.675 566.449 552.665 567.386ZM577.797 580.412C576.404 580.412 575.164 580.17 574.075 579.688C572.986 579.195 572.124 578.471 571.49 577.514C570.865 576.548 570.552 575.346 570.552 573.906C570.552 572.694 570.775 571.676 571.22 570.852C571.665 570.028 572.271 569.366 573.038 568.864C573.805 568.362 574.676 567.983 575.652 567.727C576.636 567.472 577.669 567.292 578.748 567.188C580.017 567.055 581.04 566.932 581.816 566.818C582.593 566.695 583.156 566.515 583.507 566.278C583.857 566.042 584.032 565.691 584.032 565.227V565.142C584.032 564.242 583.748 563.546 583.18 563.054C582.621 562.562 581.826 562.315 580.794 562.315C579.705 562.315 578.838 562.557 578.194 563.04C577.55 563.513 577.124 564.11 576.916 564.83L571.319 564.375C571.603 563.049 572.162 561.903 572.995 560.938C573.829 559.962 574.904 559.214 576.22 558.693C577.546 558.163 579.08 557.898 580.822 557.898C582.034 557.898 583.194 558.04 584.302 558.324C585.42 558.608 586.409 559.048 587.271 559.645C588.142 560.241 588.829 561.009 589.331 561.946C589.833 562.874 590.083 563.987 590.083 565.284V580H584.345V576.974H584.174C583.824 577.656 583.355 578.258 582.768 578.778C582.181 579.29 581.475 579.692 580.652 579.986C579.828 580.27 578.876 580.412 577.797 580.412ZM579.529 576.236C580.42 576.236 581.206 576.061 581.887 575.71C582.569 575.35 583.104 574.867 583.493 574.261C583.881 573.655 584.075 572.969 584.075 572.202V569.886C583.886 570.009 583.625 570.123 583.294 570.227C582.972 570.322 582.607 570.412 582.2 570.497C581.793 570.573 581.386 570.644 580.978 570.71C580.571 570.767 580.202 570.819 579.87 570.866C579.16 570.971 578.54 571.136 578.01 571.364C577.479 571.591 577.067 571.899 576.774 572.287C576.48 572.666 576.333 573.139 576.333 573.707C576.333 574.531 576.632 575.161 577.228 575.597C577.834 576.023 578.601 576.236 579.529 576.236ZM606.383 558.182V562.727H593.244V558.182H606.383ZM596.227 552.955H602.278V573.295C602.278 573.854 602.363 574.29 602.534 574.602C602.704 574.905 602.941 575.118 603.244 575.241C603.556 575.365 603.916 575.426 604.324 575.426C604.608 575.426 604.892 575.402 605.176 575.355C605.46 575.298 605.678 575.256 605.829 575.227L606.781 579.73C606.478 579.825 606.052 579.934 605.502 580.057C604.953 580.189 604.286 580.27 603.5 580.298C602.041 580.355 600.763 580.161 599.664 579.716C598.575 579.271 597.728 578.58 597.122 577.642C596.516 576.705 596.217 575.521 596.227 574.091V552.955ZM619.583 580V558.182H625.634V580H619.583ZM622.623 555.369C621.723 555.369 620.951 555.071 620.307 554.474C619.673 553.868 619.355 553.144 619.355 552.301C619.355 551.468 619.673 550.753 620.307 550.156C620.951 549.55 621.723 549.247 622.623 549.247C623.522 549.247 624.289 549.55 624.924 550.156C625.568 550.753 625.89 551.468 625.89 552.301C625.89 553.144 625.568 553.868 624.924 554.474C624.289 555.071 623.522 555.369 622.623 555.369ZM642.086 558.182V562.727H628.947V558.182H642.086ZM631.93 552.955H637.981V573.295C637.981 573.854 638.066 574.29 638.237 574.602C638.407 574.905 638.644 575.118 638.947 575.241C639.26 575.365 639.619 575.426 640.027 575.426C640.311 575.426 640.595 575.402 640.879 575.355C641.163 575.298 641.381 575.256 641.532 575.227L642.484 579.73C642.181 579.825 641.755 579.934 641.206 580.057C640.656 580.189 639.989 580.27 639.203 580.298C637.744 580.355 636.466 580.161 635.368 579.716C634.279 579.271 633.431 578.58 632.825 577.642C632.219 576.705 631.921 575.521 631.93 574.091V552.955ZM655.286 580V558.182H661.337V580H655.286ZM658.326 555.369C657.426 555.369 656.654 555.071 656.01 554.474C655.376 553.868 655.059 553.144 655.059 552.301C655.059 551.468 655.376 550.753 656.01 550.156C656.654 549.55 657.426 549.247 658.326 549.247C659.225 549.247 659.992 549.55 660.627 550.156C661.271 550.753 661.593 551.468 661.593 552.301C661.593 553.144 661.271 553.868 660.627 554.474C659.992 555.071 659.225 555.369 658.326 555.369ZM684.338 564.403L678.798 564.744C678.703 564.271 678.5 563.845 678.187 563.466C677.875 563.078 677.463 562.77 676.951 562.543C676.449 562.306 675.848 562.188 675.147 562.188C674.21 562.188 673.419 562.386 672.775 562.784C672.131 563.172 671.809 563.693 671.809 564.347C671.809 564.867 672.018 565.308 672.434 565.668C672.851 566.027 673.566 566.316 674.579 566.534L678.528 567.33C680.649 567.765 682.231 568.466 683.272 569.432C684.314 570.398 684.835 571.667 684.835 573.239C684.835 574.669 684.413 575.923 683.571 577.003C682.737 578.082 681.592 578.925 680.133 579.531C678.684 580.128 677.013 580.426 675.119 580.426C672.231 580.426 669.93 579.825 668.216 578.622C666.511 577.41 665.512 575.762 665.218 573.679L671.17 573.366C671.35 574.247 671.786 574.92 672.477 575.384C673.168 575.838 674.054 576.065 675.133 576.065C676.194 576.065 677.046 575.862 677.69 575.455C678.343 575.038 678.675 574.503 678.684 573.849C678.675 573.3 678.443 572.85 677.988 572.5C677.534 572.14 676.833 571.866 675.886 571.676L672.108 570.923C669.977 570.497 668.391 569.759 667.349 568.707C666.317 567.656 665.801 566.316 665.801 564.688C665.801 563.286 666.18 562.079 666.937 561.065C667.704 560.052 668.779 559.271 670.162 558.722C671.554 558.172 673.182 557.898 675.048 557.898C677.804 557.898 679.972 558.48 681.554 559.645C683.145 560.81 684.073 562.396 684.338 564.403ZM695.875 550.909L695.321 571.278H690.123L689.554 550.909H695.875ZM692.722 580.369C691.784 580.369 690.98 580.038 690.307 579.375C689.635 578.703 689.303 577.898 689.313 576.96C689.303 576.032 689.635 575.237 690.307 574.574C690.98 573.911 691.784 573.58 692.722 573.58C693.622 573.58 694.412 573.911 695.094 574.574C695.776 575.237 696.122 576.032 696.131 576.96C696.122 577.585 695.956 578.158 695.634 578.679C695.321 579.19 694.909 579.602 694.398 579.915C693.887 580.218 693.328 580.369 692.722 580.369Z" fill="#9DA3CB"/>
<path d="M594.5 283.5C605.184 283.5 615.431 279.259 622.986 271.711C630.541 264.163 634.786 253.925 634.786 243.25C634.786 232.575 630.541 222.337 622.986 214.789C615.431 207.241 605.184 203 594.5 203C583.816 203 573.569 207.241 566.014 214.789C558.459 222.337 554.214 232.575 554.214 243.25C554.214 253.925 558.459 264.163 566.014 271.711C573.569 279.259 583.816 283.5 594.5 283.5ZM580.117 298.594C549.116 298.594 524 323.687 524 354.661C524 359.818 528.186 364 533.348 364H655.652C660.814 364 665 359.818 665 354.661C665 323.687 639.884 298.594 608.883 298.594H580.117Z" fill="#494E8A"/>
<path d="M397.5 283.5C408.184 283.5 418.431 279.259 425.986 271.711C433.541 264.163 437.786 253.925 437.786 243.25C437.786 232.575 433.541 222.337 425.986 214.789C418.431 207.241 408.184 203 397.5 203C386.816 203 376.569 207.241 369.014 214.789C361.459 222.337 357.214 232.575 357.214 243.25C357.214 253.925 361.459 264.163 369.014 271.711C376.569 279.259 386.816 283.5 397.5 283.5ZM383.117 298.594C352.116 298.594 327 323.687 327 354.661C327 359.818 331.186 364 336.348 364H458.652C463.814 364 468 359.818 468 354.661C468 323.687 442.884 298.594 411.883 298.594H383.117Z" fill="#494E8A"/>
<path d="M502.5 313.5C513.184 313.5 523.431 309.259 530.986 301.711C538.541 294.163 542.786 283.925 542.786 273.25C542.786 262.575 538.541 252.337 530.986 244.789C523.431 237.241 513.184 233 502.5 233C491.816 233 481.569 237.241 474.014 244.789C466.459 252.337 462.214 262.575 462.214 273.25C462.214 283.925 466.459 294.163 474.014 301.711C481.569 309.259 491.816 313.5 502.5 313.5ZM488.117 328.594C457.116 328.594 432 353.687 432 384.661C432 389.818 436.186 394 441.348 394H563.652C568.814 394 573 389.818 573 384.661C573 353.687 547.884 328.594 516.883 328.594H488.117Z" fill="#9DA3CB"/>
<path d="M837 179.643C837 218.114 798.504 249.286 751.005 249.286C738.542 249.286 726.718 247.143 716.036 243.292C712.038 246.205 705.522 250.19 697.796 253.538C689.734 257.02 680.025 260 670.385 260C668.201 260 666.253 258.694 665.413 256.685C664.573 254.676 665.044 252.4 666.555 250.859L666.656 250.759C666.757 250.658 666.891 250.525 667.093 250.29C667.462 249.888 668.033 249.252 668.739 248.382C670.116 246.708 671.963 244.23 673.845 241.15C677.204 235.592 680.395 228.292 681.033 220.089C670.956 208.705 665.01 194.743 665.01 179.643C665.01 141.172 703.506 110 751.005 110C798.504 110 837 141.172 837 179.643Z" fill="white"/>
<path d="M155 179.643C155 218.114 193.496 249.286 240.995 249.286C253.458 249.286 265.282 247.143 275.964 243.292C279.962 246.205 286.478 250.19 294.204 253.538C302.266 257.02 311.975 260 321.615 260C323.799 260 325.747 258.694 326.587 256.685C327.427 254.676 326.956 252.4 325.445 250.859L325.344 250.759C325.243 250.658 325.109 250.525 324.907 250.29C324.538 249.888 323.967 249.252 323.261 248.382C321.884 246.708 320.037 244.23 318.155 241.15C314.796 235.592 311.605 228.292 310.967 220.089C321.044 208.705 326.99 194.743 326.99 179.643C326.99 141.172 288.494 110 240.995 110C193.496 110 155 141.172 155 179.643Z" fill="white"/>
</svg>
