<svg width="978" height="656" viewBox="0 0 978 656" fill="none" xmlns="http://www.w3.org/2000/svg">
<rect width="978" height="656" rx="30" fill="#1B1C24"/>
<path d="M245.655 488L237.331 458.909H244.05L248.865 479.122H249.107L254.419 458.909H260.172L265.47 479.165H265.726L270.541 458.909H277.26L268.936 488H262.942L257.402 468.98H257.175L251.649 488H245.655ZM286.489 475.386V488H280.438V458.909H286.319V470.031H286.575C287.067 468.743 287.862 467.735 288.961 467.006C290.059 466.267 291.437 465.898 293.094 465.898C294.61 465.898 295.931 466.229 297.058 466.892C298.194 467.545 299.075 468.488 299.7 469.719C300.334 470.94 300.647 472.403 300.637 474.108V488H294.586V475.188C294.595 473.843 294.254 472.796 293.563 472.048C292.881 471.3 291.925 470.926 290.694 470.926C289.87 470.926 289.141 471.101 288.506 471.452C287.881 471.802 287.389 472.313 287.029 472.986C286.679 473.649 286.499 474.449 286.489 475.386ZM315.342 488.426C313.098 488.426 311.166 487.972 309.547 487.062C307.937 486.144 306.696 484.847 305.825 483.17C304.954 481.485 304.518 479.491 304.518 477.19C304.518 474.946 304.954 472.976 305.825 471.281C306.696 469.586 307.923 468.265 309.504 467.318C311.095 466.371 312.961 465.898 315.101 465.898C316.54 465.898 317.88 466.13 319.121 466.594C320.371 467.048 321.46 467.735 322.388 468.653C323.325 469.572 324.054 470.727 324.575 472.119C325.096 473.502 325.357 475.121 325.357 476.977V478.639H306.933V474.889H319.661C319.661 474.018 319.471 473.246 319.092 472.574C318.714 471.902 318.188 471.376 317.516 470.997C316.853 470.609 316.081 470.415 315.2 470.415C314.282 470.415 313.467 470.628 312.757 471.054C312.056 471.471 311.507 472.034 311.109 472.744C310.712 473.445 310.508 474.226 310.499 475.088V478.653C310.499 479.733 310.697 480.666 311.095 481.452C311.502 482.238 312.075 482.844 312.814 483.27C313.553 483.696 314.429 483.909 315.442 483.909C316.114 483.909 316.73 483.814 317.288 483.625C317.847 483.436 318.325 483.152 318.723 482.773C319.121 482.394 319.424 481.93 319.632 481.381L325.229 481.75C324.945 483.095 324.362 484.269 323.482 485.273C322.61 486.267 321.483 487.044 320.101 487.602C318.728 488.152 317.142 488.426 315.342 488.426ZM335.357 475.386V488H329.305V466.182H335.072V470.031H335.328C335.811 468.762 336.621 467.759 337.757 467.02C338.893 466.272 340.271 465.898 341.891 465.898C343.406 465.898 344.727 466.229 345.854 466.892C346.981 467.555 347.857 468.502 348.482 469.733C349.107 470.955 349.419 472.413 349.419 474.108V488H343.368V475.188C343.377 473.852 343.036 472.811 342.345 472.062C341.654 471.305 340.702 470.926 339.49 470.926C338.676 470.926 337.956 471.101 337.331 471.452C336.715 471.802 336.232 472.313 335.882 472.986C335.541 473.649 335.366 474.449 335.357 475.386ZM363.446 488V466.182H369.497V488H363.446ZM366.486 463.369C365.586 463.369 364.814 463.071 364.17 462.474C363.536 461.868 363.219 461.144 363.219 460.301C363.219 459.468 363.536 458.753 364.17 458.156C364.814 457.55 365.586 457.247 366.486 457.247C367.385 457.247 368.152 457.55 368.787 458.156C369.431 458.753 369.753 459.468 369.753 460.301C369.753 461.144 369.431 461.868 368.787 462.474C368.152 463.071 367.385 463.369 366.486 463.369ZM385.95 466.182V470.727H372.81V466.182H385.95ZM375.793 460.955H381.844V481.295C381.844 481.854 381.93 482.29 382.1 482.602C382.271 482.905 382.507 483.118 382.81 483.241C383.123 483.365 383.483 483.426 383.89 483.426C384.174 483.426 384.458 483.402 384.742 483.355C385.026 483.298 385.244 483.256 385.396 483.227L386.347 487.73C386.044 487.825 385.618 487.934 385.069 488.057C384.52 488.189 383.852 488.27 383.066 488.298C381.608 488.355 380.329 488.161 379.231 487.716C378.142 487.271 377.294 486.58 376.688 485.642C376.082 484.705 375.784 483.521 375.793 482.091V460.955ZM395.939 458.909V461.977C395.939 462.848 395.768 463.739 395.428 464.648C395.096 465.547 394.651 466.4 394.092 467.205C393.534 468 392.923 468.677 392.26 469.236L389.589 467.659C390.063 466.911 390.48 466.082 390.839 465.173C391.209 464.264 391.393 463.208 391.393 462.006V458.909H395.939ZM415.388 472.403L409.849 472.744C409.754 472.271 409.55 471.845 409.238 471.466C408.925 471.078 408.513 470.77 408.002 470.543C407.5 470.306 406.899 470.188 406.198 470.188C405.261 470.188 404.47 470.386 403.826 470.784C403.182 471.172 402.86 471.693 402.86 472.347C402.86 472.867 403.068 473.308 403.485 473.668C403.902 474.027 404.617 474.316 405.63 474.534L409.579 475.33C411.7 475.765 413.281 476.466 414.323 477.432C415.365 478.398 415.886 479.667 415.886 481.239C415.886 482.669 415.464 483.923 414.621 485.003C413.788 486.082 412.642 486.925 411.184 487.531C409.735 488.128 408.064 488.426 406.17 488.426C403.281 488.426 400.98 487.825 399.266 486.622C397.562 485.41 396.563 483.762 396.269 481.679L402.221 481.366C402.401 482.247 402.836 482.92 403.528 483.384C404.219 483.838 405.104 484.065 406.184 484.065C407.245 484.065 408.097 483.862 408.741 483.455C409.394 483.038 409.726 482.503 409.735 481.849C409.726 481.3 409.494 480.85 409.039 480.5C408.585 480.14 407.884 479.866 406.937 479.676L403.158 478.923C401.028 478.497 399.442 477.759 398.4 476.707C397.368 475.656 396.852 474.316 396.852 472.688C396.852 471.286 397.23 470.079 397.988 469.065C398.755 468.052 399.83 467.271 401.212 466.722C402.604 466.172 404.233 465.898 406.099 465.898C408.854 465.898 411.023 466.48 412.604 467.645C414.195 468.81 415.123 470.396 415.388 472.403ZM432.69 496.182C431.923 496.182 431.203 496.12 430.531 495.997C429.868 495.884 429.318 495.737 428.883 495.557L430.246 491.04C430.957 491.258 431.596 491.376 432.164 491.395C432.742 491.414 433.239 491.281 433.656 490.997C434.082 490.713 434.427 490.23 434.692 489.548L435.048 488.625L427.221 466.182H433.585L438.102 482.205H438.329L442.888 466.182H449.295L440.815 490.358C440.407 491.532 439.853 492.555 439.153 493.426C438.461 494.307 437.585 494.984 436.525 495.457C435.464 495.94 434.186 496.182 432.69 496.182ZM461.546 488.426C459.34 488.426 457.432 487.957 455.822 487.02C454.221 486.073 452.986 484.757 452.114 483.071C451.243 481.376 450.808 479.411 450.808 477.176C450.808 474.922 451.243 472.953 452.114 471.267C452.986 469.572 454.221 468.256 455.822 467.318C457.432 466.371 459.34 465.898 461.546 465.898C463.753 465.898 465.656 466.371 467.256 467.318C468.866 468.256 470.107 469.572 470.978 471.267C471.849 472.953 472.285 474.922 472.285 477.176C472.285 479.411 471.849 481.376 470.978 483.071C470.107 484.757 468.866 486.073 467.256 487.02C465.656 487.957 463.753 488.426 461.546 488.426ZM461.575 483.739C462.578 483.739 463.416 483.455 464.089 482.886C464.761 482.309 465.268 481.523 465.609 480.528C465.959 479.534 466.134 478.402 466.134 477.134C466.134 475.865 465.959 474.733 465.609 473.739C465.268 472.744 464.761 471.958 464.089 471.381C463.416 470.803 462.578 470.514 461.575 470.514C460.561 470.514 459.709 470.803 459.018 471.381C458.336 471.958 457.82 472.744 457.469 473.739C457.129 474.733 456.958 475.865 456.958 477.134C456.958 478.402 457.129 479.534 457.469 480.528C457.82 481.523 458.336 482.309 459.018 482.886C459.709 483.455 460.561 483.739 461.575 483.739ZM490.211 478.71V466.182H496.262V488H490.452V484.037H490.225C489.733 485.315 488.914 486.343 487.768 487.119C486.631 487.896 485.244 488.284 483.606 488.284C482.147 488.284 480.864 487.953 479.756 487.29C478.648 486.627 477.782 485.685 477.157 484.463C476.541 483.241 476.229 481.778 476.219 480.074V466.182H482.271V478.994C482.28 480.282 482.626 481.3 483.308 482.048C483.989 482.796 484.903 483.17 486.049 483.17C486.778 483.17 487.46 483.005 488.094 482.673C488.729 482.332 489.24 481.83 489.629 481.168C490.026 480.505 490.22 479.686 490.211 478.71ZM501.102 488V466.182H506.969V469.989H507.196C507.594 468.634 508.261 467.612 509.199 466.92C510.136 466.22 511.216 465.869 512.438 465.869C512.741 465.869 513.067 465.888 513.418 465.926C513.768 465.964 514.076 466.016 514.341 466.082V471.452C514.057 471.366 513.664 471.291 513.162 471.224C512.66 471.158 512.201 471.125 511.784 471.125C510.894 471.125 510.098 471.319 509.398 471.707C508.706 472.086 508.157 472.616 507.75 473.298C507.352 473.98 507.153 474.766 507.153 475.656V488H501.102ZM538.332 466.182V470.727H525.193V466.182H538.332ZM528.176 460.955H534.227V481.295C534.227 481.854 534.313 482.29 534.483 482.602C534.653 482.905 534.89 483.118 535.193 483.241C535.506 483.365 535.866 483.426 536.273 483.426C536.557 483.426 536.841 483.402 537.125 483.355C537.409 483.298 537.627 483.256 537.778 483.227L538.73 487.73C538.427 487.825 538.001 487.934 537.452 488.057C536.902 488.189 536.235 488.27 535.449 488.298C533.991 488.355 532.712 488.161 531.614 487.716C530.525 487.271 529.677 486.58 529.071 485.642C528.465 484.705 528.167 483.521 528.176 482.091V460.955ZM556.266 478.71V466.182H562.317V488H556.507V484.037H556.28C555.787 485.315 554.968 486.343 553.822 487.119C552.686 487.896 551.299 488.284 549.661 488.284C548.202 488.284 546.919 487.953 545.811 487.29C544.703 486.627 543.837 485.685 543.212 484.463C542.596 483.241 542.284 481.778 542.274 480.074V466.182H548.325V478.994C548.335 480.282 548.68 481.3 549.362 482.048C550.044 482.796 550.958 483.17 552.104 483.17C552.833 483.17 553.515 483.005 554.149 482.673C554.784 482.332 555.295 481.83 555.683 481.168C556.081 480.505 556.275 479.686 556.266 478.71ZM567.157 488V466.182H573.023V469.989H573.251C573.648 468.634 574.316 467.612 575.254 466.92C576.191 466.22 577.271 465.869 578.492 465.869C578.795 465.869 579.122 465.888 579.472 465.926C579.823 465.964 580.13 466.016 580.396 466.082V471.452C580.112 471.366 579.719 471.291 579.217 471.224C578.715 471.158 578.255 471.125 577.839 471.125C576.949 471.125 576.153 471.319 575.452 471.707C574.761 472.086 574.212 472.616 573.805 473.298C573.407 473.98 573.208 474.766 573.208 475.656V488H567.157ZM589.575 475.386V488H583.524V466.182H589.291V470.031H589.547C590.03 468.762 590.839 467.759 591.976 467.02C593.112 466.272 594.49 465.898 596.109 465.898C597.625 465.898 598.946 466.229 600.072 466.892C601.199 467.555 602.075 468.502 602.7 469.733C603.325 470.955 603.638 472.413 603.638 474.108V488H597.587V475.188C597.596 473.852 597.255 472.811 596.564 472.062C595.873 471.305 594.921 470.926 593.709 470.926C592.894 470.926 592.175 471.101 591.55 471.452C590.934 471.802 590.451 472.313 590.101 472.986C589.76 473.649 589.585 474.449 589.575 475.386ZM614.984 484.023L614.827 485.585C614.704 486.835 614.468 488.08 614.117 489.321C613.776 490.571 613.416 491.703 613.038 492.716C612.668 493.729 612.37 494.525 612.143 495.102H608.222C608.364 494.544 608.558 493.762 608.805 492.759C609.051 491.764 609.283 490.647 609.501 489.406C609.719 488.166 609.856 486.902 609.913 485.614L609.984 484.023H614.984ZM628.407 496.182V466.182H634.373V469.847H634.643C634.908 469.259 635.291 468.663 635.793 468.057C636.305 467.441 636.968 466.93 637.782 466.523C638.606 466.106 639.629 465.898 640.85 465.898C642.441 465.898 643.909 466.314 645.254 467.148C646.598 467.972 647.673 469.217 648.478 470.884C649.283 472.541 649.685 474.619 649.685 477.119C649.685 479.553 649.292 481.608 648.506 483.284C647.73 484.951 646.669 486.215 645.325 487.077C643.989 487.929 642.493 488.355 640.836 488.355C639.662 488.355 638.663 488.161 637.839 487.773C637.024 487.384 636.357 486.897 635.836 486.31C635.315 485.713 634.917 485.112 634.643 484.506H634.458V496.182H628.407ZM634.33 477.091C634.33 478.388 634.51 479.52 634.87 480.486C635.23 481.452 635.751 482.205 636.433 482.744C637.114 483.275 637.943 483.54 638.918 483.54C639.903 483.54 640.737 483.27 641.418 482.73C642.1 482.181 642.616 481.423 642.967 480.457C643.326 479.482 643.506 478.36 643.506 477.091C643.506 475.831 643.331 474.723 642.981 473.767C642.63 472.811 642.114 472.062 641.433 471.523C640.751 470.983 639.913 470.713 638.918 470.713C637.933 470.713 637.1 470.973 636.418 471.494C635.746 472.015 635.23 472.754 634.87 473.71C634.51 474.667 634.33 475.794 634.33 477.091ZM653.719 488V466.182H659.771V488H653.719ZM656.759 463.369C655.86 463.369 655.088 463.071 654.444 462.474C653.809 461.868 653.492 461.144 653.492 460.301C653.492 459.468 653.809 458.753 654.444 458.156C655.088 457.55 655.86 457.247 656.759 457.247C657.659 457.247 658.426 457.55 659.06 458.156C659.704 458.753 660.026 459.468 660.026 460.301C660.026 461.144 659.704 461.868 659.06 462.474C658.426 463.071 657.659 463.369 656.759 463.369ZM674.476 488.426C672.241 488.426 670.319 487.953 668.709 487.006C667.108 486.049 665.877 484.723 665.016 483.028C664.163 481.333 663.737 479.383 663.737 477.176C663.737 474.941 664.168 472.981 665.03 471.295C665.901 469.6 667.137 468.279 668.737 467.332C670.338 466.376 672.241 465.898 674.447 465.898C676.351 465.898 678.018 466.243 679.447 466.935C680.877 467.626 682.009 468.597 682.842 469.847C683.676 471.097 684.135 472.564 684.22 474.25H678.51C678.349 473.161 677.923 472.285 677.232 471.622C676.55 470.95 675.655 470.614 674.547 470.614C673.609 470.614 672.79 470.869 672.089 471.381C671.398 471.883 670.858 472.616 670.47 473.582C670.082 474.548 669.888 475.718 669.888 477.091C669.888 478.483 670.077 479.667 670.456 480.642C670.844 481.617 671.389 482.361 672.089 482.872C672.79 483.384 673.609 483.639 674.547 483.639C675.238 483.639 675.858 483.497 676.408 483.213C676.966 482.929 677.426 482.517 677.786 481.977C678.155 481.428 678.396 480.77 678.51 480.003H684.22C684.125 481.67 683.671 483.137 682.857 484.406C682.052 485.666 680.939 486.651 679.518 487.361C678.098 488.071 676.417 488.426 674.476 488.426ZM693.577 481.722L693.592 474.463H694.472L701.461 466.182H708.407L699.018 477.148H697.583L693.577 481.722ZM688.094 488V458.909H694.146V488H688.094ZM701.731 488L695.31 478.497L699.344 474.222L708.819 488H701.731ZM726.855 488.412C725.463 488.412 724.223 488.17 723.134 487.688C722.045 487.195 721.183 486.471 720.548 485.514C719.923 484.548 719.611 483.346 719.611 481.906C719.611 480.694 719.833 479.676 720.278 478.852C720.723 478.028 721.33 477.366 722.097 476.864C722.864 476.362 723.735 475.983 724.71 475.727C725.695 475.472 726.727 475.292 727.807 475.188C729.076 475.055 730.098 474.932 730.875 474.818C731.652 474.695 732.215 474.515 732.565 474.278C732.916 474.042 733.091 473.691 733.091 473.227V473.142C733.091 472.242 732.807 471.546 732.239 471.054C731.68 470.562 730.884 470.315 729.852 470.315C728.763 470.315 727.897 470.557 727.253 471.04C726.609 471.513 726.183 472.11 725.974 472.83L720.378 472.375C720.662 471.049 721.221 469.903 722.054 468.938C722.887 467.962 723.962 467.214 725.278 466.693C726.604 466.163 728.138 465.898 729.881 465.898C731.093 465.898 732.253 466.04 733.361 466.324C734.478 466.608 735.468 467.048 736.33 467.645C737.201 468.241 737.887 469.009 738.389 469.946C738.891 470.874 739.142 471.987 739.142 473.284V488H733.403V484.974H733.233C732.883 485.656 732.414 486.258 731.827 486.778C731.24 487.29 730.534 487.692 729.71 487.986C728.886 488.27 727.935 488.412 726.855 488.412ZM728.588 484.236C729.478 484.236 730.264 484.061 730.946 483.71C731.628 483.35 732.163 482.867 732.551 482.261C732.939 481.655 733.134 480.969 733.134 480.202V477.886C732.944 478.009 732.684 478.123 732.352 478.227C732.03 478.322 731.666 478.412 731.259 478.497C730.851 478.573 730.444 478.644 730.037 478.71C729.63 478.767 729.26 478.819 728.929 478.866C728.219 478.971 727.598 479.136 727.068 479.364C726.538 479.591 726.126 479.899 725.832 480.287C725.539 480.666 725.392 481.139 725.392 481.707C725.392 482.531 725.69 483.161 726.287 483.597C726.893 484.023 727.66 484.236 728.588 484.236ZM228.968 514.182V518.727H215.502V514.182H228.968ZM218.585 536V512.605C218.585 511.024 218.892 509.712 219.508 508.67C220.133 507.629 220.985 506.848 222.065 506.327C223.144 505.806 224.371 505.545 225.744 505.545C226.672 505.545 227.519 505.616 228.286 505.759C229.063 505.901 229.64 506.028 230.019 506.142L228.94 510.688C228.703 510.612 228.409 510.541 228.059 510.474C227.718 510.408 227.368 510.375 227.008 510.375C226.118 510.375 225.497 510.583 225.147 511C224.797 511.407 224.621 511.98 224.621 512.719V536H218.585ZM246.656 526.71V514.182H252.707V536H246.898V532.037H246.67C246.178 533.315 245.359 534.343 244.213 535.119C243.077 535.896 241.689 536.284 240.051 536.284C238.593 536.284 237.31 535.953 236.202 535.29C235.094 534.627 234.227 533.685 233.602 532.463C232.987 531.241 232.674 529.778 232.665 528.074V514.182H238.716V526.994C238.725 528.282 239.071 529.3 239.753 530.048C240.435 530.796 241.348 531.17 242.494 531.17C243.223 531.17 243.905 531.005 244.54 530.673C245.174 530.332 245.686 529.83 246.074 529.168C246.472 528.505 246.666 527.686 246.656 526.71ZM263.599 523.386V536H257.548V514.182H263.315V518.031H263.57C264.053 516.762 264.863 515.759 265.999 515.02C267.136 514.272 268.513 513.898 270.133 513.898C271.648 513.898 272.969 514.229 274.096 514.892C275.223 515.555 276.099 516.502 276.724 517.733C277.349 518.955 277.661 520.413 277.661 522.108V536H271.61V523.188C271.62 521.852 271.279 520.811 270.587 520.062C269.896 519.305 268.944 518.926 267.732 518.926C266.918 518.926 266.198 519.101 265.573 519.452C264.958 519.802 264.475 520.313 264.124 520.986C263.783 521.649 263.608 522.449 263.599 523.386ZM295.992 536L290.055 514.182H296.177L299.558 528.841H299.756L303.279 514.182H309.288L312.867 528.756H313.052L316.376 514.182H322.484L316.56 536H310.154L306.404 522.278H306.134L302.384 536H295.992ZM335.023 536.426C332.816 536.426 330.908 535.957 329.298 535.02C327.698 534.073 326.462 532.757 325.591 531.071C324.72 529.376 324.284 527.411 324.284 525.176C324.284 522.922 324.72 520.953 325.591 519.267C326.462 517.572 327.698 516.256 329.298 515.318C330.908 514.371 332.816 513.898 335.023 513.898C337.229 513.898 339.133 514.371 340.733 515.318C342.343 516.256 343.583 517.572 344.455 519.267C345.326 520.953 345.761 522.922 345.761 525.176C345.761 527.411 345.326 529.376 344.455 531.071C343.583 532.757 342.343 534.073 340.733 535.02C339.133 535.957 337.229 536.426 335.023 536.426ZM335.051 531.739C336.055 531.739 336.893 531.455 337.565 530.886C338.238 530.309 338.744 529.523 339.085 528.528C339.436 527.534 339.611 526.402 339.611 525.134C339.611 523.865 339.436 522.733 339.085 521.739C338.744 520.744 338.238 519.958 337.565 519.381C336.893 518.803 336.055 518.514 335.051 518.514C334.038 518.514 333.186 518.803 332.494 519.381C331.813 519.958 331.296 520.744 330.946 521.739C330.605 522.733 330.435 523.865 330.435 525.134C330.435 526.402 330.605 527.534 330.946 528.528C331.296 529.523 331.813 530.309 332.494 530.886C333.186 531.455 334.038 531.739 335.051 531.739ZM349.696 536V514.182H355.562V517.989H355.79C356.188 516.634 356.855 515.612 357.793 514.92C358.73 514.22 359.81 513.869 361.031 513.869C361.334 513.869 361.661 513.888 362.011 513.926C362.362 513.964 362.67 514.016 362.935 514.082V519.452C362.651 519.366 362.258 519.291 361.756 519.224C361.254 519.158 360.795 519.125 360.378 519.125C359.488 519.125 358.692 519.319 357.991 519.707C357.3 520.086 356.751 520.616 356.344 521.298C355.946 521.98 355.747 522.766 355.747 523.656V536H349.696ZM373.087 536.355C371.43 536.355 369.929 535.929 368.585 535.077C367.249 534.215 366.189 532.951 365.403 531.284C364.626 529.608 364.238 527.553 364.238 525.119C364.238 522.619 364.64 520.541 365.445 518.884C366.25 517.217 367.32 515.972 368.656 515.148C370 514.314 371.473 513.898 373.073 513.898C374.295 513.898 375.313 514.106 376.127 514.523C376.951 514.93 377.614 515.441 378.116 516.057C378.627 516.663 379.015 517.259 379.281 517.847H379.465V506.909H385.502V536H379.536V532.506H379.281C378.996 533.112 378.594 533.713 378.073 534.31C377.562 534.897 376.894 535.384 376.07 535.773C375.256 536.161 374.262 536.355 373.087 536.355ZM375.005 531.54C375.98 531.54 376.804 531.275 377.477 530.744C378.158 530.205 378.679 529.452 379.039 528.486C379.408 527.52 379.593 526.388 379.593 525.091C379.593 523.794 379.413 522.667 379.053 521.71C378.693 520.754 378.173 520.015 377.491 519.494C376.809 518.973 375.98 518.713 375.005 518.713C374.011 518.713 373.173 518.983 372.491 519.523C371.809 520.062 371.293 520.811 370.942 521.767C370.592 522.723 370.417 523.831 370.417 525.091C370.417 526.36 370.592 527.482 370.942 528.457C371.302 529.423 371.818 530.181 372.491 530.73C373.173 531.27 374.011 531.54 375.005 531.54ZM411.34 514.182V518.727H398.201V514.182H411.34ZM401.184 508.955H407.235V529.295C407.235 529.854 407.32 530.29 407.491 530.602C407.661 530.905 407.898 531.118 408.201 531.241C408.513 531.365 408.873 531.426 409.281 531.426C409.565 531.426 409.849 531.402 410.133 531.355C410.417 531.298 410.635 531.256 410.786 531.227L411.738 535.73C411.435 535.825 411.009 535.934 410.46 536.057C409.91 536.189 409.243 536.27 408.457 536.298C406.998 536.355 405.72 536.161 404.621 535.716C403.532 535.271 402.685 534.58 402.079 533.642C401.473 532.705 401.174 531.521 401.184 530.091V508.955ZM424.906 536.426C422.699 536.426 420.791 535.957 419.181 535.02C417.581 534.073 416.345 532.757 415.474 531.071C414.603 529.376 414.167 527.411 414.167 525.176C414.167 522.922 414.603 520.953 415.474 519.267C416.345 517.572 417.581 516.256 419.181 515.318C420.791 514.371 422.699 513.898 424.906 513.898C427.112 513.898 429.015 514.371 430.616 515.318C432.226 516.256 433.466 517.572 434.337 519.267C435.209 520.953 435.644 522.922 435.644 525.176C435.644 527.411 435.209 529.376 434.337 531.071C433.466 532.757 432.226 534.073 430.616 535.02C429.015 535.957 427.112 536.426 424.906 536.426ZM424.934 531.739C425.938 531.739 426.776 531.455 427.448 530.886C428.121 530.309 428.627 529.523 428.968 528.528C429.318 527.534 429.494 526.402 429.494 525.134C429.494 523.865 429.318 522.733 428.968 521.739C428.627 520.744 428.121 519.958 427.448 519.381C426.776 518.803 425.938 518.514 424.934 518.514C423.921 518.514 423.068 518.803 422.377 519.381C421.695 519.958 421.179 520.744 420.829 521.739C420.488 522.733 420.317 523.865 420.317 525.134C420.317 526.402 420.488 527.534 420.829 528.528C421.179 529.523 421.695 530.309 422.377 530.886C423.068 531.455 423.921 531.739 424.934 531.739ZM448.95 536V506.909H455.001V517.847H455.186C455.451 517.259 455.835 516.663 456.337 516.057C456.848 515.441 457.511 514.93 458.325 514.523C459.149 514.106 460.172 513.898 461.393 513.898C462.984 513.898 464.452 514.314 465.797 515.148C467.142 515.972 468.216 517.217 469.021 518.884C469.826 520.541 470.229 522.619 470.229 525.119C470.229 527.553 469.836 529.608 469.05 531.284C468.273 532.951 467.213 534.215 465.868 535.077C464.533 535.929 463.036 536.355 461.379 536.355C460.205 536.355 459.206 536.161 458.382 535.773C457.568 535.384 456.9 534.897 456.379 534.31C455.858 533.713 455.461 533.112 455.186 532.506H454.916V536H448.95ZM454.874 525.091C454.874 526.388 455.054 527.52 455.413 528.486C455.773 529.452 456.294 530.205 456.976 530.744C457.658 531.275 458.486 531.54 459.462 531.54C460.446 531.54 461.28 531.27 461.962 530.73C462.643 530.181 463.16 529.423 463.51 528.457C463.87 527.482 464.05 526.36 464.05 525.091C464.05 523.831 463.875 522.723 463.524 521.767C463.174 520.811 462.658 520.062 461.976 519.523C461.294 518.983 460.456 518.713 459.462 518.713C458.477 518.713 457.643 518.973 456.962 519.494C456.289 520.015 455.773 520.754 455.413 521.71C455.054 522.667 454.874 523.794 454.874 525.091ZM474.266 536V514.182H480.133V517.989H480.36C480.758 516.634 481.425 515.612 482.363 514.92C483.3 514.22 484.38 513.869 485.602 513.869C485.905 513.869 486.231 513.888 486.582 513.926C486.932 513.964 487.24 514.016 487.505 514.082V519.452C487.221 519.366 486.828 519.291 486.326 519.224C485.824 519.158 485.365 519.125 484.948 519.125C484.058 519.125 483.263 519.319 482.562 519.707C481.871 520.086 481.321 520.616 480.914 521.298C480.516 521.98 480.317 522.766 480.317 523.656V536H474.266ZM490.634 536V514.182H496.685V536H490.634ZM493.673 511.369C492.774 511.369 492.002 511.071 491.358 510.474C490.723 509.868 490.406 509.144 490.406 508.301C490.406 507.468 490.723 506.753 491.358 506.156C492.002 505.55 492.774 505.247 493.673 505.247C494.573 505.247 495.34 505.55 495.974 506.156C496.618 506.753 496.94 507.468 496.94 508.301C496.94 509.144 496.618 509.868 495.974 510.474C495.34 511.071 494.573 511.369 493.673 511.369ZM507.583 523.386V536H501.532V514.182H507.299V518.031H507.555C508.038 516.762 508.847 515.759 509.984 515.02C511.12 514.272 512.498 513.898 514.117 513.898C515.632 513.898 516.953 514.229 518.08 514.892C519.207 515.555 520.083 516.502 520.708 517.733C521.333 518.955 521.646 520.413 521.646 522.108V536H515.594V523.188C515.604 521.852 515.263 520.811 514.572 520.062C513.88 519.305 512.929 518.926 511.717 518.926C510.902 518.926 510.183 519.101 509.558 519.452C508.942 519.802 508.459 520.313 508.109 520.986C507.768 521.649 507.593 522.449 507.583 523.386ZM536.244 544.636C534.284 544.636 532.603 544.366 531.202 543.827C529.81 543.296 528.702 542.572 527.878 541.653C527.054 540.735 526.519 539.703 526.273 538.557L531.869 537.804C532.04 538.24 532.31 538.647 532.679 539.026C533.048 539.404 533.536 539.707 534.142 539.935C534.758 540.171 535.506 540.29 536.386 540.29C537.703 540.29 538.787 539.968 539.639 539.324C540.501 538.689 540.932 537.624 540.932 536.128V532.136H540.676C540.411 532.742 540.013 533.315 539.483 533.855C538.953 534.395 538.271 534.835 537.438 535.176C536.604 535.517 535.61 535.688 534.455 535.688C532.816 535.688 531.325 535.309 529.98 534.551C528.645 533.784 527.58 532.615 526.784 531.043C525.998 529.461 525.605 527.463 525.605 525.048C525.605 522.577 526.008 520.512 526.812 518.855C527.617 517.198 528.688 515.957 530.023 515.134C531.367 514.31 532.84 513.898 534.44 513.898C535.662 513.898 536.685 514.106 537.509 514.523C538.332 514.93 538.995 515.441 539.497 516.057C540.009 516.663 540.402 517.259 540.676 517.847H540.903V514.182H546.912V536.213C546.912 538.069 546.457 539.622 545.548 540.872C544.639 542.122 543.38 543.06 541.77 543.685C540.17 544.319 538.328 544.636 536.244 544.636ZM536.372 531.142C537.348 531.142 538.171 530.901 538.844 530.418C539.526 529.925 540.046 529.224 540.406 528.315C540.776 527.397 540.96 526.298 540.96 525.02C540.96 523.741 540.78 522.634 540.42 521.696C540.061 520.749 539.54 520.015 538.858 519.494C538.176 518.973 537.348 518.713 536.372 518.713C535.378 518.713 534.54 518.983 533.858 519.523C533.176 520.053 532.66 520.792 532.31 521.739C531.959 522.686 531.784 523.779 531.784 525.02C531.784 526.279 531.959 527.368 532.31 528.287C532.67 529.196 533.186 529.902 533.858 530.403C534.54 530.896 535.378 531.142 536.372 531.142ZM572.59 514.182V518.727H559.451V514.182H572.59ZM562.434 508.955H568.485V529.295C568.485 529.854 568.57 530.29 568.741 530.602C568.911 530.905 569.148 531.118 569.451 531.241C569.763 531.365 570.123 531.426 570.531 531.426C570.815 531.426 571.099 531.402 571.383 531.355C571.667 531.298 571.885 531.256 572.036 531.227L572.988 535.73C572.685 535.825 572.259 535.934 571.71 536.057C571.16 536.189 570.493 536.27 569.707 536.298C568.248 536.355 566.97 536.161 565.871 535.716C564.782 535.271 563.935 534.58 563.329 533.642C562.723 532.705 562.424 531.521 562.434 530.091V508.955ZM586.156 536.426C583.949 536.426 582.041 535.957 580.431 535.02C578.831 534.073 577.595 532.757 576.724 531.071C575.853 529.376 575.417 527.411 575.417 525.176C575.417 522.922 575.853 520.953 576.724 519.267C577.595 517.572 578.831 516.256 580.431 515.318C582.041 514.371 583.949 513.898 586.156 513.898C588.362 513.898 590.265 514.371 591.866 515.318C593.476 516.256 594.716 517.572 595.587 519.267C596.459 520.953 596.894 522.922 596.894 525.176C596.894 527.411 596.459 529.376 595.587 531.071C594.716 532.757 593.476 534.073 591.866 535.02C590.265 535.957 588.362 536.426 586.156 536.426ZM586.184 531.739C587.188 531.739 588.026 531.455 588.698 530.886C589.371 530.309 589.877 529.523 590.218 528.528C590.568 527.534 590.744 526.402 590.744 525.134C590.744 523.865 590.568 522.733 590.218 521.739C589.877 520.744 589.371 519.958 588.698 519.381C588.026 518.803 587.188 518.514 586.184 518.514C585.171 518.514 584.318 518.803 583.627 519.381C582.945 519.958 582.429 520.744 582.079 521.739C581.738 522.733 581.567 523.865 581.567 525.134C581.567 526.402 581.738 527.534 582.079 528.528C582.429 529.523 582.945 530.309 583.627 530.886C584.318 531.455 585.171 531.739 586.184 531.739ZM616.138 506.909V536H610.087V506.909H616.138ZM620.985 536V514.182H627.036V536H620.985ZM624.025 511.369C623.125 511.369 622.353 511.071 621.71 510.474C621.075 509.868 620.758 509.144 620.758 508.301C620.758 507.468 621.075 506.753 621.71 506.156C622.353 505.55 623.125 505.247 624.025 505.247C624.924 505.247 625.692 505.55 626.326 506.156C626.97 506.753 627.292 507.468 627.292 508.301C627.292 509.144 626.97 509.868 626.326 510.474C625.692 511.071 624.924 511.369 624.025 511.369ZM643.616 514.182V518.727H630.151V514.182H643.616ZM633.233 536V512.605C633.233 511.024 633.541 509.712 634.156 508.67C634.781 507.629 635.634 506.848 636.713 506.327C637.793 505.806 639.019 505.545 640.392 505.545C641.32 505.545 642.168 505.616 642.935 505.759C643.711 505.901 644.289 506.028 644.668 506.142L643.588 510.688C643.351 510.612 643.058 510.541 642.707 510.474C642.366 510.408 642.016 510.375 641.656 510.375C640.766 510.375 640.146 510.583 639.795 511C639.445 511.407 639.27 511.98 639.27 512.719V536H633.233ZM656.475 536.426C654.231 536.426 652.299 535.972 650.68 535.062C649.07 534.144 647.829 532.847 646.958 531.17C646.087 529.485 645.651 527.491 645.651 525.19C645.651 522.946 646.087 520.976 646.958 519.281C647.829 517.586 649.056 516.265 650.637 515.318C652.228 514.371 654.094 513.898 656.234 513.898C657.673 513.898 659.013 514.13 660.254 514.594C661.504 515.048 662.593 515.735 663.521 516.653C664.458 517.572 665.187 518.727 665.708 520.119C666.229 521.502 666.489 523.121 666.489 524.977V526.639H648.066V522.889H660.793C660.793 522.018 660.604 521.246 660.225 520.574C659.846 519.902 659.321 519.376 658.648 518.997C657.986 518.609 657.214 518.415 656.333 518.415C655.415 518.415 654.6 518.628 653.89 519.054C653.189 519.471 652.64 520.034 652.242 520.744C651.844 521.445 651.641 522.226 651.631 523.088V526.653C651.631 527.733 651.83 528.666 652.228 529.452C652.635 530.238 653.208 530.844 653.947 531.27C654.685 531.696 655.561 531.909 656.575 531.909C657.247 531.909 657.862 531.814 658.421 531.625C658.98 531.436 659.458 531.152 659.856 530.773C660.254 530.394 660.557 529.93 660.765 529.381L666.362 529.75C666.077 531.095 665.495 532.269 664.614 533.273C663.743 534.267 662.616 535.044 661.234 535.602C659.861 536.152 658.274 536.426 656.475 536.426ZM684 536L678.062 514.182H684.185L687.565 528.841H687.764L691.287 514.182H697.295L700.875 528.756H701.06L704.384 514.182H710.491L704.568 536H698.162L694.412 522.278H694.142L690.392 536H684ZM713.719 536V514.182H719.771V536H713.719ZM716.759 511.369C715.86 511.369 715.088 511.071 714.444 510.474C713.809 509.868 713.492 509.144 713.492 508.301C713.492 507.468 713.809 506.753 714.444 506.156C715.088 505.55 715.86 505.247 716.759 505.247C717.659 505.247 718.426 505.55 719.06 506.156C719.704 506.753 720.026 507.468 720.026 508.301C720.026 509.144 719.704 509.868 719.06 510.474C718.426 511.071 717.659 511.369 716.759 511.369ZM736.223 514.182V518.727H723.084V514.182H736.223ZM726.067 508.955H732.118V529.295C732.118 529.854 732.203 530.29 732.374 530.602C732.544 530.905 732.781 531.118 733.084 531.241C733.396 531.365 733.756 531.426 734.163 531.426C734.447 531.426 734.732 531.402 735.016 531.355C735.3 531.298 735.518 531.256 735.669 531.227L736.621 535.73C736.318 535.825 735.892 535.934 735.342 536.057C734.793 536.189 734.125 536.27 733.339 536.298C731.881 536.355 730.603 536.161 729.504 535.716C728.415 535.271 727.568 534.58 726.962 533.642C726.356 532.705 726.057 531.521 726.067 530.091V508.955ZM746.685 523.386V536H740.634V506.909H746.514V518.031H746.77C747.262 516.743 748.058 515.735 749.156 515.006C750.255 514.267 751.633 513.898 753.29 513.898C754.805 513.898 756.126 514.229 757.253 514.892C758.389 515.545 759.27 516.488 759.895 517.719C760.529 518.94 760.842 520.403 760.832 522.108V536H754.781V523.188C754.791 521.843 754.45 520.796 753.759 520.048C753.077 519.3 752.12 518.926 750.889 518.926C750.065 518.926 749.336 519.101 748.702 519.452C748.077 519.802 747.584 520.313 747.224 520.986C746.874 521.649 746.694 522.449 746.685 523.386ZM360.033 592.182C359.266 592.182 358.547 592.12 357.874 591.997C357.211 591.884 356.662 591.737 356.227 591.557L357.59 587.04C358.3 587.258 358.94 587.376 359.508 587.395C360.085 587.414 360.583 587.281 360.999 586.997C361.425 586.713 361.771 586.23 362.036 585.548L362.391 584.625L354.565 562.182H360.928L365.445 578.205H365.673L370.232 562.182H376.638L368.158 586.358C367.751 587.532 367.197 588.555 366.496 589.426C365.805 590.307 364.929 590.984 363.869 591.457C362.808 591.94 361.53 592.182 360.033 592.182ZM388.89 584.426C386.683 584.426 384.775 583.957 383.165 583.02C381.565 582.073 380.329 580.757 379.458 579.071C378.587 577.376 378.151 575.411 378.151 573.176C378.151 570.922 378.587 568.953 379.458 567.267C380.329 565.572 381.565 564.256 383.165 563.318C384.775 562.371 386.683 561.898 388.89 561.898C391.096 561.898 393 562.371 394.6 563.318C396.21 564.256 397.451 565.572 398.322 567.267C399.193 568.953 399.629 570.922 399.629 573.176C399.629 575.411 399.193 577.376 398.322 579.071C397.451 580.757 396.21 582.073 394.6 583.02C393 583.957 391.096 584.426 388.89 584.426ZM388.918 579.739C389.922 579.739 390.76 579.455 391.433 578.886C392.105 578.309 392.612 577.523 392.952 576.528C393.303 575.534 393.478 574.402 393.478 573.134C393.478 571.865 393.303 570.733 392.952 569.739C392.612 568.744 392.105 567.958 391.433 567.381C390.76 566.803 389.922 566.514 388.918 566.514C387.905 566.514 387.053 566.803 386.362 567.381C385.68 567.958 385.164 568.744 384.813 569.739C384.472 570.733 384.302 571.865 384.302 573.134C384.302 574.402 384.472 575.534 384.813 576.528C385.164 577.523 385.68 578.309 386.362 578.886C387.053 579.455 387.905 579.739 388.918 579.739ZM417.555 574.71V562.182H423.606V584H417.796V580.037H417.569C417.076 581.315 416.257 582.343 415.112 583.119C413.975 583.896 412.588 584.284 410.95 584.284C409.491 584.284 408.208 583.953 407.1 583.29C405.992 582.627 405.126 581.685 404.501 580.463C403.885 579.241 403.573 577.778 403.563 576.074V562.182H409.614V574.994C409.624 576.282 409.969 577.3 410.651 578.048C411.333 578.796 412.247 579.17 413.393 579.17C414.122 579.17 414.804 579.005 415.438 578.673C416.073 578.332 416.584 577.83 416.972 577.168C417.37 576.505 417.564 575.686 417.555 574.71ZM428.446 584V562.182H434.312V565.989H434.54C434.938 564.634 435.605 563.612 436.543 562.92C437.48 562.22 438.56 561.869 439.781 561.869C440.084 561.869 440.411 561.888 440.761 561.926C441.112 561.964 441.42 562.016 441.685 562.082V567.452C441.401 567.366 441.008 567.291 440.506 567.224C440.004 567.158 439.545 567.125 439.128 567.125C438.238 567.125 437.442 567.319 436.741 567.707C436.05 568.086 435.501 568.616 435.094 569.298C434.696 569.98 434.497 570.766 434.497 571.656V584H428.446ZM462.111 584.355C460.454 584.355 458.953 583.929 457.608 583.077C456.273 582.215 455.212 580.951 454.426 579.284C453.65 577.608 453.261 575.553 453.261 573.119C453.261 570.619 453.664 568.541 454.469 566.884C455.274 565.217 456.344 563.972 457.679 563.148C459.024 562.314 460.496 561.898 462.097 561.898C463.318 561.898 464.336 562.106 465.151 562.523C465.974 562.93 466.637 563.441 467.139 564.057C467.651 564.663 468.039 565.259 468.304 565.847H468.489V554.909H474.526V584H468.56V580.506H468.304C468.02 581.112 467.617 581.713 467.097 582.31C466.585 582.897 465.918 583.384 465.094 583.773C464.279 584.161 463.285 584.355 462.111 584.355ZM464.028 579.54C465.004 579.54 465.828 579.275 466.5 578.744C467.182 578.205 467.703 577.452 468.062 576.486C468.432 575.52 468.616 574.388 468.616 573.091C468.616 571.794 468.437 570.667 468.077 569.71C467.717 568.754 467.196 568.015 466.514 567.494C465.832 566.973 465.004 566.713 464.028 566.713C463.034 566.713 462.196 566.983 461.514 567.523C460.832 568.062 460.316 568.811 459.966 569.767C459.616 570.723 459.44 571.831 459.44 573.091C459.44 574.36 459.616 575.482 459.966 576.457C460.326 577.423 460.842 578.181 461.514 578.73C462.196 579.27 463.034 579.54 464.028 579.54ZM479.501 584V562.182H485.367V565.989H485.594C485.992 564.634 486.66 563.612 487.597 562.92C488.535 562.22 489.614 561.869 490.836 561.869C491.139 561.869 491.466 561.888 491.816 561.926C492.166 561.964 492.474 562.016 492.739 562.082V567.452C492.455 567.366 492.062 567.291 491.56 567.224C491.058 567.158 490.599 567.125 490.183 567.125C489.292 567.125 488.497 567.319 487.796 567.707C487.105 568.086 486.556 568.616 486.148 569.298C485.751 569.98 485.552 570.766 485.552 571.656V584H479.501ZM501.464 584.412C500.072 584.412 498.832 584.17 497.743 583.688C496.654 583.195 495.792 582.471 495.158 581.514C494.533 580.548 494.22 579.346 494.22 577.906C494.22 576.694 494.443 575.676 494.888 574.852C495.333 574.028 495.939 573.366 496.706 572.864C497.473 572.362 498.344 571.983 499.32 571.727C500.304 571.472 501.337 571.292 502.416 571.188C503.685 571.055 504.708 570.932 505.484 570.818C506.261 570.695 506.824 570.515 507.175 570.278C507.525 570.042 507.7 569.691 507.7 569.227V569.142C507.7 568.242 507.416 567.546 506.848 567.054C506.289 566.562 505.494 566.315 504.462 566.315C503.373 566.315 502.506 566.557 501.862 567.04C501.218 567.513 500.792 568.11 500.584 568.83L494.987 568.375C495.271 567.049 495.83 565.903 496.663 564.938C497.497 563.962 498.571 563.214 499.888 562.693C501.214 562.163 502.748 561.898 504.49 561.898C505.702 561.898 506.862 562.04 507.97 562.324C509.088 562.608 510.077 563.048 510.939 563.645C511.81 564.241 512.497 565.009 512.999 565.946C513.5 566.874 513.751 567.987 513.751 569.284V584H508.013V580.974H507.842C507.492 581.656 507.023 582.258 506.436 582.778C505.849 583.29 505.143 583.692 504.32 583.986C503.496 584.27 502.544 584.412 501.464 584.412ZM503.197 580.236C504.088 580.236 504.874 580.061 505.555 579.71C506.237 579.35 506.772 578.867 507.161 578.261C507.549 577.655 507.743 576.969 507.743 576.202V573.886C507.554 574.009 507.293 574.123 506.962 574.227C506.64 574.322 506.275 574.412 505.868 574.497C505.461 574.573 505.054 574.644 504.646 574.71C504.239 574.767 503.87 574.819 503.538 574.866C502.828 574.971 502.208 575.136 501.678 575.364C501.147 575.591 500.735 575.899 500.442 576.287C500.148 576.666 500.001 577.139 500.001 577.707C500.001 578.531 500.3 579.161 500.896 579.597C501.502 580.023 502.269 580.236 503.197 580.236ZM522.75 584L516.812 562.182H522.935L526.315 576.841H526.514L530.037 562.182H536.045L539.625 576.756H539.81L543.134 562.182H549.241L543.318 584H536.912L533.162 570.278H532.892L529.142 584H522.75ZM552.469 584V562.182H558.521V584H552.469ZM555.509 559.369C554.61 559.369 553.838 559.071 553.194 558.474C552.559 557.868 552.242 557.144 552.242 556.301C552.242 555.468 552.559 554.753 553.194 554.156C553.838 553.55 554.61 553.247 555.509 553.247C556.409 553.247 557.176 553.55 557.81 554.156C558.454 554.753 558.776 555.468 558.776 556.301C558.776 557.144 558.454 557.868 557.81 558.474C557.176 559.071 556.409 559.369 555.509 559.369ZM569.419 571.386V584H563.368V562.182H569.135V566.031H569.391C569.874 564.762 570.683 563.759 571.82 563.02C572.956 562.272 574.334 561.898 575.953 561.898C577.468 561.898 578.789 562.229 579.916 562.892C581.043 563.555 581.919 564.502 582.544 565.733C583.169 566.955 583.482 568.413 583.482 570.108V584H577.43V571.188C577.44 569.852 577.099 568.811 576.408 568.062C575.716 567.305 574.765 566.926 573.553 566.926C572.738 566.926 572.018 567.101 571.393 567.452C570.778 567.802 570.295 568.313 569.945 568.986C569.604 569.649 569.429 570.449 569.419 571.386ZM598.08 592.636C596.12 592.636 594.439 592.366 593.038 591.827C591.646 591.296 590.538 590.572 589.714 589.653C588.89 588.735 588.355 587.703 588.109 586.557L593.705 585.804C593.876 586.24 594.146 586.647 594.515 587.026C594.884 587.404 595.372 587.707 595.978 587.935C596.594 588.171 597.342 588.29 598.222 588.29C599.539 588.29 600.623 587.968 601.475 587.324C602.337 586.689 602.768 585.624 602.768 584.128V580.136H602.512C602.247 580.742 601.849 581.315 601.319 581.855C600.789 582.395 600.107 582.835 599.273 583.176C598.44 583.517 597.446 583.688 596.29 583.688C594.652 583.688 593.161 583.309 591.816 582.551C590.481 581.784 589.415 580.615 588.62 579.043C587.834 577.461 587.441 575.463 587.441 573.048C587.441 570.577 587.844 568.512 588.648 566.855C589.453 565.198 590.523 563.957 591.859 563.134C593.203 562.31 594.676 561.898 596.276 561.898C597.498 561.898 598.521 562.106 599.344 562.523C600.168 562.93 600.831 563.441 601.333 564.057C601.844 564.663 602.237 565.259 602.512 565.847H602.739V562.182H608.748V584.213C608.748 586.069 608.293 587.622 607.384 588.872C606.475 590.122 605.216 591.06 603.606 591.685C602.005 592.319 600.164 592.636 598.08 592.636ZM598.208 579.142C599.183 579.142 600.007 578.901 600.68 578.418C601.362 577.925 601.882 577.224 602.242 576.315C602.612 575.397 602.796 574.298 602.796 573.02C602.796 571.741 602.616 570.634 602.256 569.696C601.897 568.749 601.376 568.015 600.694 567.494C600.012 566.973 599.183 566.713 598.208 566.713C597.214 566.713 596.376 566.983 595.694 567.523C595.012 568.053 594.496 568.792 594.146 569.739C593.795 570.686 593.62 571.779 593.62 573.02C593.62 574.279 593.795 575.368 594.146 576.287C594.505 577.196 595.022 577.902 595.694 578.403C596.376 578.896 597.214 579.142 598.208 579.142ZM620.793 554.909L620.239 575.278H615.04L614.472 554.909H620.793ZM617.64 584.369C616.702 584.369 615.897 584.038 615.225 583.375C614.553 582.703 614.221 581.898 614.231 580.96C614.221 580.032 614.553 579.237 615.225 578.574C615.897 577.911 616.702 577.58 617.64 577.58C618.54 577.58 619.33 577.911 620.012 578.574C620.694 579.237 621.04 580.032 621.049 580.96C621.04 581.585 620.874 582.158 620.552 582.679C620.239 583.19 619.827 583.602 619.316 583.915C618.805 584.218 618.246 584.369 617.64 584.369Z" fill="#9DA3CB"/>
<rect x="120" y="226" width="223" height="83" rx="41.5" fill="#9DA3CB"/>
<rect x="358" y="219" width="263" height="97" rx="48.5" fill="#9DA3CB"/>
<rect x="636" y="226" width="223" height="83" rx="41.5" fill="#9DA3CB"/>
<path d="M430.491 286V253.273H437.411V266.776H451.457V253.273H458.361V286H451.457V272.481H437.411V286H430.491ZM475.124 286.479C472.599 286.479 470.426 285.968 468.604 284.945C466.793 283.912 465.397 282.452 464.417 280.567C463.437 278.67 462.947 276.428 462.947 273.839C462.947 271.314 463.437 269.098 464.417 267.191C465.397 265.284 466.777 263.798 468.556 262.733C470.346 261.668 472.445 261.135 474.852 261.135C476.472 261.135 477.979 261.396 479.375 261.918C480.781 262.429 482.006 263.202 483.05 264.235C484.105 265.268 484.925 266.568 485.511 268.134C486.097 269.69 486.39 271.511 486.39 273.599V275.469H465.664V271.25H479.982C479.982 270.27 479.769 269.402 479.343 268.646C478.917 267.889 478.325 267.298 477.569 266.872C476.823 266.435 475.955 266.217 474.964 266.217C473.931 266.217 473.015 266.456 472.216 266.936C471.427 267.404 470.809 268.038 470.362 268.837C469.914 269.626 469.685 270.505 469.675 271.474V275.485C469.675 276.7 469.898 277.749 470.346 278.633C470.804 279.517 471.448 280.199 472.279 280.679C473.11 281.158 474.096 281.398 475.236 281.398C475.992 281.398 476.685 281.291 477.313 281.078C477.942 280.865 478.48 280.545 478.927 280.119C479.375 279.693 479.716 279.171 479.95 278.553L486.246 278.969C485.926 280.482 485.271 281.803 484.28 282.932C483.3 284.05 482.033 284.924 480.477 285.553C478.932 286.17 477.148 286.479 475.124 286.479ZM497.832 286.463C496.266 286.463 494.87 286.192 493.645 285.648C492.42 285.094 491.45 284.279 490.736 283.203C490.033 282.117 489.682 280.764 489.682 279.145C489.682 277.781 489.932 276.636 490.433 275.709C490.934 274.782 491.615 274.036 492.478 273.472C493.341 272.907 494.321 272.481 495.419 272.193C496.527 271.906 497.688 271.703 498.902 271.586C500.33 271.437 501.48 271.298 502.354 271.17C503.228 271.032 503.861 270.83 504.256 270.563C504.65 270.297 504.847 269.903 504.847 269.381V269.285C504.847 268.273 504.527 267.49 503.888 266.936C503.26 266.382 502.365 266.105 501.203 266.105C499.978 266.105 499.004 266.376 498.279 266.92C497.555 267.452 497.075 268.124 496.841 268.933L490.545 268.422C490.864 266.93 491.493 265.641 492.43 264.555C493.368 263.457 494.577 262.616 496.058 262.03C497.549 261.433 499.275 261.135 501.235 261.135C502.599 261.135 503.904 261.295 505.151 261.614C506.408 261.934 507.521 262.429 508.49 263.1C509.47 263.772 510.243 264.635 510.807 265.689C511.372 266.733 511.654 267.985 511.654 269.445V286H505.198V282.596H505.007C504.613 283.363 504.085 284.04 503.425 284.626C502.764 285.201 501.97 285.654 501.044 285.984C500.117 286.304 499.046 286.463 497.832 286.463ZM499.781 281.765C500.783 281.765 501.667 281.568 502.434 281.174C503.201 280.769 503.803 280.226 504.24 279.544C504.676 278.862 504.895 278.09 504.895 277.227V274.622C504.682 274.761 504.389 274.888 504.016 275.006C503.654 275.112 503.244 275.213 502.785 275.309C502.327 275.395 501.869 275.474 501.411 275.549C500.953 275.613 500.538 275.672 500.165 275.725C499.366 275.842 498.668 276.028 498.071 276.284C497.475 276.54 497.011 276.886 496.681 277.323C496.351 277.749 496.186 278.282 496.186 278.921C496.186 279.848 496.521 280.556 497.192 281.046C497.874 281.526 498.737 281.765 499.781 281.765ZM516.936 286V261.455H523.536V265.737H523.791C524.239 264.214 524.99 263.063 526.045 262.286C527.099 261.497 528.314 261.103 529.688 261.103C530.029 261.103 530.396 261.124 530.791 261.167C531.185 261.21 531.531 261.268 531.829 261.343V267.383C531.51 267.287 531.068 267.202 530.503 267.127C529.938 267.053 529.422 267.016 528.953 267.016C527.951 267.016 527.057 267.234 526.268 267.671C525.491 268.097 524.873 268.694 524.415 269.461C523.967 270.228 523.743 271.112 523.743 272.113V286H516.936ZM549.635 261.455V266.568H534.854V261.455H549.635ZM538.209 255.574H545.017V278.457C545.017 279.086 545.113 279.576 545.305 279.928C545.496 280.268 545.763 280.508 546.104 280.647C546.455 280.785 546.86 280.854 547.318 280.854C547.638 280.854 547.957 280.828 548.277 280.775C548.596 280.711 548.841 280.663 549.012 280.631L550.083 285.696C549.742 285.803 549.262 285.925 548.644 286.064C548.027 286.213 547.275 286.304 546.391 286.336C544.751 286.4 543.312 286.181 542.077 285.68C540.851 285.18 539.898 284.402 539.216 283.347C538.534 282.293 538.199 280.961 538.209 279.352V255.574Z" fill="#494E8A"/>
<path d="M218.091 286.415C217.036 286.415 216.13 286.043 215.374 285.297C214.628 284.54 214.255 283.635 214.255 282.58C214.255 281.536 214.628 280.641 215.374 279.896C216.13 279.15 217.036 278.777 218.091 278.777C219.113 278.777 220.008 279.15 220.775 279.896C221.542 280.641 221.926 281.536 221.926 282.58C221.926 283.283 221.745 283.928 221.383 284.514C221.031 285.089 220.568 285.553 219.992 285.904C219.417 286.245 218.783 286.415 218.091 286.415ZM231.494 286.415C230.439 286.415 229.534 286.043 228.777 285.297C228.032 284.54 227.659 283.635 227.659 282.58C227.659 281.536 228.032 280.641 228.777 279.896C229.534 279.15 230.439 278.777 231.494 278.777C232.517 278.777 233.412 279.15 234.179 279.896C234.946 280.641 235.329 281.536 235.329 282.58C235.329 283.283 235.148 283.928 234.786 284.514C234.434 285.089 233.971 285.553 233.396 285.904C232.82 286.245 232.186 286.415 231.494 286.415ZM244.897 286.415C243.843 286.415 242.937 286.043 242.181 285.297C241.435 284.54 241.062 283.635 241.062 282.58C241.062 281.536 241.435 280.641 242.181 279.896C242.937 279.15 243.843 278.777 244.897 278.777C245.92 278.777 246.815 279.15 247.582 279.896C248.349 280.641 248.733 281.536 248.733 282.58C248.733 283.283 248.551 283.928 248.189 284.514C247.838 285.089 247.374 285.553 246.799 285.904C246.224 286.245 245.59 286.415 244.897 286.415Z" fill="#494E8A"/>
<path d="M734.091 286.415C733.036 286.415 732.13 286.043 731.374 285.297C730.628 284.54 730.255 283.635 730.255 282.58C730.255 281.536 730.628 280.641 731.374 279.896C732.13 279.15 733.036 278.777 734.091 278.777C735.113 278.777 736.008 279.15 736.775 279.896C737.542 280.641 737.926 281.536 737.926 282.58C737.926 283.283 737.745 283.928 737.383 284.514C737.031 285.089 736.568 285.553 735.992 285.904C735.417 286.245 734.783 286.415 734.091 286.415ZM747.494 286.415C746.439 286.415 745.534 286.043 744.777 285.297C744.032 284.54 743.659 283.635 743.659 282.58C743.659 281.536 744.032 280.641 744.777 279.896C745.534 279.15 746.439 278.777 747.494 278.777C748.517 278.777 749.412 279.15 750.179 279.896C750.946 280.641 751.329 281.536 751.329 282.58C751.329 283.283 751.148 283.928 750.786 284.514C750.434 285.089 749.971 285.553 749.396 285.904C748.82 286.245 748.186 286.415 747.494 286.415ZM760.897 286.415C759.843 286.415 758.937 286.043 758.181 285.297C757.435 284.54 757.062 283.635 757.062 282.58C757.062 281.536 757.435 280.641 758.181 279.896C758.937 279.15 759.843 278.777 760.897 278.777C761.92 278.777 762.815 279.15 763.582 279.896C764.349 280.641 764.733 281.536 764.733 282.58C764.733 283.283 764.551 283.928 764.189 284.514C763.838 285.089 763.374 285.553 762.799 285.904C762.224 286.245 761.59 286.415 760.897 286.415Z" fill="#494E8A"/>
<path d="M467.333 342.375C467.333 339.955 469.27 338 471.667 338C474.064 338 476 339.955 476 342.375V370.812H467.333V342.375ZM493.333 364.25C493.333 361.83 495.27 359.875 497.667 359.875C500.064 359.875 502 361.83 502 364.25V373C502 375.42 500.064 377.375 497.667 377.375C495.27 377.375 493.333 375.42 493.333 373V364.25ZM484.667 355.5C487.064 355.5 489 357.455 489 359.875V366.438C489 368.857 487.064 370.812 484.667 370.812C482.27 370.812 480.333 368.857 480.333 366.438V359.875C480.333 357.455 482.27 355.5 484.667 355.5ZM506.333 368.625C506.333 366.205 508.27 364.25 510.667 364.25C513.064 364.25 515 366.205 515 368.625V377.375C515 379.795 513.064 381.75 510.667 381.75C508.27 381.75 506.333 379.795 506.333 377.375V368.625ZM493.333 380.656V380.574C494.606 381.312 496.082 381.75 497.667 381.75C499.454 381.75 501.106 381.203 502.488 380.273C503.666 383.678 506.889 386.125 510.667 386.125C512.251 386.125 513.727 385.701 515 384.949V386.125C515 398.211 505.304 408 493.333 408H484.978C479.236 408 473.725 405.689 469.663 401.588L468.078 400.002C464.828 396.721 463 392.264 463 387.629V383.938C463 379.111 466.886 375.188 471.667 375.188H483.583C486.576 375.188 489 377.635 489 380.656C489 383.678 486.576 386.125 483.583 386.125H476C474.808 386.125 473.833 387.109 473.833 388.312C473.833 389.516 474.808 390.5 476 390.5H483.583C488.973 390.5 493.333 386.098 493.333 380.656Z" fill="#9DA3CB"/>
</svg>
