<svg width="978" height="656" viewBox="0 0 978 656" fill="none" xmlns="http://www.w3.org/2000/svg">
<rect width="978" height="656" rx="30" fill="#1B1C24"/>
<path d="M254.01 512L245.686 482.909H252.405L257.221 503.122H257.462L262.775 482.909H268.527L273.826 503.165H274.081L278.897 482.909H285.615L277.292 512H271.297L265.757 492.98H265.53L260.005 512H254.01ZM294.845 499.386V512H288.794V482.909H294.674V494.031H294.93C295.422 492.743 296.218 491.735 297.316 491.006C298.415 490.267 299.793 489.898 301.45 489.898C302.965 489.898 304.286 490.229 305.413 490.892C306.549 491.545 307.43 492.488 308.055 493.719C308.69 494.94 309.002 496.403 308.993 498.108V512H302.941V499.188C302.951 497.843 302.61 496.796 301.919 496.048C301.237 495.3 300.28 494.926 299.049 494.926C298.225 494.926 297.496 495.101 296.862 495.452C296.237 495.802 295.744 496.313 295.385 496.986C295.034 497.649 294.854 498.449 294.845 499.386ZM323.613 512.426C321.406 512.426 319.498 511.957 317.888 511.02C316.288 510.073 315.052 508.757 314.181 507.071C313.31 505.376 312.874 503.411 312.874 501.176C312.874 498.922 313.31 496.953 314.181 495.267C315.052 493.572 316.288 492.256 317.888 491.318C319.498 490.371 321.406 489.898 323.613 489.898C325.819 489.898 327.722 490.371 329.323 491.318C330.933 492.256 332.173 493.572 333.044 495.267C333.916 496.953 334.351 498.922 334.351 501.176C334.351 503.411 333.916 505.376 333.044 507.071C332.173 508.757 330.933 510.073 329.323 511.02C327.722 511.957 325.819 512.426 323.613 512.426ZM323.641 507.739C324.645 507.739 325.483 507.455 326.155 506.886C326.828 506.309 327.334 505.523 327.675 504.528C328.025 503.534 328.201 502.402 328.201 501.134C328.201 499.865 328.025 498.733 327.675 497.739C327.334 496.744 326.828 495.958 326.155 495.381C325.483 494.803 324.645 494.514 323.641 494.514C322.628 494.514 321.775 494.803 321.084 495.381C320.402 495.958 319.886 496.744 319.536 497.739C319.195 498.733 319.025 499.865 319.025 501.134C319.025 502.402 319.195 503.534 319.536 504.528C319.886 505.523 320.402 506.309 321.084 506.886C321.775 507.455 322.628 507.739 323.641 507.739ZM348.229 512.426C345.985 512.426 344.053 511.972 342.434 511.062C340.824 510.144 339.583 508.847 338.712 507.17C337.841 505.485 337.405 503.491 337.405 501.19C337.405 498.946 337.841 496.976 338.712 495.281C339.583 493.586 340.81 492.265 342.391 491.318C343.982 490.371 345.847 489.898 347.988 489.898C349.427 489.898 350.767 490.13 352.007 490.594C353.257 491.048 354.346 491.735 355.275 492.653C356.212 493.572 356.941 494.727 357.462 496.119C357.983 497.502 358.243 499.121 358.243 500.977V502.639H339.82V498.889H352.547C352.547 498.018 352.358 497.246 351.979 496.574C351.6 495.902 351.075 495.376 350.402 494.997C349.739 494.609 348.968 494.415 348.087 494.415C347.168 494.415 346.354 494.628 345.644 495.054C344.943 495.471 344.394 496.034 343.996 496.744C343.598 497.445 343.395 498.226 343.385 499.088V502.653C343.385 503.733 343.584 504.666 343.982 505.452C344.389 506.238 344.962 506.844 345.701 507.27C346.439 507.696 347.315 507.909 348.328 507.909C349.001 507.909 349.616 507.814 350.175 507.625C350.734 507.436 351.212 507.152 351.61 506.773C352.007 506.394 352.31 505.93 352.519 505.381L358.115 505.75C357.831 507.095 357.249 508.269 356.368 509.273C355.497 510.267 354.37 511.044 352.988 511.602C351.614 512.152 350.028 512.426 348.229 512.426ZM381.947 490.182L374.319 512H367.501L359.873 490.182H366.265L370.797 505.793H371.024L375.541 490.182H381.947ZM394.284 512.426C392.039 512.426 390.108 511.972 388.488 511.062C386.878 510.144 385.638 508.847 384.767 507.17C383.895 505.485 383.46 503.491 383.46 501.19C383.46 498.946 383.895 496.976 384.767 495.281C385.638 493.586 386.864 492.265 388.446 491.318C390.037 490.371 391.902 489.898 394.042 489.898C395.482 489.898 396.822 490.13 398.062 490.594C399.312 491.048 400.401 491.735 401.329 492.653C402.267 493.572 402.996 494.727 403.517 496.119C404.038 497.502 404.298 499.121 404.298 500.977V502.639H385.875V498.889H398.602C398.602 498.018 398.413 497.246 398.034 496.574C397.655 495.902 397.129 495.376 396.457 494.997C395.794 494.609 395.022 494.415 394.142 494.415C393.223 494.415 392.409 494.628 391.699 495.054C390.998 495.471 390.449 496.034 390.051 496.744C389.653 497.445 389.449 498.226 389.44 499.088V502.653C389.44 503.733 389.639 504.666 390.037 505.452C390.444 506.238 391.017 506.844 391.755 507.27C392.494 507.696 393.37 507.909 394.383 507.909C395.056 507.909 395.671 507.814 396.23 507.625C396.788 507.436 397.267 507.152 397.664 506.773C398.062 506.394 398.365 505.93 398.574 505.381L404.17 505.75C403.886 507.095 403.304 508.269 402.423 509.273C401.552 510.267 400.425 511.044 399.042 511.602C397.669 512.152 396.083 512.426 394.284 512.426ZM408.247 512V490.182H414.113V493.989H414.341C414.738 492.634 415.406 491.612 416.343 490.92C417.281 490.22 418.36 489.869 419.582 489.869C419.885 489.869 420.212 489.888 420.562 489.926C420.913 489.964 421.22 490.016 421.485 490.082V495.452C421.201 495.366 420.808 495.291 420.306 495.224C419.805 495.158 419.345 495.125 418.929 495.125C418.038 495.125 417.243 495.319 416.542 495.707C415.851 496.086 415.302 496.616 414.895 497.298C414.497 497.98 414.298 498.766 414.298 499.656V512H408.247ZM452.025 496.403L446.485 496.744C446.391 496.271 446.187 495.845 445.875 495.466C445.562 495.078 445.15 494.77 444.639 494.543C444.137 494.306 443.536 494.188 442.835 494.188C441.897 494.188 441.107 494.386 440.463 494.784C439.819 495.172 439.497 495.693 439.497 496.347C439.497 496.867 439.705 497.308 440.122 497.668C440.538 498.027 441.253 498.316 442.267 498.534L446.216 499.33C448.337 499.765 449.918 500.466 450.96 501.432C452.002 502.398 452.522 503.667 452.522 505.239C452.522 506.669 452.101 507.923 451.258 509.003C450.425 510.082 449.279 510.925 447.821 511.531C446.372 512.128 444.7 512.426 442.806 512.426C439.918 512.426 437.617 511.825 435.903 510.622C434.199 509.41 433.199 507.762 432.906 505.679L438.858 505.366C439.038 506.247 439.473 506.92 440.164 507.384C440.856 507.838 441.741 508.065 442.821 508.065C443.881 508.065 444.734 507.862 445.377 507.455C446.031 507.038 446.362 506.503 446.372 505.849C446.362 505.3 446.13 504.85 445.676 504.5C445.221 504.14 444.52 503.866 443.574 503.676L439.795 502.923C437.664 502.497 436.078 501.759 435.037 500.707C434.004 499.656 433.488 498.316 433.488 496.688C433.488 495.286 433.867 494.079 434.625 493.065C435.392 492.052 436.467 491.271 437.849 490.722C439.241 490.172 440.87 489.898 442.735 489.898C445.491 489.898 447.66 490.48 449.241 491.645C450.832 492.81 451.76 494.396 452.025 496.403ZM466.191 512.426C463.956 512.426 462.033 511.953 460.424 511.006C458.823 510.049 457.592 508.723 456.73 507.028C455.878 505.333 455.452 503.383 455.452 501.176C455.452 498.941 455.883 496.981 456.745 495.295C457.616 493.6 458.852 492.279 460.452 491.332C462.052 490.376 463.956 489.898 466.162 489.898C468.066 489.898 469.732 490.243 471.162 490.935C472.592 491.626 473.724 492.597 474.557 493.847C475.391 495.097 475.85 496.564 475.935 498.25H470.225C470.064 497.161 469.638 496.285 468.946 495.622C468.265 494.95 467.37 494.614 466.262 494.614C465.324 494.614 464.505 494.869 463.804 495.381C463.113 495.883 462.573 496.616 462.185 497.582C461.797 498.548 461.603 499.718 461.603 501.091C461.603 502.483 461.792 503.667 462.171 504.642C462.559 505.617 463.104 506.361 463.804 506.872C464.505 507.384 465.324 507.639 466.262 507.639C466.953 507.639 467.573 507.497 468.123 507.213C468.681 506.929 469.141 506.517 469.5 505.977C469.87 505.428 470.111 504.77 470.225 504.003H475.935C475.84 505.67 475.386 507.137 474.571 508.406C473.766 509.666 472.654 510.651 471.233 511.361C469.813 512.071 468.132 512.426 466.191 512.426ZM489.667 512.426C487.461 512.426 485.553 511.957 483.943 511.02C482.342 510.073 481.107 508.757 480.235 507.071C479.364 505.376 478.929 503.411 478.929 501.176C478.929 498.922 479.364 496.953 480.235 495.267C481.107 493.572 482.342 492.256 483.943 491.318C485.553 490.371 487.461 489.898 489.667 489.898C491.874 489.898 493.777 490.371 495.377 491.318C496.987 492.256 498.228 493.572 499.099 495.267C499.97 496.953 500.406 498.922 500.406 501.176C500.406 503.411 499.97 505.376 499.099 507.071C498.228 508.757 496.987 510.073 495.377 511.02C493.777 511.957 491.874 512.426 489.667 512.426ZM489.696 507.739C490.699 507.739 491.538 507.455 492.21 506.886C492.882 506.309 493.389 505.523 493.73 504.528C494.08 503.534 494.255 502.402 494.255 501.134C494.255 499.865 494.08 498.733 493.73 497.739C493.389 496.744 492.882 495.958 492.21 495.381C491.538 494.803 490.699 494.514 489.696 494.514C488.682 494.514 487.83 494.803 487.139 495.381C486.457 495.958 485.941 496.744 485.591 497.739C485.25 498.733 485.079 499.865 485.079 501.134C485.079 502.402 485.25 503.534 485.591 504.528C485.941 505.523 486.457 506.309 487.139 506.886C487.83 507.455 488.682 507.739 489.696 507.739ZM504.341 512V490.182H510.207V493.989H510.434C510.832 492.634 511.5 491.612 512.437 490.92C513.375 490.22 514.454 489.869 515.676 489.869C515.979 489.869 516.306 489.888 516.656 489.926C517.006 489.964 517.314 490.016 517.579 490.082V495.452C517.295 495.366 516.902 495.291 516.4 495.224C515.898 495.158 515.439 495.125 515.022 495.125C514.132 495.125 513.337 495.319 512.636 495.707C511.945 496.086 511.395 496.616 510.988 497.298C510.591 497.98 510.392 498.766 510.392 499.656V512H504.341ZM529.635 512.426C527.391 512.426 525.459 511.972 523.84 511.062C522.23 510.144 520.989 508.847 520.118 507.17C519.247 505.485 518.811 503.491 518.811 501.19C518.811 498.946 519.247 496.976 520.118 495.281C520.989 493.586 522.216 492.265 523.797 491.318C525.388 490.371 527.254 489.898 529.394 489.898C530.833 489.898 532.173 490.13 533.414 490.594C534.664 491.048 535.753 491.735 536.681 492.653C537.618 493.572 538.347 494.727 538.868 496.119C539.389 497.502 539.65 499.121 539.65 500.977V502.639H521.226V498.889H533.953C533.953 498.018 533.764 497.246 533.385 496.574C533.007 495.902 532.481 495.376 531.809 494.997C531.146 494.609 530.374 494.415 529.493 494.415C528.575 494.415 527.76 494.628 527.05 495.054C526.349 495.471 525.8 496.034 525.402 496.744C525.005 497.445 524.801 498.226 524.792 499.088V502.653C524.792 503.733 524.99 504.666 525.388 505.452C525.795 506.238 526.368 506.844 527.107 507.27C527.846 507.696 528.721 507.909 529.735 507.909C530.407 507.909 531.023 507.814 531.581 507.625C532.14 507.436 532.618 507.152 533.016 506.773C533.414 506.394 533.717 505.93 533.925 505.381L539.522 505.75C539.238 507.095 538.655 508.269 537.775 509.273C536.903 510.267 535.776 511.044 534.394 511.602C533.021 512.152 531.435 512.426 529.635 512.426ZM561.752 496.403L556.212 496.744C556.117 496.271 555.914 495.845 555.601 495.466C555.289 495.078 554.877 494.77 554.365 494.543C553.864 494.306 553.262 494.188 552.561 494.188C551.624 494.188 550.833 494.386 550.189 494.784C549.545 495.172 549.223 495.693 549.223 496.347C549.223 496.867 549.432 497.308 549.848 497.668C550.265 498.027 550.98 498.316 551.993 498.534L555.942 499.33C558.063 499.765 559.645 500.466 560.686 501.432C561.728 502.398 562.249 503.667 562.249 505.239C562.249 506.669 561.828 507.923 560.985 509.003C560.151 510.082 559.006 510.925 557.547 511.531C556.098 512.128 554.427 512.426 552.533 512.426C549.645 512.426 547.344 511.825 545.63 510.622C543.925 509.41 542.926 507.762 542.632 505.679L548.584 505.366C548.764 506.247 549.2 506.92 549.891 507.384C550.582 507.838 551.468 508.065 552.547 508.065C553.608 508.065 554.46 507.862 555.104 507.455C555.757 507.038 556.089 506.503 556.098 505.849C556.089 505.3 555.857 504.85 555.402 504.5C554.948 504.14 554.247 503.866 553.3 503.676L549.522 502.923C547.391 502.497 545.805 501.759 544.763 500.707C543.731 499.656 543.215 498.316 543.215 496.688C543.215 495.286 543.594 494.079 544.351 493.065C545.118 492.052 546.193 491.271 547.576 490.722C548.968 490.172 550.596 489.898 552.462 489.898C555.218 489.898 557.386 490.48 558.968 491.645C560.559 492.81 561.487 494.396 561.752 496.403ZM586.922 490.182V494.727H573.783V490.182H586.922ZM576.766 484.955H582.817V505.295C582.817 505.854 582.902 506.29 583.073 506.602C583.243 506.905 583.48 507.118 583.783 507.241C584.096 507.365 584.455 507.426 584.863 507.426C585.147 507.426 585.431 507.402 585.715 507.355C585.999 507.298 586.217 507.256 586.368 507.227L587.32 511.73C587.017 511.825 586.591 511.934 586.042 512.057C585.492 512.189 584.825 512.27 584.039 512.298C582.58 512.355 581.302 512.161 580.203 511.716C579.114 511.271 578.267 510.58 577.661 509.642C577.055 508.705 576.757 507.521 576.766 506.091V484.955ZM597.384 499.386V512H591.333V482.909H597.213V494.031H597.469C597.962 492.743 598.757 491.735 599.855 491.006C600.954 490.267 602.332 489.898 603.989 489.898C605.504 489.898 606.825 490.229 607.952 490.892C609.088 491.545 609.969 492.488 610.594 493.719C611.229 494.94 611.541 496.403 611.532 498.108V512H605.48V499.188C605.49 497.843 605.149 496.796 604.458 496.048C603.776 495.3 602.819 494.926 601.588 494.926C600.765 494.926 600.035 495.101 599.401 495.452C598.776 495.802 598.283 496.313 597.924 496.986C597.573 497.649 597.393 498.449 597.384 499.386ZM626.237 512.426C623.993 512.426 622.061 511.972 620.441 511.062C618.832 510.144 617.591 508.847 616.72 507.17C615.849 505.485 615.413 503.491 615.413 501.19C615.413 498.946 615.849 496.976 616.72 495.281C617.591 493.586 618.817 492.265 620.399 491.318C621.99 490.371 623.855 489.898 625.995 489.898C627.435 489.898 628.775 490.13 630.015 490.594C631.265 491.048 632.354 491.735 633.282 492.653C634.22 493.572 634.949 494.727 635.47 496.119C635.991 497.502 636.251 499.121 636.251 500.977V502.639H617.828V498.889H630.555C630.555 498.018 630.366 497.246 629.987 496.574C629.608 495.902 629.083 495.376 628.41 494.997C627.747 494.609 626.975 494.415 626.095 494.415C625.176 494.415 624.362 494.628 623.652 495.054C622.951 495.471 622.402 496.034 622.004 496.744C621.606 497.445 621.403 498.226 621.393 499.088V502.653C621.393 503.733 621.592 504.666 621.99 505.452C622.397 506.238 622.97 506.844 623.708 507.27C624.447 507.696 625.323 507.909 626.336 507.909C627.009 507.909 627.624 507.814 628.183 507.625C628.742 507.436 629.22 507.152 629.618 506.773C630.015 506.394 630.318 505.93 630.527 505.381L636.123 505.75C635.839 507.095 635.257 508.269 634.376 509.273C633.505 510.267 632.378 511.044 630.995 511.602C629.622 512.152 628.036 512.426 626.237 512.426ZM649.458 512V490.182H655.225V494.031H655.48C655.935 492.753 656.693 491.744 657.753 491.006C658.814 490.267 660.083 489.898 661.56 489.898C663.056 489.898 664.33 490.272 665.381 491.02C666.432 491.759 667.133 492.762 667.483 494.031H667.711C668.156 492.781 668.961 491.782 670.125 491.034C671.3 490.277 672.687 489.898 674.287 489.898C676.323 489.898 677.976 490.546 679.245 491.844C680.523 493.132 681.162 494.959 681.162 497.327V512H675.125V498.52C675.125 497.308 674.803 496.399 674.159 495.793C673.516 495.187 672.711 494.884 671.745 494.884C670.646 494.884 669.789 495.234 669.174 495.935C668.558 496.626 668.25 497.54 668.25 498.676V512H662.384V498.392C662.384 497.322 662.076 496.47 661.461 495.835C660.855 495.201 660.054 494.884 659.06 494.884C658.388 494.884 657.782 495.054 657.242 495.395C656.712 495.726 656.29 496.195 655.978 496.801C655.665 497.398 655.509 498.098 655.509 498.903V512H649.458ZM695.8 512.426C693.594 512.426 691.685 511.957 690.076 511.02C688.475 510.073 687.239 508.757 686.368 507.071C685.497 505.376 685.061 503.411 685.061 501.176C685.061 498.922 685.497 496.953 686.368 495.267C687.239 493.572 688.475 492.256 690.076 491.318C691.685 490.371 693.594 489.898 695.8 489.898C698.007 489.898 699.91 490.371 701.51 491.318C703.12 492.256 704.361 493.572 705.232 495.267C706.103 496.953 706.539 498.922 706.539 501.176C706.539 503.411 706.103 505.376 705.232 507.071C704.361 508.757 703.12 510.073 701.51 511.02C699.91 511.957 698.007 512.426 695.8 512.426ZM695.828 507.739C696.832 507.739 697.67 507.455 698.343 506.886C699.015 506.309 699.522 505.523 699.863 504.528C700.213 503.534 700.388 502.402 700.388 501.134C700.388 499.865 700.213 498.733 699.863 497.739C699.522 496.744 699.015 495.958 698.343 495.381C697.67 494.803 696.832 494.514 695.828 494.514C694.815 494.514 693.963 494.803 693.272 495.381C692.59 495.958 692.074 496.744 691.723 497.739C691.382 498.733 691.212 499.865 691.212 501.134C691.212 502.402 691.382 503.534 691.723 504.528C692.074 505.523 692.59 506.309 693.272 506.886C693.963 507.455 694.815 507.739 695.828 507.739ZM728.627 496.403L723.087 496.744C722.992 496.271 722.789 495.845 722.476 495.466C722.164 495.078 721.752 494.77 721.24 494.543C720.739 494.306 720.137 494.188 719.436 494.188C718.499 494.188 717.708 494.386 717.064 494.784C716.42 495.172 716.098 495.693 716.098 496.347C716.098 496.867 716.307 497.308 716.723 497.668C717.14 498.027 717.855 498.316 718.868 498.534L722.817 499.33C724.938 499.765 726.52 500.466 727.561 501.432C728.603 502.398 729.124 503.667 729.124 505.239C729.124 506.669 728.703 507.923 727.86 509.003C727.026 510.082 725.881 510.925 724.422 511.531C722.973 512.128 721.302 512.426 719.408 512.426C716.52 512.426 714.219 511.825 712.505 510.622C710.8 509.41 709.801 507.762 709.507 505.679L715.459 505.366C715.639 506.247 716.075 506.92 716.766 507.384C717.457 507.838 718.343 508.065 719.422 508.065C720.483 508.065 721.335 507.862 721.979 507.455C722.632 507.038 722.964 506.503 722.973 505.849C722.964 505.3 722.732 504.85 722.277 504.5C721.823 504.14 721.122 503.866 720.175 503.676L716.397 502.923C714.266 502.497 712.68 501.759 711.638 500.707C710.606 499.656 710.09 498.316 710.09 496.688C710.09 495.286 710.469 494.079 711.226 493.065C711.993 492.052 713.068 491.271 714.451 490.722C715.843 490.172 717.471 489.898 719.337 489.898C722.093 489.898 724.261 490.48 725.843 491.645C727.434 492.81 728.362 494.396 728.627 496.403ZM744.539 490.182V494.727H731.4V490.182H744.539ZM734.383 484.955H740.434V505.295C740.434 505.854 740.52 506.29 740.69 506.602C740.86 506.905 741.097 507.118 741.4 507.241C741.713 507.365 742.073 507.426 742.48 507.426C742.764 507.426 743.048 507.402 743.332 507.355C743.616 507.298 743.834 507.256 743.985 507.227L744.937 511.73C744.634 511.825 744.208 511.934 743.659 512.057C743.109 512.189 742.442 512.27 741.656 512.298C740.198 512.355 738.919 512.161 737.821 511.716C736.732 511.271 735.884 510.58 735.278 509.642C734.672 508.705 734.374 507.521 734.383 506.091V484.955ZM281.207 560.412C279.815 560.412 278.574 560.17 277.485 559.688C276.396 559.195 275.534 558.471 274.9 557.514C274.275 556.548 273.962 555.346 273.962 553.906C273.962 552.694 274.185 551.676 274.63 550.852C275.075 550.028 275.681 549.366 276.448 548.864C277.215 548.362 278.086 547.983 279.062 547.727C280.047 547.472 281.079 547.292 282.158 547.188C283.427 547.055 284.45 546.932 285.227 546.818C286.003 546.695 286.567 546.515 286.917 546.278C287.267 546.042 287.442 545.691 287.442 545.227V545.142C287.442 544.242 287.158 543.546 286.59 543.054C286.031 542.562 285.236 542.315 284.204 542.315C283.115 542.315 282.248 542.557 281.604 543.04C280.96 543.513 280.534 544.11 280.326 544.83L274.729 544.375C275.013 543.049 275.572 541.903 276.406 540.938C277.239 539.962 278.314 539.214 279.63 538.693C280.956 538.163 282.49 537.898 284.232 537.898C285.444 537.898 286.604 538.04 287.712 538.324C288.83 538.608 289.819 539.048 290.681 539.645C291.552 540.241 292.239 541.009 292.741 541.946C293.243 542.874 293.494 543.987 293.494 545.284V560H287.755V556.974H287.585C287.234 557.656 286.765 558.258 286.178 558.778C285.591 559.29 284.886 559.692 284.062 559.986C283.238 560.27 282.286 560.412 281.207 560.412ZM282.94 556.236C283.83 556.236 284.616 556.061 285.298 555.71C285.979 555.35 286.514 554.867 286.903 554.261C287.291 553.655 287.485 552.969 287.485 552.202V549.886C287.296 550.009 287.035 550.123 286.704 550.227C286.382 550.322 286.017 550.412 285.61 550.497C285.203 550.573 284.796 550.644 284.388 550.71C283.981 550.767 283.612 550.819 283.281 550.866C282.57 550.971 281.95 551.136 281.42 551.364C280.889 551.591 280.478 551.899 280.184 552.287C279.89 552.666 279.744 553.139 279.744 553.707C279.744 554.531 280.042 555.161 280.638 555.597C281.245 556.023 282.012 556.236 282.94 556.236ZM298.188 560V538.182H303.955V542.031H304.211C304.665 540.753 305.423 539.744 306.484 539.006C307.544 538.267 308.813 537.898 310.29 537.898C311.787 537.898 313.06 538.272 314.112 539.02C315.163 539.759 315.863 540.762 316.214 542.031H316.441C316.886 540.781 317.691 539.782 318.856 539.034C320.03 538.277 321.417 537.898 323.018 537.898C325.054 537.898 326.706 538.546 327.975 539.844C329.254 541.132 329.893 542.959 329.893 545.327V560H323.856V546.52C323.856 545.308 323.534 544.399 322.89 543.793C322.246 543.187 321.441 542.884 320.475 542.884C319.377 542.884 318.52 543.234 317.904 543.935C317.289 544.626 316.981 545.54 316.981 546.676V560H311.114V546.392C311.114 545.322 310.807 544.47 310.191 543.835C309.585 543.201 308.785 542.884 307.79 542.884C307.118 542.884 306.512 543.054 305.972 543.395C305.442 543.726 305.021 544.195 304.708 544.801C304.396 545.398 304.239 546.098 304.239 546.903V560H298.188ZM344.531 560.426C342.324 560.426 340.416 559.957 338.806 559.02C337.206 558.073 335.97 556.757 335.099 555.071C334.228 553.376 333.792 551.411 333.792 549.176C333.792 546.922 334.228 544.953 335.099 543.267C335.97 541.572 337.206 540.256 338.806 539.318C340.416 538.371 342.324 537.898 344.531 537.898C346.737 537.898 348.64 538.371 350.241 539.318C351.851 540.256 353.091 541.572 353.962 543.267C354.834 544.953 355.269 546.922 355.269 549.176C355.269 551.411 354.834 553.376 353.962 555.071C353.091 556.757 351.851 558.073 350.241 559.02C348.64 559.957 346.737 560.426 344.531 560.426ZM344.559 555.739C345.563 555.739 346.401 555.455 347.073 554.886C347.746 554.309 348.252 553.523 348.593 552.528C348.943 551.534 349.119 550.402 349.119 549.134C349.119 547.865 348.943 546.733 348.593 545.739C348.252 544.744 347.746 543.958 347.073 543.381C346.401 542.803 345.563 542.514 344.559 542.514C343.546 542.514 342.693 542.803 342.002 543.381C341.32 543.958 340.804 544.744 340.454 545.739C340.113 546.733 339.942 547.865 339.942 549.134C339.942 550.402 340.113 551.534 340.454 552.528C340.804 553.523 341.32 554.309 342.002 554.886C342.693 555.455 343.546 555.739 344.559 555.739ZM373.195 550.71V538.182H379.246V560H373.437V556.037H373.21C372.717 557.315 371.898 558.343 370.752 559.119C369.616 559.896 368.228 560.284 366.59 560.284C365.132 560.284 363.849 559.953 362.741 559.29C361.633 558.627 360.766 557.685 360.141 556.463C359.526 555.241 359.213 553.778 359.204 552.074V538.182H365.255V550.994C365.264 552.282 365.61 553.3 366.292 554.048C366.974 554.796 367.888 555.17 369.033 555.17C369.763 555.17 370.444 555.005 371.079 554.673C371.713 554.332 372.225 553.83 372.613 553.168C373.011 552.505 373.205 551.686 373.195 550.71ZM390.138 547.386V560H384.087V538.182H389.854V542.031H390.109C390.592 540.762 391.402 539.759 392.538 539.02C393.675 538.272 395.053 537.898 396.672 537.898C398.187 537.898 399.508 538.229 400.635 538.892C401.762 539.555 402.638 540.502 403.263 541.733C403.888 542.955 404.2 544.413 404.2 546.108V560H398.149V547.188C398.159 545.852 397.818 544.811 397.126 544.062C396.435 543.305 395.483 542.926 394.271 542.926C393.457 542.926 392.737 543.101 392.112 543.452C391.497 543.802 391.014 544.313 390.663 544.986C390.322 545.649 390.147 546.449 390.138 547.386ZM420.575 538.182V542.727H407.435V538.182H420.575ZM410.418 532.955H416.469V553.295C416.469 553.854 416.555 554.29 416.725 554.602C416.896 554.905 417.132 555.118 417.435 555.241C417.748 555.365 418.108 555.426 418.515 555.426C418.799 555.426 419.083 555.402 419.367 555.355C419.651 555.298 419.869 555.256 420.021 555.227L420.972 559.73C420.669 559.825 420.243 559.934 419.694 560.057C419.145 560.189 418.477 560.27 417.691 560.298C416.233 560.355 414.954 560.161 413.856 559.716C412.767 559.271 411.919 558.58 411.313 557.642C410.707 556.705 410.409 555.521 410.418 554.091V532.955ZM443.632 560.426C441.426 560.426 439.518 559.957 437.908 559.02C436.307 558.073 435.071 556.757 434.2 555.071C433.329 553.376 432.893 551.411 432.893 549.176C432.893 546.922 433.329 544.953 434.2 543.267C435.071 541.572 436.307 540.256 437.908 539.318C439.518 538.371 441.426 537.898 443.632 537.898C445.839 537.898 447.742 538.371 449.342 539.318C450.952 540.256 452.193 541.572 453.064 543.267C453.935 544.953 454.371 546.922 454.371 549.176C454.371 551.411 453.935 553.376 453.064 555.071C452.193 556.757 450.952 558.073 449.342 559.02C447.742 559.957 445.839 560.426 443.632 560.426ZM443.661 555.739C444.664 555.739 445.502 555.455 446.175 554.886C446.847 554.309 447.354 553.523 447.695 552.528C448.045 551.534 448.22 550.402 448.22 549.134C448.22 547.865 448.045 546.733 447.695 545.739C447.354 544.744 446.847 543.958 446.175 543.381C445.502 542.803 444.664 542.514 443.661 542.514C442.647 542.514 441.795 542.803 441.104 543.381C440.422 543.958 439.906 544.744 439.555 545.739C439.214 546.733 439.044 547.865 439.044 549.134C439.044 550.402 439.214 551.534 439.555 552.528C439.906 553.523 440.422 554.309 441.104 554.886C441.795 555.455 442.647 555.739 443.661 555.739ZM470.038 538.182V542.727H456.572V538.182H470.038ZM459.655 560V536.605C459.655 535.024 459.963 533.712 460.578 532.67C461.203 531.629 462.055 530.848 463.135 530.327C464.214 529.806 465.441 529.545 466.814 529.545C467.742 529.545 468.589 529.616 469.357 529.759C470.133 529.901 470.711 530.028 471.089 530.142L470.01 534.688C469.773 534.612 469.48 534.541 469.129 534.474C468.788 534.408 468.438 534.375 468.078 534.375C467.188 534.375 466.568 534.583 466.217 535C465.867 535.407 465.692 535.98 465.692 536.719V560H459.655ZM482.993 568.182V538.182H488.959V541.847H489.229C489.494 541.259 489.877 540.663 490.379 540.057C490.891 539.441 491.554 538.93 492.368 538.523C493.192 538.106 494.214 537.898 495.436 537.898C497.027 537.898 498.495 538.314 499.839 539.148C501.184 539.972 502.259 541.217 503.064 542.884C503.869 544.541 504.271 546.619 504.271 549.119C504.271 551.553 503.878 553.608 503.092 555.284C502.316 556.951 501.255 558.215 499.911 559.077C498.575 559.929 497.079 560.355 495.422 560.355C494.248 560.355 493.249 560.161 492.425 559.773C491.61 559.384 490.943 558.897 490.422 558.31C489.901 557.713 489.503 557.112 489.229 556.506H489.044V568.182H482.993ZM488.916 549.091C488.916 550.388 489.096 551.52 489.456 552.486C489.816 553.452 490.337 554.205 491.018 554.744C491.7 555.275 492.529 555.54 493.504 555.54C494.489 555.54 495.322 555.27 496.004 554.73C496.686 554.181 497.202 553.423 497.553 552.457C497.912 551.482 498.092 550.36 498.092 549.091C498.092 547.831 497.917 546.723 497.567 545.767C497.216 544.811 496.7 544.062 496.018 543.523C495.337 542.983 494.499 542.713 493.504 542.713C492.519 542.713 491.686 542.973 491.004 543.494C490.332 544.015 489.816 544.754 489.456 545.71C489.096 546.667 488.916 547.794 488.916 549.091ZM518.163 560.426C515.957 560.426 514.049 559.957 512.439 559.02C510.839 558.073 509.603 556.757 508.732 555.071C507.86 553.376 507.425 551.411 507.425 549.176C507.425 546.922 507.86 544.953 508.732 543.267C509.603 541.572 510.839 540.256 512.439 539.318C514.049 538.371 515.957 537.898 518.163 537.898C520.37 537.898 522.273 538.371 523.874 539.318C525.483 540.256 526.724 541.572 527.595 543.267C528.466 544.953 528.902 546.922 528.902 549.176C528.902 551.411 528.466 553.376 527.595 555.071C526.724 556.757 525.483 558.073 523.874 559.02C522.273 559.957 520.37 560.426 518.163 560.426ZM518.192 555.739C519.196 555.739 520.034 555.455 520.706 554.886C521.378 554.309 521.885 553.523 522.226 552.528C522.576 551.534 522.751 550.402 522.751 549.134C522.751 547.865 522.576 546.733 522.226 545.739C521.885 544.744 521.378 543.958 520.706 543.381C520.034 542.803 519.196 542.514 518.192 542.514C517.179 542.514 516.326 542.803 515.635 543.381C514.953 543.958 514.437 544.744 514.087 545.739C513.746 546.733 513.575 547.865 513.575 549.134C513.575 550.402 513.746 551.534 514.087 552.528C514.437 553.523 514.953 554.309 515.635 554.886C516.326 555.455 517.179 555.739 518.192 555.739ZM532.837 560V538.182H538.888V560H532.837ZM535.876 535.369C534.977 535.369 534.205 535.071 533.561 534.474C532.927 533.868 532.609 533.144 532.609 532.301C532.609 531.468 532.927 530.753 533.561 530.156C534.205 529.55 534.977 529.247 535.876 529.247C536.776 529.247 537.543 529.55 538.178 530.156C538.821 530.753 539.143 531.468 539.143 532.301C539.143 533.144 538.821 533.868 538.178 534.474C537.543 535.071 536.776 535.369 535.876 535.369ZM549.786 547.386V560H543.735V538.182H549.502V542.031H549.758C550.241 540.762 551.05 539.759 552.187 539.02C553.323 538.272 554.701 537.898 556.32 537.898C557.835 537.898 559.156 538.229 560.283 538.892C561.41 539.555 562.286 540.502 562.911 541.733C563.536 542.955 563.849 544.413 563.849 546.108V560H557.798V547.188C557.807 545.852 557.466 544.811 556.775 544.062C556.084 543.305 555.132 542.926 553.92 542.926C553.105 542.926 552.386 543.101 551.761 543.452C551.145 543.802 550.662 544.313 550.312 544.986C549.971 545.649 549.796 546.449 549.786 547.386ZM580.223 538.182V542.727H567.084V538.182H580.223ZM570.067 532.955H576.118V553.295C576.118 553.854 576.203 554.29 576.374 554.602C576.544 554.905 576.781 555.118 577.084 555.241C577.396 555.365 577.756 555.426 578.163 555.426C578.447 555.426 578.732 555.402 579.016 555.355C579.3 555.298 579.518 555.256 579.669 555.227L580.621 559.73C580.318 559.825 579.892 559.934 579.342 560.057C578.793 560.189 578.125 560.27 577.339 560.298C575.881 560.355 574.603 560.161 573.504 559.716C572.415 559.271 571.568 558.58 570.962 557.642C570.356 556.705 570.057 555.521 570.067 554.091V532.955ZM602.045 544.403L596.505 544.744C596.41 544.271 596.207 543.845 595.894 543.466C595.582 543.078 595.17 542.77 594.658 542.543C594.156 542.306 593.555 542.188 592.854 542.188C591.917 542.188 591.126 542.386 590.482 542.784C589.838 543.172 589.516 543.693 589.516 544.347C589.516 544.867 589.725 545.308 590.141 545.668C590.558 546.027 591.273 546.316 592.286 546.534L596.235 547.33C598.356 547.765 599.938 548.466 600.979 549.432C602.021 550.398 602.542 551.667 602.542 553.239C602.542 554.669 602.121 555.923 601.278 557.003C600.444 558.082 599.299 558.925 597.84 559.531C596.391 560.128 594.72 560.426 592.826 560.426C589.938 560.426 587.637 559.825 585.923 558.622C584.218 557.41 583.219 555.762 582.925 553.679L588.877 553.366C589.057 554.247 589.493 554.92 590.184 555.384C590.875 555.838 591.761 556.065 592.84 556.065C593.901 556.065 594.753 555.862 595.397 555.455C596.05 555.038 596.382 554.503 596.391 553.849C596.382 553.3 596.15 552.85 595.695 552.5C595.241 552.14 594.54 551.866 593.593 551.676L589.815 550.923C587.684 550.497 586.098 549.759 585.056 548.707C584.024 547.656 583.508 546.316 583.508 544.688C583.508 543.286 583.887 542.079 584.644 541.065C585.411 540.052 586.486 539.271 587.869 538.722C589.261 538.172 590.889 537.898 592.755 537.898C595.511 537.898 597.679 538.48 599.261 539.645C600.852 540.81 601.78 542.396 602.045 544.403ZM619.914 560L613.977 538.182H620.099L623.479 552.841H623.678L627.201 538.182H633.21L636.789 552.756H636.974L640.298 538.182H646.406L640.482 560H634.076L630.326 546.278H630.056L626.306 560H619.914ZM649.634 560V538.182H655.685V560H649.634ZM652.673 535.369C651.774 535.369 651.002 535.071 650.358 534.474C649.723 533.868 649.406 533.144 649.406 532.301C649.406 531.468 649.723 530.753 650.358 530.156C651.002 529.55 651.774 529.247 652.673 529.247C653.573 529.247 654.34 529.55 654.974 530.156C655.618 530.753 655.94 531.468 655.94 532.301C655.94 533.144 655.618 533.868 654.974 534.474C654.34 535.071 653.573 535.369 652.673 535.369ZM666.583 547.386V560H660.532V538.182H666.299V542.031H666.555C667.038 540.762 667.847 539.759 668.984 539.02C670.12 538.272 671.498 537.898 673.117 537.898C674.632 537.898 675.953 538.229 677.08 538.892C678.207 539.555 679.083 540.502 679.708 541.733C680.333 542.955 680.646 544.413 680.646 546.108V560H674.594V547.188C674.604 545.852 674.263 544.811 673.572 544.062C672.88 543.305 671.929 542.926 670.717 542.926C669.902 542.926 669.183 543.101 668.558 543.452C667.942 543.802 667.459 544.313 667.109 544.986C666.768 545.649 666.593 546.449 666.583 547.386ZM703.568 544.403L698.028 544.744C697.934 544.271 697.73 543.845 697.418 543.466C697.105 543.078 696.693 542.77 696.182 542.543C695.68 542.306 695.079 542.188 694.378 542.188C693.44 542.188 692.65 542.386 692.006 542.784C691.362 543.172 691.04 543.693 691.04 544.347C691.04 544.867 691.248 545.308 691.665 545.668C692.081 546.027 692.796 546.316 693.81 546.534L697.759 547.33C699.88 547.765 701.461 548.466 702.503 549.432C703.545 550.398 704.065 551.667 704.065 553.239C704.065 554.669 703.644 555.923 702.801 557.003C701.968 558.082 700.822 558.925 699.364 559.531C697.915 560.128 696.243 560.426 694.349 560.426C691.461 560.426 689.16 559.825 687.446 558.622C685.741 557.41 684.742 555.762 684.449 553.679L690.401 553.366C690.58 554.247 691.016 554.92 691.707 555.384C692.399 555.838 693.284 556.065 694.364 556.065C695.424 556.065 696.277 555.862 696.92 555.455C697.574 555.038 697.905 554.503 697.915 553.849C697.905 553.3 697.673 552.85 697.219 552.5C696.764 552.14 696.063 551.866 695.116 551.676L691.338 550.923C689.207 550.497 687.621 549.759 686.58 548.707C685.547 547.656 685.031 546.316 685.031 544.688C685.031 543.286 685.41 542.079 686.168 541.065C686.935 540.052 688.009 539.271 689.392 538.722C690.784 538.172 692.413 537.898 694.278 537.898C697.034 537.898 699.203 538.48 700.784 539.645C702.375 540.81 703.303 542.396 703.568 544.403ZM715.106 530.909L714.552 551.278H709.353L708.785 530.909H715.106ZM711.952 560.369C711.015 560.369 710.21 560.038 709.538 559.375C708.865 558.703 708.534 557.898 708.543 556.96C708.534 556.032 708.865 555.237 709.538 554.574C710.21 553.911 711.015 553.58 711.952 553.58C712.852 553.58 713.643 553.911 714.325 554.574C715.006 555.237 715.352 556.032 715.362 556.96C715.352 557.585 715.186 558.158 714.864 558.679C714.552 559.19 714.14 559.602 713.629 559.915C713.117 560.218 712.558 560.369 711.952 560.369Z" fill="#9DA3CB"/>
<path d="M548.889 163H443.111C430.597 163 420.397 173.304 420.869 185.782C420.964 188.287 421.058 190.792 421.2 193.25H371.333C365.053 193.25 360 198.307 360 204.594C360 248.362 375.819 278.801 397.069 299.456C417.989 319.827 443.489 330.084 462.283 335.283C473.333 338.355 480.889 347.572 480.889 356.836C480.889 366.715 472.861 374.75 462.992 374.75H450.667C442.308 374.75 435.556 381.509 435.556 389.875C435.556 398.241 442.308 405 450.667 405H541.333C549.692 405 556.444 398.241 556.444 389.875C556.444 381.509 549.692 374.75 541.333 374.75H529.008C519.139 374.75 511.111 366.715 511.111 356.836C511.111 347.572 518.619 338.308 529.717 335.283C548.558 330.084 574.058 319.827 594.978 299.456C616.181 278.801 632 248.362 632 204.594C632 198.307 626.947 193.25 620.667 193.25H570.8C570.942 190.792 571.036 188.334 571.131 185.782C571.603 173.304 561.403 163 548.889 163ZM383.092 215.938H422.947C427.244 258.524 436.736 286.978 447.456 306.026C435.697 300.827 423.467 293.5 412.889 283.196C397.778 268.497 385.5 247.275 383.139 215.938H383.092ZM579.158 283.196C568.581 293.5 556.35 300.827 544.592 306.026C555.311 286.978 564.803 258.524 569.1 215.938H608.956C606.547 247.275 594.269 268.497 579.206 283.196H579.158Z" fill="#FFD65B"/>
</svg>
